<?xml version="1.0" encoding="UTF-8" standalone="no"?>
<!-- Created with Inkscape (http://www.inkscape.org/) -->

<svg
   width="3600mm"
   height="2400mm"
   viewBox="0 0 3600 2400"
   version="1.1"
   id="svg5"
   inkscape:version="1.2.2 (732a01da63, 2022-12-09)"
   sodipodi:docname="projects-thumb_inkscape.svg"
   xml:space="preserve"
   xmlns:inkscape="http://www.inkscape.org/namespaces/inkscape"
   xmlns:sodipodi="http://sodipodi.sourceforge.net/DTD/sodipodi-0.dtd"
   xmlns="http://www.w3.org/2000/svg"
   xmlns:svg="http://www.w3.org/2000/svg"><sodipodi:namedview
     id="namedview7"
     pagecolor="#ffffff"
     bordercolor="#666666"
     borderopacity="1.0"
     inkscape:showpageshadow="2"
     inkscape:pageopacity="0.0"
     inkscape:pagecheckerboard="0"
     inkscape:deskcolor="#d1d1d1"
     inkscape:document-units="mm"
     showgrid="false"
     inkscape:zoom="0.057181625"
     inkscape:cx="2684.4288"
     inkscape:cy="4100.9677"
     inkscape:window-width="1920"
     inkscape:window-height="1001"
     inkscape:window-x="-9"
     inkscape:window-y="-9"
     inkscape:window-maximized="1"
     inkscape:current-layer="layer1" /><defs
     id="defs2" /><g
     inkscape:label="Layer 1"
     inkscape:groupmode="layer"
     id="layer1"><rect
       style="fill:#63b7d5;stroke-width:16.9333;stroke-linecap:round;stroke-linejoin:round;fill-opacity:1"
       id="rect234"
       width="3599.9998"
       height="2400"
       x="0"
       y="0"
       inkscape:label="background" /><rect
       style="display:none;fill:#808080;fill-opacity:1;stroke-width:16.9333;stroke-linecap:round;stroke-linejoin:round"
       id="rect946"
       width="3599.9995"
       height="2025"
       x="0"
       y="187.5"
       inkscape:label="video" /><rect
       style="display:none;fill:#ffffff;fill-opacity:1;stroke-width:16.9333;stroke-linecap:round;stroke-linejoin:round"
       id="rect1782"
       width="3599.9995"
       height="1890"
       x="0"
       y="254.99997"
       inkscape:label="og" /><g
       id="g2272"
       transform="matrix(8.3900309,0,0,8.3900309,1002.8534,438.43396)"
       inkscape:label="cube"><g
         id="g4605"
         style="display:inline"
         inkscape:label="022"><path
           id="path4555"
           d="m 23.568,163.95 -2.012,-0.6 -1.3703,-3.223 3.2334,0.737 z"
           fill="#000000" /><path
           id="path4557"
           d="m 23.568,163.95 -0.1489,-3.086 3.9758,-0.248 -0.7512,3.082 z"
           fill="#2a2a2a" /><path
           id="path4559"
           d="m 58.818,113.64 -32.764,6.165 -1.9651,-2.402 32.728,-6.109 z"
           fill="#000000" /><path
           id="path4561"
           d="m 59.658,117.54 -32.748,6.235 -0.8563,-3.974 32.764,-6.165 z"
           fill="#373737" /><path
           id="path4563"
           d="m 22.888,124 0.5383,36.865 -3.2334,-0.737 -0.5745,-36.802 z"
           fill="#232323" /><path
           id="path4565"
           d="m 26.908,123.78 0.4921,36.844 -3.9758,0.248 -0.5383,-36.865 z"
           fill="#474747" /><path
           id="path4567"
           d="m 22.938,120.58 -2.0467,-1.086 3.1921,-2.088 1.9651,2.401 z"
           fill="#030303" /><path
           id="path4569"
           d="m 22.938,120.58 -0.0552,3.428 -3.2696,-0.675 1.2781,-3.839 z"
           fill="#1e1e1e" /><path
           id="path4571"
           d="m 22.938,120.58 3.1105,-0.773 0.8563,3.974 -4.022,0.227 z"
           fill="#4b4b4b" /><path
           id="path4573"
           d="m 61.498,113.32 0.42,3.267 -2.2626,0.958 -0.8406,-3.904 z"
           fill="#151515" /><path
           id="path4575"
           d="m 20.898,119.49 -19.542,-9.258 3.1313,-2.021 19.603,9.191 z"
           fill="#000000" /><path
           id="path4577"
           d="m 19.618,123.33 -19.5,-9.357 1.2366,-3.741 19.542,9.258 z"
           fill="#000000" /><path
           id="path4579"
           d="m -0.062,109.67 2.7463,-0.874 1.803,-0.588 -3.1313,2.021 z"
           fill="#000000" /><path
           id="path4581"
           d="m -0.062,109.67 1.418,0.559 -1.2366,3.741 -0.5147,-1.113 z"
           fill="#000000" /><path
           id="path4583"
           d="m 61.918,116.58 0.0908,36.178 -2.2371,1.047 -0.1163,-36.267 z"
           fill="#000000" /><path
           id="path4585"
           d="m 58.968,156.85 -32.316,6.852 0.7512,-3.082 32.372,-6.812 z"
           fill="#060606" /><path
           id="path4587"
           d="m 0.118,113.97 0.7757,35.935 -0.5115,-1.216 -0.7789,-35.832 z"
           fill="#000000" /><path
           id="path4589"
           d="m 0.888,149.91 19.299,10.224 1.3703,3.223 -19.302,-10.291 z"
           fill="#000000" /><path
           id="path4591"
           d="m 0.888,149.91 1.3681,3.156 -1.4136,-1.212 -0.466,-3.16 z"
           fill="#000000" /><path
           id="path4593"
           d="m 39.748,103.3 20.161,8.877 -3.0957,-0.883 -20.122,-8.873 z"
           fill="#000000"
           style="display:inline" /><path
           id="path4595"
           d="m 61.498,113.32 -2.6832,0.321 -2.0004,-2.346 3.0957,0.884 z"
           fill="#000000"
           style="display:inline" /><path
           id="path4597"
           d="m 61.608,155.9 -2.6457,0.952 0.8071,-3.041 2.2371,-1.048 z"
           fill="#000000"
           style="display:inline" /><path
           id="path4599"
           d="m 27.398,160.62 -0.4921,-36.844 32.748,-6.235 0.1163,36.267 z"
           style="display:inline;fill:#2e2e2e;fill-opacity:1;stroke:none;stroke-opacity:1" /><path
           id="path4601"
           d="m 0.888,149.91 -0.7757,-35.935 19.5,9.357 0.5745,36.802 z"
           style="display:inline;fill:#129f00;fill-opacity:1" /><path
           id="path4603"
           d="m 4.478,108.211 32.209,-5.79 20.122,8.872 -32.728,6.109 z"
           style="display:inline;fill:#000000;fill-opacity:1" /></g><g
         id="g4763"
         style="display:inline"
         inkscape:label="012"><path
           id="path4713"
           d="m 46.923,175.163 -2.012,-0.6 -1.3703,-3.223 3.2334,0.737 z"
           fill="#000000" /><path
           id="path4715"
           d="m 46.923,175.163 -0.1489,-3.086 3.9758,-0.248 -0.7512,3.082 z"
           fill="#2a2a2a" /><path
           id="path4717"
           d="m 82.173,124.853 -32.764,6.165 -1.9651,-2.402 32.728,-6.109 z"
           fill="#000000" /><path
           id="path4719"
           d="m 83.013,128.753 -32.748,6.235 -0.8563,-3.974 32.764,-6.165 z"
           fill="#373737" /><path
           id="path4721"
           d="m 46.243,135.213 0.5383,36.865 -3.2334,-0.737 -0.5745,-36.802 z"
           fill="#232323" /><path
           id="path4723"
           d="m 50.263,134.993 0.4921,36.844 -3.9758,0.248 -0.5383,-36.865 z"
           fill="#474747" /><path
           id="path4725"
           d="m 46.293,131.793 -2.0467,-1.086 3.1921,-2.088 1.9651,2.401 z"
           fill="#030303" /><path
           id="path4727"
           d="m 46.293,131.793 -0.0552,3.428 -3.2696,-0.675 1.2781,-3.839 z"
           fill="#1e1e1e" /><path
           id="path4729"
           d="m 46.293,131.793 3.1105,-0.773 0.8563,3.974 -4.022,0.227 z"
           fill="#4b4b4b" /><path
           id="path4731"
           d="m 84.853,124.533 0.42,3.266 -2.2626,0.959 -0.8406,-3.904 z"
           fill="#151515" /><path
           id="path4733"
           d="m 44.253,130.703 -19.542,-9.258 3.1313,-2.021 19.603,9.191 z"
           fill="#000000" /><path
           id="path4735"
           d="m 42.973,134.543 -19.5,-9.357 1.2366,-3.741 19.542,9.258 z"
           fill="#000000" /><path
           id="path4737"
           d="m 23.293,120.883 2.7463,-0.875 1.803,-0.587 -3.1313,2.021 z"
           fill="#000000" /><path
           id="path4739"
           d="m 23.293,120.883 1.418,0.559 -1.2366,3.741 -0.5147,-1.113 z"
           fill="#000000" /><path
           id="path4741"
           d="m 85.273,127.793 0.0908,36.178 -2.2371,1.047 -0.1163,-36.267 z"
           fill="#000000" /><path
           id="path4743"
           d="m 82.323,168.063 -32.316,6.852 0.7512,-3.082 32.372,-6.812 z"
           fill="#060606" /><path
           id="path4745"
           d="m 23.473,125.183 0.7757,35.935 -0.5115,-1.216 -0.7789,-35.832 z"
           fill="#000000" /><path
           id="path4747"
           d="m 24.243,161.123 19.299,10.224 1.3703,3.223 -19.302,-10.291 z"
           fill="#000000" /><path
           id="path4749"
           d="m 24.243,161.123 1.3681,3.156 -1.4136,-1.212 -0.466,-3.16 z"
           fill="#000000" /><path
           id="path4751"
           d="m 63.103,114.513 20.161,8.877 -3.0957,-0.883 -20.122,-8.873 z"
           fill="#000000"
           style="display:inline" /><path
           id="path4753"
           d="m 84.853,124.533 -2.6832,0.321 -2.0004,-2.346 3.0957,0.884 z"
           fill="#000000"
           style="display:inline" /><path
           id="path4755"
           d="m 84.963,167.113 -2.6457,0.952 0.8071,-3.041 2.2371,-1.048 z"
           fill="#000000"
           style="display:inline" /><path
           id="path4757"
           d="m 50.753,171.833 -0.4921,-36.844 32.748,-6.235 0.1163,36.267 z"
           style="display:inline;fill:#2e2e2e;fill-opacity:1;stroke:none;stroke-opacity:1" /><path
           id="path4759"
           d="m 24.243,161.123 -0.7757,-35.935 19.5,9.357 0.5745,36.802 z"
           style="display:inline;fill:#ae1717;fill-opacity:1" /><path
           id="path4761"
           d="m 27.833,119.424 32.209,-5.79 20.122,8.872 -32.728,6.109 z"
           style="display:inline;fill:#000000;fill-opacity:1" /></g><g
         id="g4817"
         style="display:inline"
         inkscape:label="202"><path
           id="path4767"
           d="m 153.226,171.128 -2.012,-0.6 -1.37,-3.223 3.233,0.737 z"
           fill="#000000" /><path
           id="path4769"
           d="m 153.226,171.128 -0.149,-3.086 3.976,-0.248 -0.751,3.082 z"
           fill="#2a2a2a" /><path
           id="path4771"
           d="m 188.476,120.818 -32.764,6.165 -1.965,-2.402 32.728,-6.109 z"
           fill="#000000" /><path
           id="path4773"
           d="m 189.316,124.718 -32.748,6.235 -0.856,-3.974 32.764,-6.165 z"
           fill="#373737" /><path
           id="path4775"
           d="m 152.546,131.178 0.538,36.865 -3.233,-0.737 -0.575,-36.802 z"
           fill="#232323" /><path
           id="path4777"
           d="m 156.566,130.958 0.492,36.844 -3.976,0.248 -0.538,-36.865 z"
           fill="#474747" /><path
           id="path4779"
           d="m 152.596,127.758 -2.047,-1.086 3.192,-2.088 1.966,2.401 z"
           fill="#030303" /><path
           id="path4781"
           d="m 152.596,127.758 -0.055,3.428 -3.27,-0.675 1.278,-3.839 z"
           fill="#1e1e1e" /><path
           id="path4783"
           d="m 152.596,127.758 3.111,-0.773 0.856,3.974 -4.022,0.227 z"
           fill="#4b4b4b" /><path
           id="path4785"
           d="m 191.156,120.498 0.42,3.266 -2.263,0.959 -0.84,-3.904 z"
           fill="#151515" /><path
           id="path4787"
           d="m 150.556,126.668 -19.542,-9.258 3.131,-2.021 19.603,9.191 z"
           fill="#000000" /><path
           id="path4789"
           d="m 149.276,130.508 -19.5,-9.357 1.237,-3.741 19.542,9.258 z"
           fill="#000000" /><path
           id="path4791"
           d="m 129.596,116.848 2.746,-0.874 1.803,-0.588 -3.131,2.021 z"
           fill="#000000" /><path
           id="path4793"
           d="m 129.596,116.848 1.418,0.559 -1.237,3.741 -0.514,-1.113 z"
           fill="#000000" /><path
           id="path4795"
           d="m 191.576,123.758 0.091,36.178 -2.237,1.047 -0.117,-36.267 z"
           fill="#000000" /><path
           id="path4797"
           d="m 188.626,164.028 -32.316,6.852 0.751,-3.082 32.372,-6.812 z"
           fill="#060606" /><path
           id="path4799"
           d="m 129.776,121.148 0.776,35.935 -0.512,-1.216 -0.779,-35.832 z"
           fill="#000000" /><path
           id="path4801"
           d="m 130.546,157.088 19.299,10.224 1.37,3.223 -19.302,-10.291 z"
           fill="#000000" /><path
           id="path4803"
           d="m 130.546,157.088 1.368,3.156 -1.413,-1.212 -0.466,-3.16 z"
           fill="#000000" /><path
           id="path4805"
           d="m 169.406,110.478 20.161,8.877 -3.096,-0.883 -20.122,-8.873 z"
           fill="#000000"
           style="display:inline" /><path
           id="path4807"
           d="m 191.156,120.498 -2.683,0.321 -2.001,-2.346 3.096,0.884 z"
           fill="#000000"
           style="display:inline" /><path
           id="path4809"
           d="m 191.266,163.078 -2.646,0.952 0.807,-3.041 2.238,-1.048 z"
           fill="#000000"
           style="display:inline" /><path
           id="path4811"
           d="m 157.056,167.798 -0.492,-36.844 32.748,-6.235 0.116,36.267 z"
           style="display:inline;fill:#ae5517;fill-opacity:1;stroke:none;stroke-opacity:1" /><path
           id="path4813"
           d="m 130.546,157.088 -0.776,-35.935 19.5,9.357 0.575,36.802 z"
           style="display:inline;fill:#000000;fill-opacity:1" /><path
           id="path4815"
           d="m 134.136,115.389 32.209,-5.79 20.122,8.872 -32.728,6.109 z"
           style="display:inline;fill:#040400;fill-opacity:1" /></g><g
         id="g4869"
         style="display:inline"
         inkscape:label="102"><path
           id="path4819"
           d="m 111.752,178.752 -2.012,-0.6 -1.37,-3.223 3.233,0.737 z"
           fill="#000000" /><path
           id="path4821"
           d="m 111.752,178.752 -0.149,-3.086 3.976,-0.248 -0.751,3.082 z"
           fill="#2a2a2a" /><path
           id="path4823"
           d="m 147.002,128.442 -32.764,6.165 -1.965,-2.402 32.728,-6.109 z"
           fill="#000000" /><path
           id="path4825"
           d="m 147.842,132.342 -32.748,6.235 -0.856,-3.974 32.764,-6.165 z"
           fill="#373737" /><path
           id="path4827"
           d="m 111.072,138.802 0.538,36.865 -3.233,-0.737 -0.575,-36.802 z"
           fill="#232323" /><path
           id="path4829"
           d="m 115.092,138.582 0.492,36.844 -3.976,0.248 -0.538,-36.865 z"
           fill="#474747" /><path
           id="path4831"
           d="m 111.122,135.382 -2.047,-1.086 3.192,-2.088 1.965,2.401 z"
           fill="#030303" /><path
           id="path4833"
           d="m 111.122,135.382 -0.055,3.428 -3.27,-0.675 1.278,-3.839 z"
           fill="#1e1e1e" /><path
           id="path4835"
           d="m 111.122,135.382 3.11,-0.773 0.857,3.974 -4.022,0.227 z"
           fill="#4b4b4b" /><path
           id="path4837"
           d="m 149.682,128.122 0.42,3.266 -2.263,0.959 -0.84,-3.904 z"
           fill="#151515" /><path
           id="path4839"
           d="m 109.082,134.292 -19.542,-9.258 3.1313,-2.021 19.6027,9.191 z"
           fill="#000000" /><path
           id="path4841"
           d="m 107.802,138.132 -19.5,-9.357 1.2366,-3.741 19.5424,9.258 z"
           fill="#000000" /><path
           id="path4843"
           d="m 88.122,124.472 2.7463,-0.875 1.803,-0.587 -3.1313,2.021 z"
           fill="#000000" /><path
           id="path4845"
           d="m 88.122,124.472 1.418,0.559 -1.2366,3.741 -0.5147,-1.113 z"
           fill="#000000" /><path
           id="path4847"
           d="m 150.102,131.382 0.091,36.178 -2.237,1.047 -0.117,-36.267 z"
           fill="#000000" /><path
           id="path4849"
           d="m 147.152,171.652 -32.316,6.852 0.751,-3.082 32.372,-6.812 z"
           fill="#060606" /><path
           id="path4851"
           d="m 88.302,128.772 0.7757,35.935 -0.5115,-1.216 -0.7789,-35.832 z"
           fill="#000000" /><path
           id="path4853"
           d="m 89.072,164.712 19.299,10.224 1.37,3.223 -19.3017,-10.291 z"
           fill="#000000" /><path
           id="path4855"
           d="m 89.072,164.712 1.3681,3.156 -1.4136,-1.212 -0.466,-3.16 z"
           fill="#000000" /><path
           id="path4857"
           d="m 127.932,118.102 20.161,8.877 -3.096,-0.883 -20.122,-8.873 z"
           fill="#000000"
           style="display:inline" /><path
           id="path4859"
           d="m 149.682,128.122 -2.683,0.321 -2.001,-2.346 3.096,0.884 z"
           fill="#000000"
           style="display:inline" /><path
           id="path4861"
           d="m 149.792,170.702 -2.646,0.952 0.807,-3.041 2.237,-1.048 z"
           fill="#000000"
           style="display:inline" /><path
           id="path4863"
           d="m 115.582,175.422 -0.492,-36.844 32.748,-6.235 0.116,36.267 z"
           style="display:inline;fill:#d6de00;fill-opacity:1;stroke:none;stroke-opacity:1" /><path
           id="path4865"
           d="m 89.072,164.712 -0.7757,-35.935 19.4997,9.357 0.575,36.802 z"
           style="display:inline;fill:#000000;fill-opacity:1" /><path
           id="path4867"
           d="m 92.662,123.013 32.209,-5.79 20.122,8.872 -32.728,6.109 z"
           style="display:inline;fill:#000000;fill-opacity:1" /></g><g
         id="g4921"
         style="display:inline"
         inkscape:label="002"><path
           id="path4871"
           d="m 70.278,186.376 -2.012,-0.6 -1.3703,-3.223 3.2334,0.737 z"
           fill="#000000" /><path
           id="path4873"
           d="m 70.278,186.376 -0.1489,-3.086 3.9758,-0.248 -0.7512,3.082 z"
           fill="#2a2a2a" /><path
           id="path4875"
           d="m 105.528,136.066 -32.764,6.165 -1.9651,-2.402 32.7281,-6.109 z"
           fill="#000000" /><path
           id="path4877"
           d="m 106.368,139.966 -32.748,6.235 -0.8563,-3.974 32.7643,-6.165 z"
           fill="#373737" /><path
           id="path4879"
           d="m 69.598,146.426 0.5383,36.865 -3.2334,-0.737 -0.5745,-36.802 z"
           fill="#232323" /><path
           id="path4881"
           d="m 73.618,146.206 0.4921,36.844 -3.9758,0.248 -0.5383,-36.865 z"
           fill="#474747" /><path
           id="path4883"
           d="m 69.648,143.006 -2.0467,-1.086 3.1921,-2.088 1.9651,2.401 z"
           fill="#030303" /><path
           id="path4885"
           d="m 69.648,143.006 -0.0552,3.428 -3.2696,-0.675 1.2781,-3.839 z"
           fill="#1e1e1e" /><path
           id="path4887"
           d="m 69.648,143.006 3.1105,-0.773 0.8563,3.974 -4.022,0.227 z"
           fill="#4b4b4b" /><path
           id="path4889"
           d="m 108.208,135.746 0.42,3.266 -2.263,0.959 -0.84,-3.904 z"
           fill="#151515" /><path
           id="path4891"
           d="m 67.608,141.916 -19.542,-9.258 3.1313,-2.021 19.603,9.191 z"
           fill="#000000" /><path
           id="path4893"
           d="m 66.328,145.756 -19.5,-9.357 1.2366,-3.741 19.542,9.258 z"
           fill="#000000" /><path
           id="path4895"
           d="m 46.648,132.096 2.7463,-0.875 1.803,-0.587 -3.1313,2.021 z"
           fill="#000000" /><path
           id="path4897"
           d="m 46.648,132.096 1.418,0.559 -1.2366,3.741 -0.5147,-1.113 z"
           fill="#000000" /><path
           id="path4899"
           d="m 108.628,139.006 0.091,36.178 -2.237,1.047 -0.117,-36.267 z"
           fill="#000000" /><path
           id="path4901"
           d="m 105.678,179.276 -32.316,6.851 0.7512,-3.081 32.3718,-6.812 z"
           fill="#060606" /><path
           id="path4903"
           d="m 46.828,136.396 0.7757,35.935 -0.5115,-1.216 -0.7789,-35.832 z"
           fill="#000000" /><path
           id="path4905"
           d="m 47.598,172.336 19.299,10.224 1.3703,3.223 -19.302,-10.291 z"
           fill="#000000" /><path
           id="path4907"
           d="m 47.598,172.336 1.3681,3.156 -1.4136,-1.212 -0.466,-3.16 z"
           fill="#000000" /><path
           id="path4909"
           d="m 86.458,125.726 20.161,8.877 -3.096,-0.883 -20.1217,-8.873 z"
           fill="#000000"
           style="display:inline" /><path
           id="path4911"
           d="m 108.208,135.746 -2.683,0.321 -2.001,-2.346 3.096,0.884 z"
           fill="#000000"
           style="display:inline" /><path
           id="path4913"
           d="m 108.318,178.326 -2.646,0.952 0.807,-3.041 2.238,-1.048 z"
           fill="#000000"
           style="display:inline" /><path
           id="path4915"
           d="m 74.108,183.046 -0.4921,-36.844 32.7481,-6.235 0.116,36.267 z"
           style="display:inline;fill:#ae1717;fill-opacity:1;stroke:none;stroke-opacity:1" /><path
           id="path4917"
           d="m 47.598,172.336 -0.7757,-35.935 19.5,9.357 0.5745,36.802 z"
           style="display:inline;fill:#d6de00;fill-opacity:1" /><path
           id="path4919"
           d="m 51.188,130.637 32.209,-5.79 20.122,8.872 -32.728,6.109 z"
           style="display:inline;fill:#000000;fill-opacity:1" /></g><g
         id="g4129"
         style="display:inline"
         inkscape:label="021"><path
           id="path4079"
           d="m 22.944,117.946 -2.012,-0.6 -1.3703,-3.223 3.2334,0.737 z"
           fill="#000000" /><path
           id="path4081"
           d="m 22.944,117.946 -0.1489,-3.086 3.9758,-0.248 -0.7512,3.082 z"
           fill="#2a2a2a" /><path
           id="path4083"
           d="M 58.194,67.636 25.43,73.8007 23.4649,71.3995 56.1929,65.2904 Z"
           fill="#000000" /><path
           id="path4085"
           d="M 59.034,71.536 26.286,77.7712 25.4297,73.797 58.1937,67.6323 Z"
           fill="#373737" /><path
           id="path4087"
           d="m 22.264,77.996 0.5383,36.865 -3.2334,-0.737 -0.5745,-36.802 z"
           fill="#232323" /><path
           id="path4089"
           d="m 26.284,77.776 0.4921,36.844 -3.9758,0.248 -0.5383,-36.865 z"
           fill="#474747" /><path
           id="path4091"
           d="m 22.314,74.576 -2.0467,-1.0861 3.1921,-2.0882 1.9651,2.4012 z"
           fill="#030303" /><path
           id="path4093"
           d="m 22.314,74.576 -0.0552,3.4281 -3.2696,-0.6747 1.2781,-3.8395 z"
           fill="#1e1e1e" /><path
           id="path4095"
           d="m 22.314,74.576 3.1105,-0.7731 0.8563,3.9742 -4.022,0.227 z"
           fill="#4b4b4b" /><path
           id="path4097"
           d="m 60.874,67.316 0.42,3.2665 -2.2626,0.9582 -0.8406,-3.9037 z"
           fill="#151515" /><path
           id="path4099"
           d="M 20.274,73.486 0.732,64.2276 3.8633,62.2065 23.4663,71.3978 Z"
           fill="#000000" /><path
           id="path4101"
           d="m 18.994,77.326 -19.5,-9.3573 1.2366,-3.7406 19.542,9.2584 z"
           fill="#000000" /><path
           id="path4103"
           d="M -0.686,63.666 2.0603,62.7915 3.8633,62.2039 0.732,64.225 Z"
           fill="#000000" /><path
           id="path4105"
           d="m -0.686,63.666 1.418,0.559 -1.2366,3.7406 -0.5147,-1.1128 z"
           fill="#000000" /><path
           id="path4107"
           d="m 61.294,70.576 0.0908,36.178 -2.2371,1.047 -0.1163,-36.2669 z"
           fill="#000000" /><path
           id="path4109"
           d="m 58.344,110.846 -32.316,6.851 0.7512,-3.081 32.372,-6.812 z"
           fill="#060606" /><path
           id="path4111"
           d="m -0.506,67.966 0.7757,35.935 -0.5115,-1.216 -0.7789,-35.8324 z"
           fill="#000000" /><path
           id="path4113"
           d="m 0.264,103.906 19.299,10.224 1.3703,3.223 -19.302,-10.291 z"
           fill="#000000" /><path
           id="path4115"
           d="m 0.264,103.906 1.3681,3.156 -1.4136,-1.212 -0.466,-3.16 z"
           fill="#000000" /><path
           id="path4117"
           d="m 39.124,57.296 20.161,8.8771 -3.0957,-0.8832 -20.122,-8.8725 z"
           fill="#000000"
           style="display:inline" /><path
           id="path4119"
           d="m 60.874,67.316 -2.6832,0.321 -2.0004,-2.3456 3.0957,0.8832 z"
           fill="#000000"
           style="display:inline" /><path
           id="path4121"
           d="m 60.984,109.896 -2.6457,0.952 0.8071,-3.041 2.2371,-1.048 z"
           fill="#000000"
           style="display:inline" /><path
           id="path4123"
           d="m 26.774,114.616 -0.4921,-36.844 32.748,-6.2352 0.1163,36.2672 z"
           style="display:inline;fill:#2e2e2e;fill-opacity:1;stroke:none;stroke-opacity:1" /><path
           id="path4125"
           d="m 0.264,103.906 -0.7757,-35.935 19.5,9.3573 0.5745,36.8017 z"
           style="display:inline;fill:#175cae;fill-opacity:1" /><path
           id="path4127"
           d="m 3.854,62.207 32.209,-5.7903 20.122,8.8725 -32.728,6.1091 z"
           style="display:inline;fill:#050500;fill-opacity:1" /></g><g
         id="g4287"
         style="display:inline"
         inkscape:label="011"><path
           id="path4237"
           d="m 46.299,129.159 -2.012,-0.6 -1.3703,-3.223 3.2334,0.737 z"
           fill="#000000" /><path
           id="path4239"
           d="m 46.299,129.159 -0.1489,-3.086 3.9758,-0.248 -0.7512,3.082 z"
           fill="#2a2a2a" /><path
           id="path4241"
           d="m 81.549,78.849 -32.764,6.1647 -1.9651,-2.4012 32.728,-6.1091 z"
           fill="#000000" /><path
           id="path4243"
           d="M 82.389,82.749 49.641,88.9842 48.7847,85.01 81.5487,78.8453 Z"
           fill="#373737" /><path
           id="path4245"
           d="m 45.619,89.209 0.5383,36.865 -3.2334,-0.737 -0.5745,-36.802 z"
           fill="#232323" /><path
           id="path4247"
           d="m 49.639,88.989 0.4921,36.844 -3.9758,0.248 -0.5383,-36.865 z"
           fill="#474747" /><path
           id="path4249"
           d="m 45.669,85.789 -2.0467,-1.0861 3.1921,-2.0882 1.9651,2.4012 z"
           fill="#030303" /><path
           id="path4251"
           d="m 45.669,85.789 -0.0552,3.4281 -3.2696,-0.6747 1.2781,-3.8395 z"
           fill="#1e1e1e" /><path
           id="path4253"
           d="m 45.669,85.789 3.1105,-0.7731 0.8563,3.9742 -4.022,0.227 z"
           fill="#4b4b4b" /><path
           id="path4255"
           d="m 84.229,78.529 0.42,3.2665 -2.2626,0.9582 -0.8406,-3.9037 z"
           fill="#151515" /><path
           id="path4257"
           d="m 43.629,84.699 -19.542,-9.2584 3.1313,-2.0211 19.603,9.1913 z"
           fill="#000000" /><path
           id="path4259"
           d="m 42.349,88.539 -19.5,-9.3573 1.2366,-3.7406 19.542,9.2584 z"
           fill="#000000" /><path
           id="path4261"
           d="m 22.669,74.879 2.7463,-0.8745 1.803,-0.5876 -3.1313,2.0211 z"
           fill="#000000" /><path
           id="path4263"
           d="m 22.669,74.879 1.418,0.559 -1.2366,3.7406 -0.5147,-1.1128 z"
           fill="#000000" /><path
           id="path4265"
           d="m 84.649,81.789 0.0908,36.178 -2.2371,1.047 -0.1163,-36.2669 z"
           fill="#000000" /><path
           id="path4267"
           d="m 81.699,122.059 -32.316,6.852 0.7512,-3.082 32.372,-6.812 z"
           fill="#060606" /><path
           id="path4269"
           d="m 22.849,79.179 0.7757,35.935 -0.5115,-1.216 -0.7789,-35.8324 z"
           fill="#000000" /><path
           id="path4271"
           d="m 23.619,115.119 19.299,10.224 1.3703,3.223 -19.302,-10.291 z"
           fill="#000000" /><path
           id="path4273"
           d="m 23.619,115.119 1.3681,3.156 -1.4136,-1.212 -0.466,-3.16 z"
           fill="#000000" /><path
           id="path4275"
           d="M 62.479,68.509 82.64,77.3861 79.5443,76.5029 59.4223,67.6304 Z"
           fill="#000000"
           style="display:inline" /><path
           id="path4277"
           d="m 84.229,78.529 -2.6832,0.321 -2.0004,-2.3456 3.0957,0.8832 z"
           fill="#000000"
           style="display:inline" /><path
           id="path4279"
           d="m 84.339,121.109 -2.6457,0.952 0.8071,-3.041 2.2371,-1.048 z"
           fill="#000000"
           style="display:inline" /><path
           id="path4281"
           d="m 50.129,125.829 -0.4921,-36.844 32.748,-6.2352 0.1163,36.2672 z"
           style="display:inline;fill:#2e2e2e;fill-opacity:1;stroke:none;stroke-opacity:1" /><path
           id="path4283"
           d="m 23.619,115.119 -0.7757,-35.935 19.5,9.3573 0.5745,36.8017 z"
           style="display:inline;fill:#175cae;fill-opacity:1" /><path
           id="path4285"
           d="M 27.209,73.42 59.418,67.6297 79.54,76.5022 46.812,82.6113 Z"
           style="display:inline;fill:#000000;fill-opacity:1" /></g><g
         id="g4341"
         style="display:inline"
         inkscape:label="201"><path
           id="path4291"
           d="m 152.602,125.124 -2.012,-0.6 -1.37,-3.223 3.233,0.737 z"
           fill="#000000" /><path
           id="path4293"
           d="m 152.602,125.124 -0.149,-3.086 3.976,-0.248 -0.751,3.082 z"
           fill="#2a2a2a" /><path
           id="path4295"
           d="m 187.852,74.814 -32.764,6.1647 -1.965,-2.4012 32.728,-6.1091 z"
           fill="#000000" /><path
           id="path4297"
           d="m 188.692,78.714 -32.748,6.2352 -0.856,-3.9742 32.764,-6.1647 z"
           fill="#373737" /><path
           id="path4299"
           d="m 151.922,85.174 0.538,36.865 -3.233,-0.737 -0.575,-36.802 z"
           fill="#232323" /><path
           id="path4301"
           d="m 155.942,84.954 0.492,36.844 -3.976,0.248 -0.538,-36.865 z"
           fill="#474747" /><path
           id="path4303"
           d="m 151.972,81.754 -2.047,-1.0861 3.192,-2.0882 1.965,2.4012 z"
           fill="#030303" /><path
           id="path4305"
           d="m 151.972,81.754 -0.055,3.4281 -3.27,-0.6747 1.278,-3.8395 z"
           fill="#1e1e1e" /><path
           id="path4307"
           d="m 151.972,81.754 3.11,-0.7731 0.857,3.9742 -4.022,0.227 z"
           fill="#4b4b4b" /><path
           id="path4309"
           d="m 190.532,74.494 0.42,3.2665 -2.263,0.9582 -0.84,-3.9037 z"
           fill="#151515" /><path
           id="path4311"
           d="m 149.932,80.664 -19.542,-9.2584 3.131,-2.0211 19.603,9.1913 z"
           fill="#000000" /><path
           id="path4313"
           d="m 148.652,84.504 -19.5,-9.3573 1.237,-3.7406 19.542,9.2584 z"
           fill="#000000" /><path
           id="path4315"
           d="m 128.972,70.844 2.746,-0.8745 1.803,-0.5876 -3.131,2.0211 z"
           fill="#000000" /><path
           id="path4317"
           d="m 128.972,70.844 1.418,0.559 -1.237,3.7406 -0.514,-1.1128 z"
           fill="#000000" /><path
           id="path4319"
           d="m 190.952,77.754 0.091,36.178 -2.237,1.047 -0.117,-36.2669 z"
           fill="#000000" /><path
           id="path4321"
           d="m 188.002,118.024 -32.316,6.852 0.751,-3.082 32.372,-6.812 z"
           fill="#060606" /><path
           id="path4323"
           d="m 129.152,75.144 0.776,35.935 -0.512,-1.216 -0.779,-35.8324 z"
           fill="#000000" /><path
           id="path4325"
           d="m 129.922,111.084 19.299,10.224 1.37,3.223 -19.302,-10.291 z"
           fill="#000000" /><path
           id="path4327"
           d="m 129.922,111.084 1.368,3.156 -1.413,-1.212 -0.466,-3.16 z"
           fill="#000000" /><path
           id="path4329"
           d="m 168.782,64.474 20.161,8.8771 -3.096,-0.8832 -20.122,-8.8725 z"
           fill="#000000"
           style="display:inline" /><path
           id="path4331"
           d="m 190.532,74.494 -2.683,0.321 -2.001,-2.3456 3.096,0.8832 z"
           fill="#000000"
           style="display:inline" /><path
           id="path4333"
           d="m 190.642,117.074 -2.646,0.952 0.807,-3.041 2.238,-1.048 z"
           fill="#000000"
           style="display:inline" /><path
           id="path4335"
           d="m 156.432,121.794 -0.492,-36.844 32.748,-6.2352 0.116,36.2672 z"
           style="display:inline;fill:#ae1717;fill-opacity:1;stroke:none;stroke-opacity:1" /><path
           id="path4337"
           d="m 129.922,111.084 -0.776,-35.935 19.5,9.3573 0.575,36.8017 z"
           style="display:inline;fill:#000000;fill-opacity:1" /><path
           id="path4339"
           d="m 133.512,69.385 32.209,-5.7903 20.122,8.8725 -32.728,6.1091 z"
           style="display:inline;fill:#000000;fill-opacity:1" /></g><g
         id="g4393"
         style="display:inline"
         inkscape:label="101"><path
           id="path4343"
           d="m 111.128,132.748 -2.012,-0.6 -1.37,-3.223 3.233,0.737 z"
           fill="#000000" /><path
           id="path4345"
           d="m 111.128,132.748 -0.149,-3.086 3.976,-0.248 -0.751,3.082 z"
           fill="#2a2a2a" /><path
           id="path4347"
           d="m 146.378,82.438 -32.764,6.1647 -1.965,-2.4012 32.728,-6.1091 z"
           fill="#000000" /><path
           id="path4349"
           d="m 147.218,86.338 -32.748,6.2352 -0.856,-3.9742 32.764,-6.1647 z"
           fill="#373737" /><path
           id="path4351"
           d="m 110.448,92.798 0.538,36.865 -3.233,-0.737 -0.575,-36.802 z"
           fill="#232323" /><path
           id="path4353"
           d="m 114.468,92.578 0.492,36.844 -3.976,0.248 -0.538,-36.865 z"
           fill="#474747" /><path
           id="path4355"
           d="m 110.498,89.378 -2.047,-1.0861 3.192,-2.0882 1.965,2.4012 z"
           fill="#030303" /><path
           id="path4357"
           d="m 110.498,89.378 -0.055,3.4281 -3.27,-0.6747 1.278,-3.8395 z"
           fill="#1e1e1e" /><path
           id="path4359"
           d="m 110.498,89.378 3.11,-0.7731 0.857,3.9742 -4.022,0.227 z"
           fill="#4b4b4b" /><path
           id="path4361"
           d="m 149.058,82.118 0.42,3.2665 -2.263,0.9582 -0.84,-3.9037 z"
           fill="#151515" /><path
           id="path4363"
           d="M 108.458,88.288 88.916,79.0296 92.0473,77.0085 111.65,86.1998 Z"
           fill="#000000" /><path
           id="path4365"
           d="m 107.178,92.128 -19.5,-9.3573 1.2366,-3.7406 19.5424,9.2584 z"
           fill="#000000" /><path
           id="path4367"
           d="m 87.498,78.468 2.7463,-0.8745 1.803,-0.5876 -3.1313,2.0211 z"
           fill="#000000" /><path
           id="path4369"
           d="m 87.498,78.468 1.418,0.559 -1.2366,3.7406 -0.5147,-1.1128 z"
           fill="#000000" /><path
           id="path4371"
           d="m 149.478,85.378 0.091,36.178 -2.237,1.047 -0.117,-36.2669 z"
           fill="#000000" /><path
           id="path4373"
           d="m 146.528,125.648 -32.316,6.852 0.751,-3.082 32.372,-6.812 z"
           fill="#060606" /><path
           id="path4375"
           d="m 87.678,82.768 0.7757,35.935 -0.5115,-1.216 -0.7789,-35.8324 z"
           fill="#000000" /><path
           id="path4377"
           d="m 88.448,118.708 19.299,10.224 1.37,3.223 -19.3017,-10.291 z"
           fill="#000000" /><path
           id="path4379"
           d="m 88.448,118.708 1.3681,3.156 -1.4136,-1.212 -0.466,-3.16 z"
           fill="#000000" /><path
           id="path4381"
           d="m 127.308,72.098 20.161,8.8771 -3.096,-0.8832 -20.122,-8.8725 z"
           fill="#000000"
           style="display:inline" /><path
           id="path4383"
           d="m 149.058,82.118 -2.683,0.321 -2.001,-2.3456 3.096,0.8832 z"
           fill="#000000"
           style="display:inline" /><path
           id="path4385"
           d="m 149.168,124.698 -2.646,0.952 0.807,-3.041 2.237,-1.048 z"
           fill="#000000"
           style="display:inline" /><path
           id="path4387"
           d="m 114.958,129.418 -0.492,-36.844 32.748,-6.2352 0.116,36.2672 z"
           style="display:inline;fill:#ae1717;fill-opacity:1;stroke:none;stroke-opacity:1" /><path
           id="path4389"
           d="m 88.448,118.708 -0.7757,-35.935 19.4997,9.3573 0.575,36.8017 z"
           style="display:inline;fill:#000000;fill-opacity:1" /><path
           id="path4391"
           d="m 92.038,77.009 32.209,-5.7903 20.122,8.8725 -32.728,6.1091 z"
           style="display:inline;fill:#000000;fill-opacity:1" /></g><g
         id="g4445"
         style="display:inline"
         inkscape:label="001"><path
           id="path4395"
           d="m 69.654,140.372 -2.012,-0.6 -1.3703,-3.223 3.2334,0.737 z"
           fill="#000000" /><path
           id="path4397"
           d="m 69.654,140.372 -0.1489,-3.086 3.9758,-0.248 -0.7512,3.082 z"
           fill="#2a2a2a" /><path
           id="path4399"
           d="M 104.904,90.062 72.14,96.2267 70.1749,93.8255 102.903,87.7164 Z"
           fill="#000000" /><path
           id="path4401"
           d="m 105.744,93.962 -32.748,6.235 -0.8563,-3.974 32.7643,-6.1647 z"
           fill="#373737" /><path
           id="path4403"
           d="m 68.974,100.422 0.5383,36.865 -3.2334,-0.737 -0.5745,-36.802 z"
           fill="#232323" /><path
           id="path4405"
           d="m 72.994,100.202 0.4921,36.844 -3.9758,0.248 -0.5383,-36.865 z"
           fill="#474747" /><path
           id="path4407"
           d="m 69.024,97.002 -2.0467,-1.0861 3.1921,-2.0882 1.9651,2.4012 z"
           fill="#030303" /><path
           id="path4409"
           d="m 69.024,97.002 -0.0552,3.428 -3.2696,-0.6746 1.2781,-3.8395 z"
           fill="#1e1e1e" /><path
           id="path4411"
           d="m 69.024,97.002 3.1105,-0.7731 0.8563,3.9741 -4.022,0.227 z"
           fill="#4b4b4b" /><path
           id="path4413"
           d="m 107.584,89.742 0.42,3.2665 -2.263,0.9582 -0.84,-3.9037 z"
           fill="#151515" /><path
           id="path4415"
           d="m 66.984,95.912 -19.542,-9.2584 3.1313,-2.0211 19.603,9.1913 z"
           fill="#000000" /><path
           id="path4417"
           d="m 65.704,99.752 -19.5,-9.3573 1.2366,-3.7406 19.542,9.2584 z"
           fill="#000000" /><path
           id="path4419"
           d="m 46.024,86.092 2.7463,-0.8745 1.803,-0.5876 -3.1313,2.0211 z"
           fill="#000000" /><path
           id="path4421"
           d="m 46.024,86.092 1.418,0.559 -1.2366,3.7406 -0.5147,-1.1128 z"
           fill="#000000" /><path
           id="path4423"
           d="m 108.004,93.002 0.091,36.178 -2.237,1.047 -0.117,-36.2669 z"
           fill="#000000" /><path
           id="path4425"
           d="m 105.054,133.272 -32.316,6.852 0.7512,-3.082 32.3718,-6.812 z"
           fill="#060606" /><path
           id="path4427"
           d="m 46.204,90.392 0.7757,35.935 -0.5115,-1.216 -0.7789,-35.8324 z"
           fill="#000000" /><path
           id="path4429"
           d="m 46.974,126.332 19.299,10.224 1.3703,3.223 -19.302,-10.291 z"
           fill="#000000" /><path
           id="path4431"
           d="m 46.974,126.332 1.3681,3.156 -1.4136,-1.212 -0.466,-3.16 z"
           fill="#000000" /><path
           id="path4433"
           d="m 85.834,79.722 20.161,8.8771 -3.096,-0.8832 -20.1217,-8.8725 z"
           fill="#000000"
           style="display:inline" /><path
           id="path4435"
           d="m 107.584,89.742 -2.683,0.321 -2.001,-2.3456 3.096,0.8832 z"
           fill="#000000"
           style="display:inline" /><path
           id="path4437"
           d="m 107.694,132.322 -2.646,0.952 0.807,-3.041 2.238,-1.048 z"
           fill="#000000"
           style="display:inline" /><path
           id="path4439"
           d="M 73.484,137.042 72.9919,100.198 105.74,93.9628 105.856,130.23 Z"
           style="display:inline;fill:#d6de00;fill-opacity:1;stroke:none;stroke-opacity:1" /><path
           id="path4441"
           d="m 46.974,126.332 -0.7757,-35.935 19.5,9.3573 0.5745,36.8017 z"
           style="display:inline;fill:#ae5517;fill-opacity:1" /><path
           id="path4443"
           d="m 50.564,84.633 32.209,-5.7903 20.122,8.8725 -32.728,6.1091 z"
           style="display:inline;fill:#000000;fill-opacity:1" /></g><g
         id="g3470"
         style="display:inline"
         inkscape:label="220"><path
           id="path3420"
           d="m 105.268,56.694 -2.012,-0.6002 -1.37,-3.2225 3.233,0.737 z"
           fill="#000000" /><path
           id="path3422"
           d="m 105.268,56.694 -0.149,-3.0857 3.976,-0.248 -0.751,3.0813 z"
           fill="#2a2a2a" /><path
           id="path3424"
           d="m 140.518,6.384 -32.764,6.1647 -1.965,-2.4012 32.728,-6.1091 z"
           fill="#000000" /><path
           id="path3426"
           d="M 141.358,10.284 108.61,16.5192 107.754,12.545 140.518,6.3803 Z"
           fill="#373737" /><path
           id="path3428"
           d="m 104.588,16.744 0.538,36.865 -3.233,-0.737 -0.575,-36.802 z"
           fill="#232323" /><path
           id="path3430"
           d="m 108.608,16.524 0.492,36.844 -3.976,0.248 -0.538,-36.865 z"
           fill="#474747" /><path
           id="path3432"
           d="m 104.638,13.324 -2.047,-1.0861 3.192,-2.0882 1.966,2.4012 z"
           fill="#030303" /><path
           id="path3434"
           d="m 104.638,13.324 -0.055,3.4281 -3.27,-0.6747 1.278,-3.8395 z"
           fill="#1e1e1e" /><path
           id="path3436"
           d="m 104.638,13.324 3.111,-0.7731 0.856,3.9742 -4.022,0.227 z"
           fill="#4b4b4b" /><path
           id="path3438"
           d="m 143.198,6.064 0.42,3.2665 -2.263,0.9582 -0.84,-3.9037 z"
           fill="#151515" /><path
           id="path3440"
           d="M 102.598,12.234 83.056,2.9756 86.1873,0.9545 105.79,10.1458 Z"
           fill="#000000" /><path
           id="path3442"
           d="m 101.318,16.074 -19.5,-9.3573 1.2366,-3.7406 19.5424,9.2584 z"
           fill="#000000" /><path
           id="path3444"
           d="M 81.638,2.414 84.3843,1.5395 86.1873,0.9519 83.056,2.973 Z"
           fill="#000000" /><path
           id="path3446"
           d="M 81.638,2.414 83.056,2.973 81.8194,6.7136 81.3047,5.6008 Z"
           fill="#000000" /><path
           id="path3448"
           d="m 143.618,9.324 0.091,36.178 -2.237,1.0471 -0.117,-36.267 z"
           fill="#000000" /><path
           id="path3450"
           d="m 140.668,49.594 -32.316,6.8515 0.751,-3.0813 32.372,-6.8121 z"
           fill="#060606" /><path
           id="path3452"
           d="M 81.818,6.714 82.5937,42.649 82.0822,41.4326 81.3033,5.6006 Z"
           fill="#000000" /><path
           id="path3454"
           d="m 82.588,42.654 19.299,10.224 1.37,3.2225 -19.3017,-10.291 z"
           fill="#000000" /><path
           id="path3456"
           d="m 82.588,42.654 1.3681,3.1556 -1.4136,-1.2116 -0.466,-3.1604 z"
           fill="#000000" /><path
           id="path3458"
           d="m 121.448,-3.956 20.161,8.8771 -3.096,-0.8832 -20.122,-8.8725 z"
           fill="#000000"
           style="display:inline" /><path
           id="path3460"
           d="m 143.198,6.064 -2.683,0.321 -2.001,-2.3456 3.096,0.8832 z"
           fill="#000000"
           style="display:inline" /><path
           id="path3462"
           d="m 143.308,48.644 -2.646,0.9524 0.807,-3.0419 2.238,-1.0471 z"
           fill="#000000"
           style="display:inline" /><path
           id="path3464"
           d="m 109.098,53.364 -0.492,-36.844 32.748,-6.2352 0.116,36.267 z"
           style="display:inline;fill:#2e2e2e;fill-opacity:1;stroke:none;stroke-opacity:1" /><path
           id="path3466"
           d="m 82.588,42.654 -0.7757,-35.935 19.4997,9.3573 0.575,36.802 z"
           style="display:inline;fill:#000000;fill-opacity:1" /><path
           id="path3468"
           d="m 86.178,0.955 32.209,-5.7903 20.122,8.8725 -32.728,6.1091 z"
           style="display:inline;fill:#175cae;fill-opacity:1" /></g><g
         id="g3522"
         style="display:inline"
         inkscape:label="120"><path
           id="path3472"
           d="m 63.794,64.318 -2.012,-0.6002 -1.3703,-3.2225 3.2334,0.737 z"
           fill="#000000" /><path
           id="path3474"
           d="m 63.794,64.318 -0.1489,-3.0857 3.9758,-0.248 -0.7512,3.0813 z"
           fill="#2a2a2a" /><path
           id="path3476"
           d="M 99.044,14.008 66.28,20.1727 64.3149,17.7715 97.0429,11.6624 Z"
           fill="#000000" /><path
           id="path3478"
           d="M 99.884,17.908 67.136,24.1432 66.2797,20.169 99.0437,14.0043 Z"
           fill="#373737" /><path
           id="path3480"
           d="M 63.114,24.368 63.6523,61.233 60.4189,60.496 59.8444,23.694 Z"
           fill="#232323" /><path
           id="path3482"
           d="M 67.134,24.148 67.6261,60.992 63.6503,61.24 63.112,24.375 Z"
           fill="#474747" /><path
           id="path3484"
           d="m 63.164,20.948 -2.0467,-1.0861 3.1921,-2.0882 1.9651,2.4012 z"
           fill="#030303" /><path
           id="path3486"
           d="m 63.164,20.948 -0.0552,3.4281 -3.2696,-0.6747 1.2781,-3.8395 z"
           fill="#1e1e1e" /><path
           id="path3488"
           d="m 63.164,20.948 3.1105,-0.7731 0.8563,3.9742 -4.022,0.227 z"
           fill="#4b4b4b" /><path
           id="path3490"
           d="m 101.724,13.688 0.42,3.2665 -2.2626,0.9582 -0.8406,-3.9037 z"
           fill="#151515" /><path
           id="path3492"
           d="m 61.124,19.858 -19.542,-9.2584 3.1313,-2.0211 19.603,9.1913 z"
           fill="#000000" /><path
           id="path3494"
           d="m 59.844,23.698 -19.5,-9.3573 1.2366,-3.7406 19.542,9.2584 z"
           fill="#000000" /><path
           id="path3496"
           d="M 40.164,10.038 42.9103,9.1635 44.7133,8.5759 41.582,10.597 Z"
           fill="#000000" /><path
           id="path3498"
           d="m 40.164,10.038 1.418,0.559 -1.2366,3.7406 -0.5147,-1.1128 z"
           fill="#000000" /><path
           id="path3500"
           d="m 102.144,16.948 0.091,36.178 -2.2373,1.0471 -0.1163,-36.267 z"
           fill="#000000" /><path
           id="path3502"
           d="m 99.194,57.218 -32.316,6.8515 0.7512,-3.0813 32.3718,-6.8121 z"
           fill="#060606" /><path
           id="path3504"
           d="m 40.344,14.338 0.7757,35.935 -0.5115,-1.2164 -0.7789,-35.832 z"
           fill="#000000" /><path
           id="path3506"
           d="m 41.114,50.278 19.299,10.224 1.3703,3.2225 -19.302,-10.291 z"
           fill="#000000" /><path
           id="path3508"
           d="m 41.114,50.278 1.3681,3.1556 -1.4136,-1.2116 -0.466,-3.1604 z"
           fill="#000000" /><path
           id="path3510"
           d="m 79.974,3.668 20.161,8.8771 -3.0957,-0.8832 -20.122,-8.8725 z"
           fill="#000000"
           style="display:inline" /><path
           id="path3512"
           d="m 101.724,13.688 -2.6832,0.321 -2.0004,-2.3456 3.0956,0.8832 z"
           fill="#000000"
           style="display:inline" /><path
           id="path3514"
           d="m 101.834,56.268 -2.6457,0.9524 0.8071,-3.0419 2.2376,-1.0471 z"
           fill="#000000"
           style="display:inline" /><path
           id="path3516"
           d="m 67.624,60.988 -0.4921,-36.844 32.748,-6.2352 0.1163,36.267 z"
           style="display:inline;fill:#2e2e2e;fill-opacity:1;stroke:none;stroke-opacity:1" /><path
           id="path3518"
           d="m 41.114,50.278 -0.7757,-35.935 19.5,9.3573 0.5745,36.802 z"
           style="display:inline;fill:#000000;fill-opacity:1" /><path
           id="path3520"
           d="M 44.704,8.579 76.913,2.7887 97.035,11.6612 64.307,17.7703 Z"
           style="display:inline;fill:#ae5517;fill-opacity:1" /></g><g
         id="g3574"
         style="display:inline"
         inkscape:label="020"><path
           id="path3524"
           d="m 22.32,71.942 -2.012,-0.6002 -1.3703,-3.2225 3.2334,0.737 z"
           fill="#000000" /><path
           id="path3526"
           d="m 22.32,71.942 -0.1489,-3.0857 3.9758,-0.248 -0.7512,3.0813 z"
           fill="#2a2a2a" /><path
           id="path3528"
           d="m 57.57,21.632 -32.764,6.1647 -1.9651,-2.4012 32.728,-6.1091 z"
           fill="#000000" /><path
           id="path3530"
           d="M 58.41,25.532 25.662,31.7672 24.8057,27.793 57.5697,21.6283 Z"
           fill="#373737" /><path
           id="path3532"
           d="M 21.64,31.992 22.1783,68.857 18.9449,68.12 18.3704,31.318 Z"
           fill="#232323" /><path
           id="path3534"
           d="M 25.66,31.772 26.1521,68.616 22.1763,68.864 21.638,31.999 Z"
           fill="#474747" /><path
           id="path3536"
           d="m 21.69,28.572 -2.0467,-1.0861 3.1921,-2.0882 1.9651,2.4012 z"
           fill="#030303" /><path
           id="path3538"
           d="m 21.69,28.572 -0.0552,3.4281 -3.2696,-0.6747 1.2781,-3.8395 z"
           fill="#1e1e1e" /><path
           id="path3540"
           d="m 21.69,28.572 3.1105,-0.7731 0.8563,3.9742 -4.022,0.227 z"
           fill="#4b4b4b" /><path
           id="path3542"
           d="m 60.25,21.312 0.42,3.2665 -2.2626,0.9582 -0.8406,-3.9037 z"
           fill="#151515" /><path
           id="path3544"
           d="M 19.65,27.482 0.108,18.2236 3.2393,16.2025 22.8423,25.3938 Z"
           fill="#000000" /><path
           id="path3546"
           d="m 18.37,31.322 -19.5,-9.3573 1.2366,-3.7406 19.542,9.2584 z"
           fill="#000000" /><path
           id="path3548"
           d="M -1.31,17.662 1.4363,16.7875 3.2393,16.1999 0.108,18.221 Z"
           fill="#000000" /><path
           id="path3550"
           d="m -1.31,17.662 1.418,0.559 -1.2366,3.7406 -0.5147,-1.1128 z"
           fill="#000000" /><path
           id="path3552"
           d="m 60.67,24.572 0.0908,36.178 -2.2371,1.0471 -0.1163,-36.267 z"
           fill="#000000" /><path
           id="path3554"
           d="m 57.72,64.842 -32.316,6.8515 0.7512,-3.0813 32.372,-6.8121 z"
           fill="#060606" /><path
           id="path3556"
           d="m -1.13,21.962 0.7757,35.935 -0.5115,-1.2164 -0.7789,-35.832 z"
           fill="#000000" /><path
           id="path3558"
           d="m -0.36,57.902 19.299,10.224 1.3703,3.2225 -19.302,-10.291 z"
           fill="#000000" /><path
           id="path3560"
           d="m -0.36,57.902 1.3681,3.1556 -1.4136,-1.2116 -0.466,-3.1604 z"
           fill="#000000" /><path
           id="path3562"
           d="m 38.5,11.292 20.161,8.8771 -3.0957,-0.8832 -20.122,-8.8725 z"
           fill="#000000"
           style="display:inline" /><path
           id="path3564"
           d="m 60.25,21.312 -2.6832,0.321 -2.0004,-2.3456 3.0957,0.8832 z"
           fill="#000000"
           style="display:inline" /><path
           id="path3566"
           d="m 60.36,63.892 -2.6457,0.9524 0.8071,-3.0419 2.2371,-1.0471 z"
           fill="#000000"
           style="display:inline" /><path
           id="path3568"
           d="m 26.15,68.612 -0.4921,-36.844 32.748,-6.2352 0.1163,36.267 z"
           style="display:inline;fill:#2e2e2e;fill-opacity:1;stroke:none;stroke-opacity:1" /><path
           id="path3570"
           d="m -0.36,57.902 -0.7757,-35.935 19.5,9.3573 0.5745,36.802 z"
           style="display:inline;fill:#ae1717;fill-opacity:1" /><path
           id="path3572"
           d="m 3.23,16.203 32.209,-5.7903 20.122,8.8725 -32.728,6.1091 z"
           style="display:inline;fill:#d2d2d2;fill-opacity:1" /></g><g
         id="g3312"
         style="display:inline"
         inkscape:label="210"><path
           id="path3262"
           d="m 128.623,67.907 -2.012,-0.6002 -1.37,-3.2225 3.233,0.737 z"
           fill="#000000" /><path
           id="path3264"
           d="m 128.623,67.907 -0.149,-3.0857 3.976,-0.248 -0.751,3.0813 z"
           fill="#2a2a2a" /><path
           id="path3266"
           d="m 163.873,17.597 -32.764,6.1647 -1.965,-2.4012 32.728,-6.1091 z"
           fill="#000000" /><path
           id="path3268"
           d="m 164.713,21.497 -32.748,6.2352 -0.856,-3.9742 32.764,-6.1647 z"
           fill="#373737" /><path
           id="path3270"
           d="m 127.943,27.957 0.538,36.865 -3.233,-0.737 -0.575,-36.802 z"
           fill="#232323" /><path
           id="path3272"
           d="m 131.963,27.737 0.492,36.844 -3.976,0.248 -0.538,-36.865 z"
           fill="#474747" /><path
           id="path3274"
           d="m 127.993,24.537 -2.047,-1.0861 3.192,-2.0882 1.965,2.4012 z"
           fill="#030303" /><path
           id="path3276"
           d="m 127.993,24.537 -0.055,3.4281 -3.27,-0.6747 1.278,-3.8395 z"
           fill="#1e1e1e" /><path
           id="path3278"
           d="m 127.993,24.537 3.11,-0.7731 0.857,3.9742 -4.022,0.227 z"
           fill="#4b4b4b" /><path
           id="path3280"
           d="m 166.553,17.277 0.42,3.2665 -2.263,0.9582 -0.84,-3.9037 z"
           fill="#151515" /><path
           id="path3282"
           d="m 125.953,23.447 -19.542,-9.2584 3.131,-2.0211 19.603,9.1913 z"
           fill="#000000" /><path
           id="path3284"
           d="m 124.673,27.287 -19.5,-9.3573 1.237,-3.7406 19.542,9.2584 z"
           fill="#000000" /><path
           id="path3286"
           d="m 104.993,13.627 2.746,-0.8745 1.803,-0.5876 -3.131,2.0211 z"
           fill="#000000" /><path
           id="path3288"
           d="m 104.993,13.627 1.418,0.559 -1.237,3.7406 -0.514,-1.1128 z"
           fill="#000000" /><path
           id="path3290"
           d="m 166.973,20.537 0.091,36.178 -2.237,1.0471 -0.117,-36.267 z"
           fill="#000000" /><path
           id="path3292"
           d="m 164.023,60.807 -32.316,6.8515 0.751,-3.0813 32.372,-6.8121 z"
           fill="#060606" /><path
           id="path3294"
           d="m 105.173,17.927 0.776,35.935 -0.512,-1.2164 -0.779,-35.832 z"
           fill="#000000" /><path
           id="path3296"
           d="m 105.943,53.867 19.299,10.224 1.37,3.2225 -19.302,-10.291 z"
           fill="#000000" /><path
           id="path3298"
           d="m 105.943,53.867 1.368,3.1556 -1.413,-1.2116 -0.466,-3.1604 z"
           fill="#000000" /><path
           id="path3300"
           d="m 144.803,7.257 20.161,8.8771 -3.096,-0.8832 -20.122,-8.8725 z"
           fill="#000000"
           style="display:inline" /><path
           id="path3302"
           d="m 166.553,17.277 -2.683,0.321 -2.001,-2.3456 3.096,0.8832 z"
           fill="#000000"
           style="display:inline" /><path
           id="path3304"
           d="m 166.663,59.857 -2.646,0.9524 0.807,-3.0419 2.237,-1.0471 z"
           fill="#000000"
           style="display:inline" /><path
           id="path3306"
           d="m 132.453,64.577 -0.492,-36.844 32.748,-6.2352 0.116,36.267 z"
           style="display:inline;fill:#2e2e2e;fill-opacity:1;stroke:none;stroke-opacity:1" /><path
           id="path3308"
           d="m 105.943,53.867 -0.776,-35.935 19.5,9.3573 0.575,36.802 z"
           style="display:inline;fill:#000000;fill-opacity:1" /><path
           id="path3310"
           d="m 109.533,12.168 32.209,-5.7903 20.122,8.8725 -32.728,6.1091 z"
           style="display:inline;fill:#129f00;fill-opacity:1" /></g><g
         id="g3364"
         style="display:inline"
         inkscape:label="110"><path
           id="path3314"
           d="m 87.149,75.531 -2.012,-0.6002 -1.3703,-3.2225 3.2334,0.737 z"
           fill="#000000" /><path
           id="path3316"
           d="m 87.149,75.531 -0.1489,-3.0857 3.9758,-0.248 -0.7512,3.0813 z"
           fill="#2a2a2a" /><path
           id="path3318"
           d="M 122.399,25.221 89.635,31.3857 87.6699,28.9845 120.398,22.8754 Z"
           fill="#000000" /><path
           id="path3320"
           d="M 123.239,29.121 90.491,35.3562 89.6347,31.382 122.399,25.2173 Z"
           fill="#373737" /><path
           id="path3322"
           d="M 86.469,35.581 87.0073,72.446 83.7739,71.709 83.1994,34.907 Z"
           fill="#232323" /><path
           id="path3324"
           d="M 90.489,35.361 90.9811,72.205 87.0053,72.453 86.467,35.588 Z"
           fill="#474747" /><path
           id="path3326"
           d="m 86.519,32.161 -2.0467,-1.0861 3.1921,-2.0882 1.9651,2.4012 z"
           fill="#030303" /><path
           id="path3328"
           d="m 86.519,32.161 -0.0552,3.4281 -3.2696,-0.6747 1.2781,-3.8395 z"
           fill="#1e1e1e" /><path
           id="path3330"
           d="m 86.519,32.161 3.1105,-0.7731 0.8563,3.9742 -4.022,0.227 z"
           fill="#4b4b4b" /><path
           id="path3332"
           d="m 125.079,24.901 0.42,3.2665 -2.263,0.9582 -0.84,-3.9037 z"
           fill="#151515" /><path
           id="path3334"
           d="m 84.479,31.071 -19.542,-9.2584 3.1313,-2.0211 19.603,9.1913 z"
           fill="#000000" /><path
           id="path3336"
           d="m 83.199,34.911 -19.5,-9.3573 1.2366,-3.7406 19.542,9.2584 z"
           fill="#000000" /><path
           id="path3338"
           d="m 63.519,21.251 2.7463,-0.8745 1.803,-0.5876 -3.1313,2.0211 z"
           fill="#000000" /><path
           id="path3340"
           d="m 63.519,21.251 1.418,0.559 -1.2366,3.7406 -0.5147,-1.1128 z"
           fill="#000000" /><path
           id="path3342"
           d="m 125.499,28.161 0.091,36.178 -2.237,1.0471 -0.117,-36.267 z"
           fill="#000000" /><path
           id="path3344"
           d="m 122.549,68.431 -32.316,6.8515 0.7512,-3.0813 32.3718,-6.8121 z"
           fill="#060606" /><path
           id="path3346"
           d="m 63.699,25.551 0.7757,35.935 -0.5115,-1.2164 -0.7789,-35.832 z"
           fill="#000000" /><path
           id="path3348"
           d="m 64.469,61.491 19.299,10.224 1.3703,3.2225 -19.302,-10.291 z"
           fill="#000000" /><path
           id="path3350"
           d="m 64.469,61.491 1.3681,3.1556 -1.4136,-1.2116 -0.466,-3.1604 z"
           fill="#000000" /><path
           id="path3352"
           d="m 103.329,14.881 20.161,8.8771 -3.096,-0.8832 -20.122,-8.8725 z"
           fill="#000000"
           style="display:inline" /><path
           id="path3354"
           d="m 125.079,24.901 -2.683,0.321 -2.001,-2.3456 3.096,0.8832 z"
           fill="#000000"
           style="display:inline" /><path
           id="path3356"
           d="m 125.189,67.481 -2.646,0.9524 0.807,-3.0419 2.238,-1.0471 z"
           fill="#000000"
           style="display:inline" /><path
           id="path3358"
           d="m 90.979,72.201 -0.4921,-36.844 32.7481,-6.2352 0.116,36.267 z"
           style="display:inline;fill:#2e2e2e;fill-opacity:1;stroke:none;stroke-opacity:1" /><path
           id="path3360"
           d="m 64.469,61.491 -0.7757,-35.935 19.5,9.3573 0.5745,36.802 z"
           style="display:inline;fill:#000000;fill-opacity:1" /><path
           id="path3362"
           d="m 68.059,19.792 32.209,-5.7903 20.122,8.8725 -32.728,6.1091 z"
           style="display:inline;fill:#d6de00;fill-opacity:1" /></g><g
         id="g3416"
         style="display:inline"
         inkscape:label="010"><path
           id="path3366"
           d="m 45.675,83.155 -2.012,-0.6002 -1.3703,-3.2225 3.2334,0.737 z"
           fill="#000000" /><path
           id="path3368"
           d="m 45.675,83.155 -0.1489,-3.0857 3.9758,-0.248 -0.7512,3.0813 z"
           fill="#2a2a2a" /><path
           id="path3370"
           d="m 80.925,32.845 -32.764,6.1647 -1.9651,-2.4012 32.728,-6.1091 z"
           fill="#000000" /><path
           id="path3372"
           d="M 81.765,36.745 49.017,42.9802 48.1607,39.006 80.9247,32.8413 Z"
           fill="#373737" /><path
           id="path3374"
           d="M 44.995,43.205 45.5333,80.07 42.2999,79.333 41.7254,42.531 Z"
           fill="#232323" /><path
           id="path3376"
           d="M 49.015,42.985 49.5071,79.829 45.5313,80.077 44.993,43.212 Z"
           fill="#474747" /><path
           id="path3378"
           d="m 45.045,39.785 -2.0467,-1.0861 3.1921,-2.0882 1.9651,2.4012 z"
           fill="#030303" /><path
           id="path3380"
           d="m 45.045,39.785 -0.0552,3.4281 -3.2696,-0.6747 1.2781,-3.8395 z"
           fill="#1e1e1e" /><path
           id="path3382"
           d="m 45.045,39.785 3.1105,-0.7731 0.8563,3.9742 -4.022,0.227 z"
           fill="#4b4b4b" /><path
           id="path3384"
           d="m 83.605,32.525 0.42,3.2665 -2.2626,0.9582 -0.8406,-3.9037 z"
           fill="#151515" /><path
           id="path3386"
           d="m 43.005,38.695 -19.542,-9.2584 3.1313,-2.0211 19.603,9.1913 z"
           fill="#000000" /><path
           id="path3388"
           d="m 41.725,42.535 -19.5,-9.3573 1.2366,-3.7406 19.542,9.2584 z"
           fill="#000000" /><path
           id="path3390"
           d="m 22.045,28.875 2.7463,-0.8745 1.803,-0.5876 -3.1313,2.0211 z"
           fill="#000000" /><path
           id="path3392"
           d="m 22.045,28.875 1.418,0.559 -1.2366,3.7406 -0.5147,-1.1128 z"
           fill="#000000" /><path
           id="path3394"
           d="m 84.025,35.785 0.0908,36.178 -2.2371,1.0471 -0.1163,-36.267 z"
           fill="#000000" /><path
           id="path3396"
           d="m 81.075,76.055 -32.316,6.8515 0.7512,-3.0813 32.372,-6.8121 z"
           fill="#060606" /><path
           id="path3398"
           d="M 22.225,33.175 23.0007,69.11 22.4892,67.8936 21.7103,32.0616 Z"
           fill="#000000" /><path
           id="path3400"
           d="m 22.995,69.115 19.299,10.224 1.3703,3.2225 -19.302,-10.291 z"
           fill="#000000" /><path
           id="path3402"
           d="m 22.995,69.115 1.3681,3.1556 -1.4136,-1.2116 -0.466,-3.1604 z"
           fill="#000000" /><path
           id="path3404"
           d="m 61.855,22.505 20.161,8.8771 -3.0957,-0.8832 -20.122,-8.8725 z"
           fill="#000000"
           style="display:inline" /><path
           id="path3406"
           d="m 83.605,32.525 -2.6832,0.321 -2.0004,-2.3456 3.0957,0.8832 z"
           fill="#000000"
           style="display:inline" /><path
           id="path3408"
           d="m 83.715,75.105 -2.6457,0.9524 0.8071,-3.0419 2.2371,-1.0471 z"
           fill="#000000"
           style="display:inline" /><path
           id="path3410"
           d="m 49.505,79.825 -0.4921,-36.844 32.748,-6.2352 0.1163,36.267 z"
           style="display:inline;fill:#2e2e2e;fill-opacity:1;stroke:none;stroke-opacity:1" /><path
           id="path3412"
           d="m 22.995,69.115 -0.7757,-35.935 19.5,9.3573 0.5745,36.802 z"
           style="display:inline;fill:#d2d2d2;fill-opacity:1" /><path
           id="path3414"
           d="m 26.585,27.416 32.209,-5.7903 20.122,8.8725 -32.728,6.1091 z"
           style="display:inline;fill:#ae1717;fill-opacity:1" /></g><g
         id="g3076"
         style="display:inline"
         inkscape:label="200"><path
           id="path3026"
           d="m 151.978,79.12 -2.012,-0.6002 -1.37,-3.2225 3.233,0.737 z"
           fill="#000000" /><path
           id="path3028"
           d="m 151.978,79.12 -0.149,-3.0857 3.976,-0.248 -0.751,3.0813 z"
           fill="#2a2a2a" /><path
           id="path3030"
           d="m 187.228,28.81 -32.764,6.1647 -1.965,-2.4012 32.728,-6.1091 z"
           fill="#000000" /><path
           id="path3032"
           d="m 188.068,32.71 -32.748,6.2352 -0.856,-3.9742 32.764,-6.1647 z"
           fill="#373737" /><path
           id="path3034"
           d="m 151.298,39.17 0.538,36.865 -3.233,-0.737 -0.575,-36.802 z"
           fill="#232323" /><path
           id="path3036"
           d="m 155.318,38.95 0.492,36.844 -3.976,0.248 -0.538,-36.865 z"
           fill="#474747" /><path
           id="path3038"
           d="m 151.348,35.75 -2.047,-1.0861 3.192,-2.0882 1.965,2.4012 z"
           fill="#030303" /><path
           id="path3040"
           d="m 151.348,35.75 -0.055,3.4281 -3.27,-0.6747 1.278,-3.8395 z"
           fill="#1e1e1e" /><path
           id="path3042"
           d="m 151.348,35.75 3.11,-0.7731 0.857,3.9742 -4.022,0.227 z"
           fill="#4b4b4b" /><path
           id="path3044"
           d="m 189.908,28.49 0.42,3.2665 -2.263,0.9582 -0.84,-3.9037 z"
           fill="#151515" /><path
           id="path3046"
           d="m 149.308,34.66 -19.542,-9.2584 3.131,-2.0211 19.603,9.1913 z"
           fill="#000000" /><path
           id="path3048"
           d="m 148.028,38.5 -19.5,-9.3573 1.237,-3.7406 19.542,9.2584 z"
           fill="#000000" /><path
           id="path3050"
           d="m 128.348,24.84 2.746,-0.8745 1.803,-0.5876 -3.131,2.0211 z"
           fill="#000000" /><path
           id="path3052"
           d="m 128.348,24.84 1.418,0.559 -1.237,3.7406 -0.514,-1.1128 z"
           fill="#000000" /><path
           id="path3054"
           d="m 190.328,31.75 0.091,36.178 -2.237,1.0471 -0.117,-36.267 z"
           fill="#000000" /><path
           id="path3056"
           d="m 187.378,72.02 -32.316,6.8515 0.751,-3.0813 32.372,-6.8121 z"
           fill="#060606" /><path
           id="path3058"
           d="m 128.528,29.14 0.776,35.935 -0.512,-1.2164 -0.779,-35.832 z"
           fill="#000000" /><path
           id="path3060"
           d="m 129.298,65.08 19.299,10.224 1.37,3.2225 -19.302,-10.291 z"
           fill="#000000" /><path
           id="path3062"
           d="m 129.298,65.08 1.368,3.1556 -1.413,-1.2116 -0.466,-3.1604 z"
           fill="#000000" /><path
           id="path3064"
           d="m 168.158,18.47 20.161,8.8771 -3.096,-0.8832 -20.122,-8.8725 z"
           fill="#000000"
           style="display:inline" /><path
           id="path3066"
           d="m 189.908,28.49 -2.683,0.321 -2.001,-2.3456 3.096,0.8832 z"
           fill="#000000"
           style="display:inline" /><path
           id="path3068"
           d="m 190.018,71.07 -2.646,0.9524 0.807,-3.0419 2.237,-1.0471 z"
           fill="#000000"
           style="display:inline" /><path
           id="path3070"
           d="m 155.808,75.79 -0.492,-36.844 32.748,-6.2352 0.116,36.267 z"
           style="display:inline;fill:#ae1717;fill-opacity:1;stroke:none;stroke-opacity:1" /><path
           id="path3072"
           d="m 129.298,65.08 -0.776,-35.935 19.5,9.3573 0.575,36.802 z"
           style="display:inline;fill:#000000;fill-opacity:1" /><path
           id="path3074"
           d="m 132.888,23.381 32.209,-5.7903 20.122,8.8725 -32.728,6.1091 z"
           style="display:inline;fill:#d2d2d2;fill-opacity:1" /></g><g
         id="g3024"
         style="display:inline"
         inkscape:label="100"><path
           id="path2974"
           d="m 110.504,86.744 -2.012,-0.6002 -1.37,-3.2225 3.233,0.737 z"
           fill="#000000" /><path
           id="path2976"
           d="m 110.504,86.744 -0.149,-3.0857 3.976,-0.248 -0.751,3.0813 z"
           fill="#2a2a2a" /><path
           id="path2978"
           d="m 145.754,36.434 -32.764,6.1647 -1.965,-2.4012 32.728,-6.1091 z"
           fill="#000000" /><path
           id="path2980"
           d="m 146.594,40.334 -32.748,6.2352 -0.856,-3.9742 32.764,-6.1647 z"
           fill="#373737" /><path
           id="path2982"
           d="m 109.824,46.794 0.538,36.865 -3.233,-0.737 -0.575,-36.802 z"
           fill="#232323" /><path
           id="path2984"
           d="m 113.844,46.574 0.492,36.844 -3.976,0.248 -0.538,-36.865 z"
           fill="#474747" /><path
           id="path2986"
           d="m 109.874,43.374 -2.047,-1.0861 3.192,-2.0882 1.966,2.4012 z"
           fill="#030303" /><path
           id="path2988"
           d="m 109.874,43.374 -0.055,3.4281 -3.27,-0.6747 1.278,-3.8395 z"
           fill="#1e1e1e" /><path
           id="path2990"
           d="m 109.874,43.374 3.111,-0.7731 0.856,3.9742 -4.022,0.227 z"
           fill="#4b4b4b" /><path
           id="path2992"
           d="m 148.434,36.114 0.42,3.2665 -2.263,0.9582 -0.84,-3.9037 z"
           fill="#151515" /><path
           id="path2994"
           d="m 107.834,42.284 -19.542,-9.2584 3.1313,-2.0211 19.6027,9.1913 z"
           fill="#000000" /><path
           id="path2996"
           d="m 106.554,46.124 -19.5,-9.3573 1.2366,-3.7406 19.5424,9.2584 z"
           fill="#000000" /><path
           id="path2998"
           d="m 86.874,32.464 2.7463,-0.8745 1.803,-0.5876 -3.1313,2.0211 z"
           fill="#000000" /><path
           id="path3000"
           d="m 86.874,32.464 1.418,0.559 -1.2366,3.7406 -0.5147,-1.1128 z"
           fill="#000000" /><path
           id="path3002"
           d="m 148.854,39.374 0.091,36.178 -2.237,1.0471 -0.117,-36.267 z"
           fill="#000000" /><path
           id="path3004"
           d="m 145.904,79.644 -32.316,6.8515 0.751,-3.0813 32.372,-6.8121 z"
           fill="#060606" /><path
           id="path3006"
           d="m 87.054,36.764 0.7757,35.935 -0.5115,-1.2164 -0.7789,-35.832 z"
           fill="#000000" /><path
           id="path3008"
           d="m 87.824,72.704 19.299,10.224 1.37,3.2225 -19.3017,-10.291 z"
           fill="#000000" /><path
           id="path3010"
           d="m 87.824,72.704 1.3681,3.1556 -1.4136,-1.2116 -0.466,-3.1604 z"
           fill="#000000" /><path
           id="path3012"
           d="m 126.684,26.094 20.161,8.8771 -3.096,-0.8832 -20.122,-8.8725 z"
           fill="#000000"
           style="display:inline" /><path
           id="path3014"
           d="m 148.434,36.114 -2.683,0.321 -2.001,-2.3456 3.096,0.8832 z"
           fill="#000000"
           style="display:inline" /><path
           id="path3016"
           d="m 148.544,78.694 -2.646,0.9524 0.807,-3.0419 2.238,-1.0471 z"
           fill="#000000"
           style="display:inline" /><path
           id="path3018"
           d="m 114.334,83.414 -0.492,-36.844 32.748,-6.2352 0.116,36.267 z"
           style="display:inline;fill:#175cae;fill-opacity:1;stroke:none;stroke-opacity:1" /><path
           id="path3020"
           d="m 87.824,72.704 -0.7757,-35.935 19.4997,9.3573 0.575,36.802 z"
           style="display:inline;fill:#000000;fill-opacity:1" /><path
           id="path3022"
           d="m 91.414,31.005 32.209,-5.7903 20.122,8.8725 -32.728,6.1091 z"
           style="display:inline;fill:#d2d2d2;fill-opacity:1" /></g><g
         id="g1263"
         style="display:inline"
         inkscape:label="000"><path
           id="polygon7942"
           d="m 69.03,94.368 -2.012,-0.6002 -1.3703,-3.2225 3.2334,0.737 z"
           fill="#000000" /><path
           id="polygon7944"
           d="m 69.03,94.368 -0.1489,-3.0857 3.9758,-0.248 -0.7512,3.0813 z"
           fill="#2a2a2a" /><path
           id="polygon7946"
           d="M 104.28,44.058 71.516,50.2227 69.5509,47.8215 102.279,41.7124 Z"
           fill="#000000" /><path
           id="polygon7948"
           d="M 105.12,47.958 72.372,54.1932 71.5157,50.219 104.28,44.0543 Z"
           fill="#373737" /><path
           id="polygon7950"
           d="M 68.35,54.418 68.8883,91.283 65.6549,90.546 65.0804,53.744 Z"
           fill="#232323" /><path
           id="polygon7952"
           d="M 72.37,54.198 72.8621,91.042 68.8863,91.29 68.348,54.425 Z"
           fill="#474747" /><path
           id="polygon7954"
           d="m 68.4,50.998 -2.0467,-1.0861 3.1921,-2.0882 1.9651,2.4012 z"
           fill="#030303" /><path
           id="polygon7956"
           d="m 68.4,50.998 -0.0552,3.4281 -3.2696,-0.6747 1.2781,-3.8395 z"
           fill="#1e1e1e" /><path
           id="polygon7958"
           d="m 68.4,50.998 3.1105,-0.7731 0.8563,3.9742 -4.022,0.227 z"
           fill="#4b4b4b" /><path
           id="polygon7926"
           d="m 106.96,43.738 0.42,3.2665 -2.263,0.9582 -0.84,-3.9037 z"
           fill="#151515" /><path
           id="polygon7928"
           d="m 66.36,49.908 -19.542,-9.2584 3.1313,-2.0211 19.603,9.1913 z"
           fill="#000000" /><path
           id="polygon7930"
           d="m 65.08,53.748 -19.5,-9.3573 1.2366,-3.7406 19.542,9.2584 z"
           fill="#000000" /><path
           id="polygon7870"
           d="m 45.4,40.088 2.7463,-0.8745 1.803,-0.5876 -3.1313,2.0211 z"
           fill="#000000" /><path
           id="polygon7874"
           d="m 45.4,40.088 1.418,0.559 -1.2366,3.7406 -0.5147,-1.1128 z"
           fill="#000000" /><path
           id="polygon7902"
           d="m 107.38,46.998 0.091,36.178 -2.237,1.0471 -0.117,-36.267 z"
           fill="#000000" /><path
           id="polygon7918"
           d="m 104.43,87.268 -32.316,6.8515 0.7512,-3.0813 32.3718,-6.8121 z"
           fill="#060606" /><path
           id="polygon7834"
           d="m 45.58,44.388 0.7757,35.935 -0.5115,-1.2164 -0.7789,-35.832 z"
           fill="#000000" /><path
           id="polygon7894"
           d="m 46.35,80.328 19.299,10.224 1.3703,3.2225 -19.302,-10.291 z"
           fill="#000000" /><path
           id="polygon7804"
           d="m 46.35,80.328 1.3681,3.1556 -1.4136,-1.2116 -0.466,-3.1604 z"
           fill="#000000" /><path
           id="polygon7858"
           d="m 85.21,33.718 20.161,8.8771 -3.096,-0.8832 -20.1217,-8.8725 z"
           fill="#000000"
           style="display:inline" /><path
           id="polygon7922"
           d="m 106.96,43.738 -2.683,0.321 -2.001,-2.3456 3.096,0.8832 z"
           fill="#000000"
           style="display:inline" /><path
           id="polygon7876"
           d="m 107.07,86.318 -2.646,0.9524 0.807,-3.0419 2.238,-1.0471 z"
           fill="#000000"
           style="display:inline" /><path
           id="path1589"
           d="m 72.86,91.038 -0.4921,-36.844 32.7481,-6.2352 0.116,36.267 z"
           style="display:inline;fill:#129f00;fill-opacity:1;stroke:none;stroke-opacity:1" /><path
           id="path1592"
           d="m 46.35,80.328 -0.7757,-35.935 19.5,9.3573 0.5745,36.802 z"
           style="display:inline;fill:#d6de00;fill-opacity:1" /><path
           id="path1595"
           d="m 49.94,38.629 32.209,-5.7903 20.122,8.8725 -32.728,6.1091 z"
           style="display:inline;fill:#ae5517;fill-opacity:1" /></g></g></g></svg>
