<svg fill="#fafafa" role="img" version="1.1" viewBox="0 0 24 24" xml:space="preserve" xmlns="http://www.w3.org/2000/svg" xmlns:xlink="http://www.w3.org/1999/xlink"><path d="m2.9943 3.3253c-1.2226 0-2.2098 0.98336-2.2098 2.206v0.52232h-0.12245c-0.36316 0-0.66199 0.29882-0.66199 0.66199v10.529c0 0.36316 0.29883 0.6639 0.66199 0.6639h0.12245v0.55867c0 1.2226 0.98719 2.2079 2.2098 2.2079h16.014v-0.5625c0-0.61132 0.49071-1.1059 1.102-1.1059h0.51084v0.6486c0 0.03821 0.03067 0.06888 0.06888 0.06888h1.1709c0.0382 0 0.0708-0.03067 0.0708-0.06888v-0.6486h2.0682v-3.6371h-0.43622c-0.30566 0-0.55102-0.24536-0.55102-0.55102v-0.9662h0.19515c0.07641 0 0.13776-0.06133 0.13776-0.13776v-2.9254c0-0.07642-0.06133-0.13776-0.13776-0.13776h-0.19515v-0.96429c0-0.30566 0.24536-0.55102 0.55102-0.55102h0.43622v-5.8106zm2.8795 0.2449a0.63464 0.63464 0 0 1 0.6352 0.6352 0.63464 0.63464 0 0 1-0.6352 0.6352 0.63464 0.63464 0 0 1-0.6352-0.6352 0.63464 0.63464 0 0 1 0.6352-0.6352zm1.7181 0a0.63464 0.63464 0 0 1 0.6352 0.6352 0.63464 0.63464 0 0 1-0.6352 0.6352 0.63464 0.63464 0 0 1-0.6352-0.6352 0.63464 0.63464 0 0 1 0.6352-0.6352zm1.7181 0a0.63464 0.63464 0 0 1 0.6352 0.6352 0.63464 0.63464 0 0 1-0.6352 0.6352 0.63464 0.63464 0 0 1-0.6352-0.6352 0.63464 0.63464 0 0 1 0.6352-0.6352zm1.72 0a0.63464 0.63464 0 0 1 0.63329 0.6352 0.63464 0.63464 0 0 1-0.63329 0.6352 0.63464 0.63464 0 0 1-0.6352-0.6352 0.63464 0.63464 0 0 1 0.6352-0.6352zm1.7181 0a0.63464 0.63464 0 0 1 0.6352 0.6352 0.63464 0.63464 0 0 1-0.6352 0.6352 0.63464 0.63464 0 0 1-0.6352-0.6352 0.63464 0.63464 0 0 1 0.6352-0.6352zm1.7181 0a0.63464 0.63464 0 0 1 0.6352 0.6352 0.63464 0.63464 0 0 1-0.6352 0.6352 0.63464 0.63464 0 0 1-0.6352-0.6352 0.63464 0.63464 0 0 1 0.6352-0.6352zm1.7181 0a0.63464 0.63464 0 0 1 0.6352 0.6352 0.63464 0.63464 0 0 1-0.6352 0.6352 0.63464 0.63464 0 0 1-0.6352-0.6352 0.63464 0.63464 0 0 1 0.6352-0.6352zm1.72 0a0.63464 0.63464 0 0 1 0.6352 0.6352 0.63464 0.63464 0 0 1-0.6352 0.6352 0.63464 0.63464 0 0 1-0.6352-0.6352 0.63464 0.63464 0 0 1 0.6352-0.6352zm-17.242 2.9732h5.3878a0.034487 0.034487 0 0 1 0.021046 0.00957 0.034487 0.034487 0 0 1 0.00957 0.01148c0.037688 0.14954 0.16803 0.26594 0.32908 0.26594 0.16404 1e-7 0.30209-0.11604 0.33673-0.26977v-0.00765h0.042092a0.034487 0.034487 0 0 1 0.024873-0.00957h0.58929a0.034487 0.034487 0 0 1 0.022959 0.00957h0.015306l0.00191 0.00765c0.034631 0.15374 0.17077 0.26977 0.33482 0.26977 0.16404 0 0.30208-0.11603 0.33673-0.26977l0.00383-0.00765h0.036352a0.034487 0.034487 0 0 1 0.01148-0.00957h0.58928a0.034487 0.034487 0 0 1 0.02296 0.00957h0.03061l0.0019 0.00765c0.03463 0.15374 0.17269 0.26977 0.33674 0.26977 0.16404 1e-7 0.304-0.11601 0.33865-0.26977v-0.00765h0.0096a0.034487 0.034487 0 0 1 0.02487-0.00957h0.58737a0.034487 0.034487 0 0 1 0.02487 0.00957h0.04591l2e-3 0.00765c0.03463 0.15374 0.17078 0.26977 0.33482 0.26977 0.16404 0 0.30209-0.11603 0.33674-0.26977l2e-3 -0.00765h0.0076a0.034487 0.034487 0 0 1 0.01148-0.00957h0.58737a0.034487 0.034487 0 0 1 0.02487 0.00957h0.06122l2e-3 0.00765c0.03463 0.15374 0.1727 0.26977 0.33673 0.26977 0.14923 0 0.25814-0.11382 0.30612-0.24681v-0.00574a0.034487 0.034487 0 0 1 0.03635-0.034438h0.58737a0.034487 0.034487 0 0 1 0.02487 0.00957h0.07654l2e-3 0.00765c0.03463 0.15374 0.17078 0.26977 0.33482 0.26977 0.14156 0 0.23765-0.11106 0.29082-0.23342v-0.019132a0.034487 0.034487 0 0 1 0.03635-0.034438h0.58737a0.034487 0.034487 0 0 1 0.02487 0.00957h0.09184l2e-3 0.00765c0.03463 0.15374 0.17269 0.26977 0.33674 0.26977s0.304-0.11603 0.33865-0.26977v-0.00765h0.08036a0.034487 0.034487 0 0 1 0.02296-0.00957h0.45918a0.034487 0.034487 0 0 1 0.02296 0.00957h0.10714l2e-3 0.00765c0.03463 0.15374 0.17077 0.26977 0.33482 0.26977 0.15403 1e-7 0.27346-0.11285 0.3176-0.25255a0.034487 0.034487 0 0 0 2e-3 -0.00191 0.034487 0.034487 0 0 1 0.03444-0.032525h0.56441a0.034487 0.034487 0 0 1 0.03061 0.051658c-0.01036 0.017334-0.01646 0.03725-0.01722 0.057398 3.41e-4 0.066136 0.05263 0.11961 0.11862 0.12054 0.0015-2.841e-4 0.0024-0.00157 0.0038-0.00191a0.034487 0.034487 0 0 1 0.044 0.034439v0.2162a0.034487 0.034487 0 0 1-0.044 0.032525c-0.0015-3.5e-4 -0.0024 2.932e-4 -0.0038 0-0.0662 9.268e-4 -0.11862 0.054097-0.11862 0.12054 0 0.066453 0.0524 0.11963 0.11862 0.12054 0.0015-2.84e-4 0.0024-0.00157 0.0038-0.00191a0.034487 0.034487 0 0 1 0.044 0.032525v0.2162a0.034487 0.034487 0 0 1-0.04018 0.036352c-0.0025-2.644e-4 -0.0034-0.00179-0.0058-0.00191-0.06688 1.72e-4 -0.12054 0.05362-0.12054 0.12054 0 0.066438 0.05242 0.11769 0.11862 0.11862 0.0015-2.932e-4 0.0024 3.5e-4 0.0038 0a0.034487 0.034487 0 0 1 0.044 0.034438v0.22001a0.034487 0.034487 0 0 1-0.01339 0.026786v0.066964l-0.0076 0.00191c-0.15374 0.034647-0.26786 0.17461-0.26786 0.33865 0 0.16404 0.11428 0.30018 0.26786 0.33482l0.0076 0.00191v0.068877a0.034487 0.034487 0 0 1 0.01339 0.026786v0.49745a0.034487 0.034487 0 0 1-0.01339 0.026786v0.065051h-0.0076c-0.15374 0.034647-0.26786 0.17269-0.26786 0.33673 0 0.16404 0.11412 0.30209 0.26786 0.33673h0.0076v0.07462a0.034487 0.034487 0 0 1 0.01339 0.02679v0.49554a0.034487 0.034487 0 0 1-0.01339 0.02679v0.06122l-0.0076 0.0019c-0.15374 0.03465-0.26786 0.17077-0.26786 0.33482 0 0.16404 0.11412 0.30209 0.26786 0.33674l0.0076 0.0019v0.07653a0.034487 0.034487 0 0 1 0.01339 0.02679v0.49746a0.034487 0.034487 0 0 1-0.01339 0.02679v0.05549l-0.0076 0.0019c-0.15374 0.03465-0.26786 0.1746-0.26786 0.33865 0 0.16404 0.11412 0.30017 0.26786 0.33482l0.0076 0.0019v0.08036a0.034487 0.034487 0 0 1 0.01339 0.02679v0.49747a0.034487 0.034487 0 0 1-0.01339 0.02487v0.05548h-0.0076c-0.15374 0.03465-0.26786 0.17269-0.26786 0.33674 0 0.16404 0.11412 0.30209 0.26786 0.33673l0.0076 2e-3v0.08419a0.034487 0.034487 0 0 1 0.01339 0.02678v0.49554a0.034487 0.034487 0 0 1-0.01339 0.02678v0.04974l-0.0076 2e-3c-0.15374 0.03465-0.26786 0.17077-0.26786 0.33482 0 0.16404 0.11412 0.304 0.26786 0.33865l0.0076 2e-3v0.08801a0.034487 0.034487 0 0 1 0.01339 0.02487v0.306a0.034487 0.034487 0 0 1-0.04783 0.03444c-0.01499-0.0066-0.03336-0.0113-0.04974-0.01148-0.06696 7.4e-5 -0.11862 0.05355-0.11862 0.12054 0 0.06698 0.05166 0.12054 0.11862 0.12054 0.01638-2.13e-4 0.03476-0.0048 0.04974-0.01148a0.034487 0.034487 0 0 1 0.04783 0.03252v0.25064a0.034487 0.034487 0 0 1-0.04783 0.03061c-0.01358-0.0054-0.02754-0.0074-0.04209-0.0076-0.06697 5.7e-5 -0.12054 0.05354-0.12054 0.12054 0 0.06696 0.05359 0.12036 0.12054 0.12054 0.01451-1.96e-4 0.0286-0.0042 0.04209-0.0096a0.034487 0.034487 0 0 1 0.04783 0.03252v0.20855a0.034487 0.034487 0 0 1-0.04783 0.03252c-0.01358-0.0052-0.02754-0.0074-0.04209-0.0076-0.06694 5.9e-5 -0.12054 0.0536-0.12054 0.12054 3.52e-4 0.05006 0.03157 0.09337 0.07845 0.11097a0.034487 0.034487 0 0 1-0.0058 0.06505c-0.01138 0.0024-0.02404 0.0058-0.03635 0.0058h-0.49554v0.0058h-0.12054v-0.0058h-0.01531a0.034487 0.034487 0 0 1-0.03444-0.03635v-0.0038c-0.05423-0.11985-0.14725-0.22959-0.28699-0.22959-0.16404 0-0.304 0.11603-0.33865 0.26977l-2e-3 0.0058h-0.11671v-0.0058h-0.46875v0.0058h-0.12054l-2e-3 -0.0058c-0.03463-0.15375-0.17077-0.26977-0.33482-0.26977-0.16403 0-0.304 0.11603-0.33865 0.26977l-2e-3 0.0058h-0.11671v-0.0058h-0.46882v0.0058h-0.12054l-2e-3 -0.0058c-0.03463-0.15375-0.1746-0.26977-0.33865-0.26977-0.16404 0-0.30017 0.11603-0.33482 0.26977l-2e-3 0.0058h-0.12044v-0.0058h-0.46684v0.0058h-0.11864l-2e-3 -0.0058c-0.03463-0.15375-0.17461-0.26977-0.33865-0.26977-0.16404 0-0.30209 0.11603-0.33674 0.26977v0.0058h-0.12054v-0.0058h-0.46675v0.0058h-0.12054v-0.0058c-0.03463-0.15375-0.1746-0.26977-0.33865-0.26977-0.16404 0-0.30209 0.11603-0.33673 0.26977l-2e-3 0.0058h-0.11858v-0.0058h-0.46674v0.0058h-0.12054l-0.0038-0.0058c-0.03463-0.15375-0.17078-0.26977-0.33482-0.26977-0.16404 0-0.30209 0.11603-0.33673 0.26977l-0.0019 0.0058h-0.11862v-0.0058h-0.46688v0.0058h-0.12054l-0.00191-0.0058c-0.034633-0.15396-0.1746-0.26999-0.33865-0.26999-0.16404 0-0.30018 0.11603-0.33482 0.26977l-0.00191 0.0058h-0.12054v-0.0058h-0.46875v0.0058h-0.11862v-0.0058c-0.0092-0.04085-0.027418-0.07889-0.049745-0.11288-0.0013-0.0021-0.00247-0.0037-0.00383-0.0058-0.062253-0.09066-0.16717-0.15115-0.28508-0.15115-0.10509 0-0.19876 0.04795-0.26212 0.12245-0.00155 0.0018-0.00229 2e-3 -0.00383 0.0038-0.00151 2e-3 -0.00238 0.0058-0.00383 0.0076-0.00147 2e-3 -0.0043 0.0039-0.00574 0.0058-0.00716 0.0095-0.012981 0.0184-0.019132 0.0287-0.00121 0.0022-0.00262 0.0055-0.00383 0.0076-0.00119 0.0022-7.672e-4 0.0036-0.00191 0.0058l-0.00383 2e-3v0.05166a0.034487 0.034487 0 0 1-0.032525 0.03444v0.0058h-0.12052v-0.0058h-5.1543c-0.094924-9.9e-5 -0.17219-0.07928-0.17219-0.1742v-10.529c0-0.094922 0.077272-0.17219 0.17219-0.17219zm0.057398 0.35013c-0.031532 0.00363-0.049971 0.037637-0.044005 0.066964 0 0.61948-5.345e-4 1.2383 0 1.8578 0.00469 0.032513 0.043423 0.047235 0.072704 0.042092h1.8253c1.6e-6 0.41903 0 0.8399 0 1.2589-0.61871 0-1.2372-5.34e-4 -1.8559 0-0.032503 0.0047-0.047244 0.04342-0.042092 0.0727 0 0.64035-5.345e-4 1.2787 0 1.919 0.00469 0.0325 0.043423 0.0491 0.072704 0.044h1.7774v1.2761c-0.60258 0-1.2054 0.0014-1.808 2e-3 -0.032503 0.0047-0.047235 0.03958-0.042092 0.06888 1.2e-5 1.1208-2.415e-4 2.2409 0 3.3616 0.0028 0.0333 0.041095 0.05102 0.070791 0.04591 1.2127-5.86e-4 2.4262 7.94e-4 3.639 0 0.032522-0.0047 0.047225-0.04153 0.042092-0.0708-4.211e-4 -0.10364 3.888e-4 -0.20828-0.00191-0.31186-0.00749-0.03064-0.044471-0.04086-0.072704-0.03635h-3.2143v-1.0963c1.0817 0 2.1631 2.07e-4 3.2449 0 0.019405 0 0.034553-0.01232 0.049745-0.02296 0.032041-0.01879 0.066014-0.0373 0.09949-0.05357 0.040894-0.0016 0.081507 4.99e-4 0.12245 0 0.15631-1.96e-4 0.31247-3.46e-4 0.46875-2e-3 0.031785-0.0065 0.043006-0.04393 0.038265-0.07271-9.403e-4 -0.05266 0.0027-0.10632-0.00191-0.1588-0.0093-0.02944-0.045336-0.03816-0.072704-0.03444h-0.55868c-0.046233-0.0252-0.092672-0.05472-0.14158-0.07462-0.099578-0.0038-0.19693-7.37e-4 -0.29656-2e-3h-2.9522v-1.1231c0.58864 0 1.1773 5.36e-4 1.7659 0 0.03264-0.0045 0.045332-0.03957 0.040179-0.06888 0-0.66831 5.518e-4 -1.3369 0-2.0051-0.00458-0.03245-0.039654-0.049-0.068877-0.04401h-1.7372v-1.1938c0.60479 0 1.209 5.34e-4 1.8138 0 0.032492-0.0046 0.049109-0.04154 0.044005-0.07079-1e-7 -0.6614-0.00138-1.3227-0.00191-1.9841-0.00457-0.032457-0.04157-0.049089-0.070791-0.044005h-1.7851v-1.1268c0.95997-6.9e-5 1.9194 2.412e-4 2.8795 0 0.032837-0.00284 0.049285-0.039397 0.044005-0.068878-2.414e-4 -0.10407 0.00202-0.20976 0-0.31378-0.00588-0.027288-0.035649-0.037606-0.061224-0.036352-0.22926 0.00164-0.45945-3.639e-4 -0.68878 0-0.86394 8.62e-5 -1.7287-3.017e-4 -2.5925 4e-7zm5.2577 0.85906c-0.15283 0-0.27551 0.12268-0.27551 0.27551v7.7564c0 0.15283 0.12268 0.27742 0.27551 0.27742h9.8724c0.15283 0 0.27551-0.12459 0.27551-0.27742v-7.7564c0-0.15283-0.12268-0.27551-0.27551-0.27551zm-0.28316 11.254a0.63464 0.63464 0 0 1 0.6352 0.6352 0.63464 0.63464 0 0 1-0.6352 0.6352 0.63464 0.63464 0 0 1-0.63329-0.6352 0.63464 0.63464 0 0 1 0.63329-0.6352zm1.7487 0a0.63464 0.63464 0 0 1 0.6352 0.6352 0.63464 0.63464 0 0 1-0.6352 0.6352 0.63464 0.63464 0 0 1-0.6352-0.6352 0.63464 0.63464 0 0 1 0.6352-0.6352zm1.7468 0a0.63464 0.63464 0 0 1 0.6352 0.6352 0.63464 0.63464 0 0 1-0.6352 0.6352 0.63464 0.63464 0 0 1-0.6352-0.6352 0.63464 0.63464 0 0 1 0.6352-0.6352zm1.7487 0a0.63464 0.63464 0 0 1 0.6352 0.6352 0.63464 0.63464 0 0 1-0.6352 0.6352 0.63464 0.63464 0 0 1-0.6352-0.6352 0.63464 0.63464 0 0 1 0.6352-0.6352zm1.7468 0a0.63464 0.63464 0 0 1 0.6352 0.6352 0.63464 0.63464 0 0 1-0.6352 0.6352 0.63464 0.63464 0 0 1-0.6352-0.6352 0.63464 0.63464 0 0 1 0.6352-0.6352zm1.7487 0a0.63464 0.63464 0 0 1 0.63329 0.6352 0.63464 0.63464 0 0 1-0.63329 0.6352 0.63464 0.63464 0 0 1-0.6352-0.6352 0.63464 0.63464 0 0 1 0.6352-0.6352zm1.7468 0a0.63464 0.63464 0 0 1 0.6352 0.6352 0.63464 0.63464 0 0 1-0.6352 0.6352 0.63464 0.63464 0 0 1-0.6352-0.6352 0.63464 0.63464 0 0 1 0.6352-0.6352zm1.7468 0a0.63464 0.63464 0 0 1 0.63329 0.6352 0.63464 0.63464 0 0 1-0.63329 0.6352 0.63464 0.63464 0 0 1-0.6352-0.6352 0.63464 0.63464 0 0 1 0.6352-0.6352z" stroke-width=".97959"/></svg>
