<svg fill="#fafafa" role="img" version="1.1" viewBox="0 0 24 24" xml:space="preserve" xmlns="http://www.w3.org/2000/svg"><path d="m10.688 0-1.3125 2.2734 1.3125 2.2734h2.625l1.3145-2.2734-1.3145-2.2734zm-4.2148 2.4336-1.3125 2.2734 1.3125 2.2754h2.625l1.3125-2.2754-1.3125-2.2734zm8.4297 0-1.3125 2.2734 1.3125 2.2734h2.625l1.3125-2.2734-1.3125-2.2734zm-12.646 2.4336-1.3125 2.2734 1.3125 2.2754h2.627l1.3125-2.2754-1.3125-2.2734zm8.4316 0-1.3125 2.2734 1.3125 2.2754h2.625l1.3145-2.2754-1.3145-2.2734zm8.4297 0-1.3125 2.2734 1.3125 2.2734h2.627l1.3125-2.2734-1.3125-2.2734zm-12.645 2.4336-1.3125 2.2734 1.3125 2.2734h2.625l1.3125-2.2734-1.3125-2.2734zm8.4297 0-1.3125 2.2734 1.3125 2.2734h2.625l1.3125-2.2734-1.3125-2.2734zm4.2148 2.416-1.3125 2.2754 1.3125 2.2734h2.627l1.3125-2.2734-1.3125-2.2754zm-16.861 0.017578-1.3125 2.2734 1.3125 2.2754h2.627l1.3125-2.2754-1.3125-2.2734zm4.2168 2.418-1.3125 2.2734 1.3125 2.2734h2.625l1.3125-2.2734-1.3125-2.2734zm8.4297 0-1.3125 2.2734 1.3125 2.2734h2.625l1.3125-2.2734-1.3125-2.2734zm-4.2148 2.4316-1.3145 2.2754 1.3145 2.2734h2.625l1.3125-2.2734-1.3125-2.2754zm8.4297 0-1.3125 2.2754 1.3125 2.2734h2.627l1.3125-2.2734-1.3125-2.2754zm-16.861 2e-3 -1.3125 2.2734 1.3125 2.2734h2.627l1.3125-2.2735-1.3125-2.2734zm12.646 2.4316-1.3125 2.2754 1.3125 2.2734h2.625l1.3125-2.2734-1.3125-2.2754zm-8.4297 2e-3 -1.3125 2.2734 1.3125 2.2734h2.625l1.3125-2.2735-1.3125-2.2734zm4.2148 2.4335-1.3145 2.2734 1.3145 2.2734h2.625l1.3125-2.2734-1.3125-2.2734z"/></svg>
