<svg width="3600mm" height="2400mm" version="1.1" viewBox="0 0 3600 2400" xml:space="preserve"
    xmlns="http://www.w3.org/2000/svg"><rect width="3600" height="2400" fill="#18181b" stroke-linecap="round" stroke-linejoin="round" stroke-width="16.933"/><g transform="matrix(53.333 0 0 53.333 1160 560)" fill="#fafafa"><path d="m10.688 0-1.3125 2.2734 1.3125 2.2734h2.625l1.3145-2.2734-1.3145-2.2734zm-4.2148 2.4336-1.3125 2.2734 1.3125 2.2754h2.625l1.3125-2.2754-1.3125-2.2734zm8.4297 0-1.3125 2.2734 1.3125 2.2734h2.625l1.3125-2.2734-1.3125-2.2734zm-12.646 2.4336-1.3125 2.2734 1.3125 2.2754h2.627l1.3125-2.2754-1.3125-2.2734zm8.4316 0-1.3125 2.2734 1.3125 2.2754h2.625l1.3145-2.2754-1.3145-2.2734zm8.4297 0-1.3125 2.2734 1.3125 2.2734h2.627l1.3125-2.2734-1.3125-2.2734zm-12.645 2.4336-1.3125 2.2734 1.3125 2.2734h2.625l1.3125-2.2734-1.3125-2.2734zm8.4297 0-1.3125 2.2734 1.3125 2.2734h2.625l1.3125-2.2734-1.3125-2.2734zm4.2148 2.416-1.3125 2.2754 1.3125 2.2734h2.627l1.3125-2.2734-1.3125-2.2754zm-16.861 0.017578-1.3125 2.2734 1.3125 2.2754h2.627l1.3125-2.2754-1.3125-2.2734zm4.2168 2.418-1.3125 2.2734 1.3125 2.2734h2.625l1.3125-2.2734-1.3125-2.2734zm8.4297 0-1.3125 2.2734 1.3125 2.2734h2.625l1.3125-2.2734-1.3125-2.2734zm-4.2148 2.4316-1.3145 2.2754 1.3145 2.2734h2.625l1.3125-2.2734-1.3125-2.2754zm8.4297 0-1.3125 2.2754 1.3125 2.2734h2.627l1.3125-2.2734-1.3125-2.2754zm-16.861 2e-3 -1.3125 2.2734 1.3125 2.2734h2.627l1.3125-2.2735-1.3125-2.2734zm12.646 2.4316-1.3125 2.2754 1.3125 2.2734h2.625l1.3125-2.2734-1.3125-2.2754zm-8.4297 2e-3 -1.3125 2.2734 1.3125 2.2734h2.625l1.3125-2.2735-1.3125-2.2734zm4.2148 2.4335-1.3145 2.2734 1.3145 2.2734h2.625l1.3125-2.2734-1.3125-2.2734z"/></g></svg>