<svg fill="#fafafa" role="img" version="1.1" viewBox="0 0 24 24" xml:space="preserve" xmlns="http://www.w3.org/2000/svg"><path d="m7.4153 5.4054-4.0573 4.93-2.4188 0.65599-0.075135 0.02023-2.8609 5.141-1.1241-0.71957-2.2454 1.8668-0.7658 0.99699 0.29476 0.22252 0.7398-0.96231 1.9275-1.6039 0.028895 0.07225 0.71379 1.8061 0.65599-1.3206 2.7771-4.9907 2.257 3.2222 0.38146-4.17 3.7076-4.5052 2.7193 8.1406 1.8524-3.5371 1.9709-2.0373 2.0662 5.0283 4.0111 2.1096-1.1299-2.3263 1.6183-1.2542 2.202 4.6902 2.676 0.53751-0.13293-0.15894 0.15027 0.16183 1.39-0.61553 1.3178 1.7888h2.0691l-0.50283-0.341-2.8031-1.8871-1.3784 0.60975-4.8954-5.3231-1.9217 1.4854-4.6671-5.1063-2.1876 2.257z" stroke-width=".55271"/></svg>
