<svg width="3600mm" height="2400mm" version="1.1" viewBox="0 0 3600 2400" xml:space="preserve"
    xmlns="http://www.w3.org/2000/svg"><rect width="3600" height="2400" fill="#18181b" stroke-linecap="round" stroke-linejoin="round" stroke-width="16.933"/><g transform="matrix(53.333 0 0 53.333 1160 560)" fill="#fafafa"><path d="m8.3493 0a0.52158 0.52158 0 0 0-0.52153 0.52153v7.3014h-7.3014a0.52158 0.52158 0 0 0-0.52153 0.52153v7.3014a0.52158 0.52158 0 0 0 0.52153 0.52153h7.3014v7.3014a0.52158 0.52158 0 0 0 0.52153 0.52153h7.3014a0.52158 0.52158 0 0 0 0.52153-0.52153v-7.3014h7.3014a0.52158 0.52158 0 0 0 0.52153-0.52153v-7.3014a0.52158 0.52158 0 0 0-0.52153-0.52153h-7.3014v-7.3014a0.52158 0.52158 0 0 0-0.52153-0.52153zm0.52153 0.52153h6.2583a0.52158 0.52158 0 0 1 0.52153 0.52153v6.2583a0.52158 0.52158 0 0 1-0.52153 0.52153h-6.2583a0.52158 0.52158 0 0 1-0.52153-0.52153v-6.2583a0.52158 0.52158 0 0 1 0.52153-0.52153zm-7.8229 7.8229h6.2583a0.52158 0.52158 0 0 1 0.52153 0.52153v6.2583a0.52158 0.52158 0 0 1-0.52153 0.52153h-6.2583a0.52158 0.52158 0 0 1-0.52153-0.52153v-6.2583a0.52158 0.52158 0 0 1 0.52153-0.52153zm15.646 0h6.2583a0.52158 0.52158 0 0 1 0.52153 0.52153v6.2583a0.52158 0.52158 0 0 1-0.52153 0.52153h-6.2583a0.52158 0.52158 0 0 1-0.52153-0.52153v-6.2583a0.52158 0.52158 0 0 1 0.52153-0.52153zm-7.8229 7.8229h6.2583a0.52158 0.52158 0 0 1 0.52153 0.52153v6.2583a0.52158 0.52158 0 0 1-0.52153 0.52153h-6.2583a0.52158 0.52158 0 0 1-0.52153-0.52153v-6.2583a0.52158 0.52158 0 0 1 0.52153-0.52153z"/></g></svg>