<svg width="3600mm" height="2400mm" version="1.1" viewBox="0 0 3600 2400" xml:space="preserve"
    xmlns="http://www.w3.org/2000/svg"><rect width="3600" height="2400" fill="#18181b" stroke-linecap="round" stroke-linejoin="round" stroke-width="16.933"/><g transform="matrix(53.333 0 0 53.333 1160 560)" fill="#fafafa"><path transform="rotate(75.948)" d="m3.6661-13.971-6.597e-4 9.2211 9.1202 0.0015792-0.001235-9.2216-9.1183-0.001105zm12.613-1.3068a5.1438 5.1383 14.052 0 0 3.7429 6.234 5.1438 5.1383 14.052 0 0 6.2364-3.7363 5.1438 5.1383 14.052 0 0-3.741-6.2335 5.1438 5.1383 14.052 0 0-6.2383 3.7358zm-3.5792 18.314 10.927 0.66716-4.8845-9.7975-6.0422 9.1304z"/></g></svg>