<svg width="3600mm" height="2400mm" version="1.1" viewBox="0 0 3600 2400" xml:space="preserve"
    xmlns="http://www.w3.org/2000/svg"><rect width="3600" height="2400" fill="#18181b" stroke-linecap="round" stroke-linejoin="round" stroke-width="16.933"/><g transform="matrix(53.333 0 0 53.333 1160 560)" fill="#fafafa"><path d="m18.957 0.69141c-0.23023 0.009237-0.45943 0.096046-0.64453 0.26172-0.42309 0.37867-0.45876 1.0281-0.080078 1.4512 2.2797 2.5471 3.6641 5.9086 3.6641 9.5957 0 3.6871-1.3843 7.0486-3.6641 9.5957-0.37868 0.42306-0.34302 1.0725 0.080078 1.4512 0.42309 0.37875 1.0725 0.34298 1.4512-0.080078 2.6041-2.9095 4.1895-6.7545 4.1895-10.967 0-4.2124-1.5853-8.0573-4.1895-10.967-0.21301-0.23799-0.51062-0.35367-0.80664-0.3418zm-3.8965 3.3652c-0.23015 0.011088-0.45688 0.10042-0.64062 0.26758-0.42008 0.38207-0.45235 1.0311-0.070313 1.4512 1.4957 1.6443 2.4062 3.8272 2.4062 6.2246 0 2.3974-0.91057 4.5804-2.4062 6.2246-0.38204 0.41998-0.34977 1.0691 0.070313 1.4512 0.41998 0.38204 1.0691 0.35162 1.4512-0.068359 1.8265-2.008 2.9414-4.6787 2.9414-7.6074 0-2.9288-1.1149-5.5994-2.9414-7.6074-0.2149-0.23627-0.51464-0.35019-0.81055-0.33594zm-10.391 2.3281c-0.18932 0-0.42353 0.14198-0.51172 0.31836l-0.40039 0.80078c-0.088059 0.17612-0.31981 0.31836-0.51758 0.31836h-0.36133v-0.35938c1e-7 -0.19287-0.16274-0.35938-0.36328-0.35938h-0.71289c-0.20912 0-0.36328 0.16069-0.36328 0.35938v0.35938h-0.7207c-0.4001 0-0.71875 0.32431-0.71875 0.72266v7.1914c0 0.39336 0.3201 0.7207 0.71484 0.7207h11.521c0.39461 0 0.71484-0.32236 0.71484-0.7207v-7.1914c0-0.39336-0.32146-0.72266-0.71875-0.72266h-2.5215c-0.20351 0-0.42939-0.14198-0.51758-0.31836l-0.40039-0.80078c-0.088059-0.17612-0.31661-0.31836-0.51172-0.31836h-3.6113zm1.8047 2.877c1.5895-1e-7 2.8789 1.2894 2.8789 2.8789 0 1.5895-1.2894 2.877-2.8789 2.877-1.5895 0-2.877-1.2875-2.877-2.877 1e-7 -1.5895 1.2875-2.8789 2.877-2.8789zm0 0.71875c-1.1921 0-2.1582 0.96806-2.1582 2.1602 0 1.1921 0.96611 2.1582 2.1582 2.1582 1.1921 0 2.1602-0.96611 2.1602-2.1582 0-1.1921-0.96806-2.1602-2.1602-2.1602zm4.3184 0c0.39736-1e-7 0.71875 0.32334 0.71875 0.7207 0 0.39736-0.32139 0.71875-0.71875 0.71875-0.39737 0-0.7207-0.32139-0.7207-0.71875 0-0.39737 0.32334-0.7207 0.7207-0.7207z"/></g></svg>