<svg width="3600mm" height="2400mm" version="1.1" viewBox="0 0 3600 2400" xml:space="preserve"
    xmlns="http://www.w3.org/2000/svg"><rect width="3600" height="2400" fill="#18181b" stroke-linecap="round" stroke-linejoin="round" stroke-width="16.933"/><g transform="matrix(53.333 0 0 53.333 1160 560)" fill="#fafafa"><defs><style type="text/css">@import url("http://cdnjs.cloudflare.com/ajax/libs/KaTeX/0.2.0/katex.min.css")</style></defs><path d="m15.49 0.0078125a0.29956 0.29956 0 0 0-0.19141 0.14453l-0.10742 0.19336a0.29956 0.29956 0 0 0-0.03125 0.078125l-0.10742 0.45508a0.29956 0.29956 0 0 0-0.0039 0.023438l-0.10938 0.70898a0.29956 0.29956 0 0 0 0 0.011719l-0.10938 0.94727a0.29956 0.29956 0 0 0 0 0.00586l-0.10742 1.1641a0.29956 0.29956 0 0 0 0 0.00391l-0.10938 1.3535a0.29956 0.29956 0 0 0 0 0.00391l-0.10742 1.5137-0.10742 1.6387a0.29956 0.29956 0 0 0 0 0.00195l-0.10742 1.7246-0.10938 1.7715-0.10742 1.7754-0.10742 1.7422-0.10742 1.6641-0.10742 1.5488-0.10742 1.3984-0.10742 1.2148-0.10742 1.002-0.08008 0.58008-0.08008-0.57031-0.10742-0.98243-0.10742-1.1855-0.10742-1.3594-0.10742-1.4961-0.10938-1.5977-0.10742-1.6641-0.10742-1.6875-0.10742-1.6719-0.10742-1.6191a0.29956 0.29956 0 0 0-2e-3 -0.00195l-0.10738-1.5293a0.29956 0.29956 0 0 0 0-0.00195l-0.10742-1.4023a0.29956 0.29956 0 0 0 0-0.00391l-0.10742-1.2461a0.29956 0.29956 0 0 0-2e-3 -0.00586l-0.10738-1.0645a0.29956 0.29956 0 0 0 0-0.00586l-0.10742-0.85938a0.29956 0.29956 0 0 0-2e-3 -0.013672l-0.10933-0.63672a0.29956 0.29956 0 0 0-0.0059-0.027344l-0.10738-0.40234a0.29956 0.29956 0 0 0-0.03906-0.087891l-0.10742-0.16406a0.29956 0.29956 0 0 0-0.42383-0.078125l-0.10742 0.076172a0.29956 0.29956 0 0 0-0.10938 0.14648l-0.10938 0.31055a0.29956 0.29956 0 0 0-0.0098 0.039063l-0.10742 0.5332a0.29956 0.29956 0 0 0-0.0039 0.015625l-0.10739 0.73828a0.29956 0.29956 0 0 0 0 0.00977l-0.10938 0.92383a0.29956 0.29956 0 0 0 0 0.00586l-0.10742 1.084a0.29956 0.29956 0 0 0 0 0.00391l-0.10938 1.2168a0.29956 0.29956 0 0 0 0 0.00195l-0.10742 1.3164a0.29956 0.29956 0 0 0 0 0.00195l-0.10742 1.3848-0.10742 1.418-0.10938 1.418-0.10742 1.3828-0.10742 1.3164-0.10742 1.2207-0.10742 1.0996-0.10742 0.95312-0.10742 0.78516-0.10352 0.60156-0.0078125 0.029297-0.052734-0.23633-0.10547-0.61328-0.10742-0.74414-0.10742-0.85156-0.10742-0.93164-0.10742-0.98828-0.10742-1.0137-0.10742-1.0176a0.29956 0.29956 0 0 0 0-2e-3l-0.10938-0.99214a0.29956 0.29956 0 0 0 0-2e-3l-0.10742-0.94722a0.29956 0.29956 0 0 0 0-2e-3l-0.10742-0.87886a0.29956 0.29956 0 0 0-0.00195-0.0039l-0.10742-0.79102a0.29956 0.29956 0 0 0 0-0.00586l-0.10938-0.6875a0.29956 0.29956 0 0 0 0-0.00977l-0.10938-0.57421a0.29956 0.29956 0 0 0-0.00195-0.013672l-0.10742-0.45117a0.29956 0.29956 0 0 0-0.0078125-0.025391l-0.10742-0.32227a0.29956 0.29956 0 0 0-0.023438-0.050781l-0.10742-0.19141a0.29956 0.29956 0 0 0-0.10938-0.11133l-0.10742-0.064453a0.29956 0.29956 0 0 0-0.29492-0.00391l-0.10938 0.058594a0.29956 0.29956 0 0 0-0.10938 0.10352l-0.10938 0.17188a0.29956 0.29956 0 0 0-0.023437 0.048828l-0.10938 0.27539a0.29956 0.29956 0 0 0-0.0078125 0.023438l-0.10742 0.36328a0.29956 0.29956 0 0 0-0.00391 0.013672l-0.10742 0.43555a0.29956 0.29956 0 0 0-0.00195 0.00781l-0.10742 0.49219a0.29956 0.29956 0 0 0-0.00195 0.00586l-0.10742 0.53125a0.29956 0.29956 0 0 0 0 0.00195l-0.10742 0.55274-0.10938 0.55664-0.10742 0.54102-0.10547 0.51367-0.10742 0.46875-0.10547 0.41602-0.10352 0.34766-0.099609 0.27344-0.089844 0.18945-0.046875 0.066406-0.013672-0.011719-0.082031-0.10742-0.095703-0.15234-0.10352-0.18359-0.10547-0.19922a0.29956 0.29956 0 0 0-0.00195-2e-3l-0.10742-0.19917a0.29956 0.29956 0 0 0-0.00391-0.0078l-0.10937-0.18361a0.29956 0.29956 0 0 0-0.00977-0.01563l-0.10742-0.16015a0.29956 0.29956 0 0 0-0.019531-0.02734l-0.10742-0.12696a0.29956 0.29956 0 0 0-0.041016-0.03906l-0.10742-0.08789a0.29956 0.29956 0 0 0-0.080078-0.04492l-0.10742-0.04297a0.29956 0.29956 0 0 0-0.125-0.01953l-0.10938 0.0059a0.29956 0.29956 0 0 0-0.11914 0.0332l-0.10938 0.05469a0.29956 0.29956 0 0 0-0.068359 0.05078l-0.10938 0.10352a0.29956 0.29956 0 0 0-0.033203 0.03906l-0.10938 0.14844a0.29956 0.29956 0 0 0-0.015625 0.02539l-0.10938 0.1875a0.29956 0.29956 0 0 0-0.00781 0.01758l-0.10938 0.2168a0.29956 0.29956 0 0 0-0.00391 0.0098l-0.10742 0.24023a0.29956 0.29956 0 0 0-0.00195 0.0059l-0.10938 0.25195-0.10547 0.25-0.10547 0.23242-0.099609 0.20312-0.091797 0.1582-0.046875 0.05859-0.08008-0.15246-0.097656-0.24805-0.10352-0.33008-0.10547-0.40039-0.10547-0.46484-0.10742-0.51172-0.10742-0.55078-0.10742-0.57226-0.10742-0.58008a0.29956 0.29956 0 0 0 0-2e-3l-0.10742-0.57027a0.29956 0.29956 0 0 0 0-0.00195l-0.10938-0.54297a0.29956 0.29956 0 0 0 0-0.00391l-0.10742-0.50195a0.29956 0.29956 0 0 0-0.001953-0.00781l-0.10742-0.43946a0.29956 0.29956 0 0 0-0.003906-0.013672l-0.10938-0.36719a0.29956 0.29956 0 0 0-0.005859-0.023437l-0.10938-0.28125a0.29956 0.29956 0 0 0-0.021485-0.044922l-0.10742-0.18164a0.29956 0.29956 0 0 0-0.085938-0.09375l-0.10742-0.076172a0.29956 0.29956 0 0 0-0.26953-0.037109l-0.10742 0.037109a0.29956 0.29956 0 0 0-0.14844 0.10938l-0.10742 0.1543a0.29956 0.29956 0 0 0-0.033203 0.060547l-0.10742 0.26953a0.29956 0.29956 0 0 0-0.011719 0.03125l-0.10742 0.38281a0.29956 0.29956 0 0 0-0.00391 0.017578l-0.10742 0.49023a0.29956 0.29956 0 0 0-0.00195 0.00977l-0.10742 0.58984a0.29956 0.29956 0 0 0-0.00195 0.00781l-0.10742 0.67578a0.29956 0.29956 0 0 0-0.00195 0.00391l-0.10742 0.74804a0.29956 0.29956 0 0 0 0 2e-3l-0.10742 0.80274a0.29956 0.29956 0 0 0 0 2e-3l-0.10938 0.83984-0.10742 0.85547-0.10742 0.85156-0.10742 0.82226-0.10742 0.77725-0.10742 0.70703-0.10547 0.61914-0.10547 0.51172-0.085937 0.32226-0.085937-0.33789-0.10547-0.53906-0.10547-0.6582-0.10742-0.76172-0.10742-0.8457-0.10742-0.91016-0.10742-0.95508-0.10938-0.97266-0.10742-0.96875-0.10742-0.94141a0.29956 0.29956 0 0 0 0-0.00195l-0.10742-0.89062a0.29956 0.29956 0 0 0-0.00195-0.00391l-0.10742-0.81836a0.29956 0.29956 0 0 0 0-0.00586l-0.10742-0.72852a0.29956 0.29956 0 0 0-0.0019531-0.0078125l-0.10742-0.62109a0.29956 0.29956 0 0 0-0.00195-0.011719l-0.10938-0.5a0.29956 0.29956 0 0 0-0.00391-0.021484l-0.10938-0.36328a0.29956 0.29956 0 0 0-0.017578-0.046875l-0.10742-0.22266a0.29956 0.29956 0 0 0-0.095703-0.11328l-0.10938-0.076172a0.29956 0.29956 0 0 0-0.33789-0.00586l-0.10742 0.070312a0.29956 0.29956 0 0 0-0.10352 0.11719l-0.10742 0.2168a0.29956 0.29956 0 0 0-0.017578 0.044922l-0.10938 0.35547a0.29956 0.29956 0 0 0-0.00391 0.021484l-0.10938 0.48438a0.29956 0.29956 0 0 0-0.00195 0.011719l-0.10742 0.59961a0.29956 0.29956 0 0 0-0.00195 0.00781l-0.10742 0.70117a0.29956 0.29956 0 0 0 0 0.00391l-0.10938 0.78516a0.29956 0.29956 0 0 0 0 0.00195l-0.10742 0.84766a0.29956 0.29956 0 0 0 0 0.00195l-0.10742 0.88867a0.29956 0.29956 0 0 0 0 2e-3l-0.10938 0.91016-0.10742 0.9082-0.10742 0.88672-0.10742 0.83984-0.10742 0.77539-0.10742 0.69531-0.10547 0.5957-0.10547 0.48047-0.089844 0.31836-0.083984-0.27344-0.10547-0.43164-0.10547-0.51953-0.10742-0.5918-0.10742-0.64648-0.10742-0.67969-0.10742-0.69922-0.10742-0.69531a0.29956 0.29956 0 0 0 0-2e-3l-0.10938-0.67773a0.29956 0.29956 0 0 0 0-2e-3l-0.10742-0.64258a0.29956 0.29956 0 0 0 0-0.0039l-0.10938-0.59375a0.29956 0.29956 0 0 0 0-0.0078l-0.10742-0.53122a0.29956 0.29956 0 0 0-0.00195-0.00977l-0.10938-0.45898a0.29956 0.29956 0 0 0-0.00195-0.013672l-0.10938-0.37891a0.29956 0.29956 0 0 0-0.00586-0.021484l-0.10938-0.29102a0.29956 0.29956 0 0 0-0.015625-0.037109l-0.10743-0.20312a0.29956 0.29956 0 0 0-0.048828-0.066406l-0.10938-0.11133a0.29956 0.29956 0 0 0-0.1543-0.085938l-0.10742-0.021484a0.29956 0.29956 0 0 0-0.21094 0.035156l-0.10742 0.060547a0.29956 0.29956 0 0 0-0.087891 0.078125l-0.10742 0.14258a0.29956 0.29956 0 0 0-0.029297 0.044922l-0.10742 0.21289a0.29956 0.29956 0 0 0-0.011719 0.025391l-0.10938 0.27148a0.29956 0.29956 0 0 0-0.00391 0.015625l-0.10938 0.32422a0.29956 0.29956 0 0 0-0.00195 0.00781l-0.10742 0.36328a0.29956 0.29956 0 0 0-2e-3 0.00391l-0.10742 0.38867a0.29956 0.29956 0 0 0-2e-3 2e-3l-0.21484 0.80469-0.10742 0.39062-0.10547 0.36914-0.10547 0.33594-0.10352 0.29492-0.10156 0.24609-0.0957 0.18945-0.08203 0.12695-0.06055 0.06445-0.01758 0.0098-0.04492-0.02734-0.07617-0.06836-0.08984-0.10156-0.09961-0.12891-0.10547-0.14258-0.10742-0.14844a0.29956 0.29956 0 0 0-0.0039-0.0039l-0.10734-0.14267a0.29956 0.29956 0 0 0-0.0078-0.01172l-0.10938-0.12891a0.29956 0.29956 0 0 0-0.01563-0.01758l-0.10742-0.10938a0.29956 0.29956 0 0 0-0.02734-0.02344l-0.10742-0.08594a0.29956 0.29956 0 0 0-0.04297-0.0293l-0.10938-0.05859a0.29956 0.29956 0 0 0-0.06445-0.02539l-0.10742-0.0293a0.29956 0.29956 0 0 0-0.08008-0.01172l-0.10742 2e-3a0.29956 0.29956 0 0 0-0.08008 0.0098l-0.10742 0.03125a0.29956 0.29956 0 0 0-0.06055 0.02539l-0.10742 0.05664a0.29956 0.29956 0 0 0-0.04102 0.02734l-0.10742 0.08203a0.29956 0.29956 0 0 0-0.02539 0.02148l-0.10742 0.10156a0.29956 0.29956 0 0 0-0.01367 0.01367l-0.10742 0.11719a0.29956 0.29956 0 0 0-0.0078 0.0078l-0.10742 0.125a0.29956 0.29956 0 0 0-2e-3 2e-3l-0.10547 0.125-0.10156 0.11523-0.0918 0.0957-0.08203 0.07031-0.0625 0.04102-0.03516 0.01172-0.01367 2e-3 -0.01563-0.0059-0.04492-0.02734-0.06836-0.07031-0.08594-0.11524-0.0957-0.1582-0.09961-0.19726-0.10348-0.22862-0.10547-0.25195-0.10547-0.26953-0.10742-0.27539a0.29956 0.29956 0 0 0-2e-3 -2e-3l-0.10742-0.27344a0.29956 0.29956 0 0 0-2e-3 -0.0039l-0.10742-0.26367a0.29956 0.29956 0 0 0-2e-3 -0.0078l-0.10938-0.24609a0.29956 0.29956 0 0 0-0.0059-0.01172l-0.10742-0.2168a0.29956 0.29956 0 0 0-0.0098-0.01953l-0.10742-0.18359a0.29956 0.29956 0 0 0-0.01953-0.027344l-0.10742-0.14258a0.29956 0.29956 0 0 0-0.03906-0.042969l-0.10742-0.097656a0.29956 0.29956 0 0 0-0.08008-0.050781l-0.10742-0.046875a0.29956 0.29956 0 0 0-0.13281-0.025391l-0.10742 0.00391a0.29956 0.29956 0 0 0-0.13086 0.035156l-0.10742 0.058594a0.29956 0.29956 0 0 0-0.07227 0.054687l-0.10742 0.10938a0.29956 0.29956 0 0 0-0.03516 0.042969l-0.10742 0.16016a0.29956 0.29956 0 0 0-0.01758 0.0293l-0.10742 0.20703a0.29956 0.29956 0 0 0-0.0098 0.01953l-0.10742 0.24805a0.29956 0.29956 0 0 0-0.0059 0.01172l-0.10742 0.2832a0.29956 0.29956 0 0 0-2e-3 0.0098l-0.10903 0.31053a0.29956 0.29956 0 0 0-2e-3 0.0059l-0.10742 0.33008a0.29956 0.29956 0 0 0 0 2e-3l-0.10742 0.33984-0.10938 0.33984-0.10547 0.33008-0.10547 0.31055-0.10547 0.2793-0.10156 0.24219-0.09766 0.19531-0.08594 0.13867-0.06641 0.07617-0.0078 0.0039-0.02148-0.01563-0.07227-0.08203-0.0918-0.13477-0.09766-0.17578-0.10156-0.20703-0.10547-0.22656-0.10742-0.24023-0.10742-0.24024a0.29956 0.29956 0 0 0-2e-3 -0.0039l-0.10938-0.23047a0.29956 0.29956 0 0 0-0.0039-0.0098l-0.10742-0.21289a0.29956 0.29956 0 0 0-0.0059-0.01367l-0.10938-0.18945a0.29956 0.29956 0 0 0-0.01172-0.01953l-0.10742-0.16016a0.29956 0.29956 0 0 0-0.02148-0.02734l-0.10742-0.12695a0.29956 0.29956 0 0 0-0.03711-0.03516l-0.10742-0.08984a0.29956 0.29956 0 0 0-0.06641-0.03906l-0.10742-0.05078a0.29956 0.29956 0 0 0-0.09375-0.02539l-0.10924-0.011777a0.29956 0.29956 0 0 0-0.09766 0.0078l-0.10938 0.02539a0.29956 0.29956 0 0 0-0.07422 0.02734l-0.10742 0.06055a0.29956 0.29956 0 0 0-0.04492 0.0293l-0.10742 0.08594a0.29956 0.29956 0 0 0-0.02539 0.02344l-0.10742 0.10742a0.29956 0.29956 0 0 0-0.01172 0.01367l-0.10742 0.12305a0.29956 0.29956 0 0 0-0.0059 0.0059l-0.10547 0.12695-0.10352 0.11914-0.0918 0.09766-0.07617 0.06641-0.04883 0.0293-0.0059 2e-3 -0.01563-0.0078-0.06055-0.06055-0.08203-0.12305-0.0957-0.18555-0.09961-0.23828-0.10352-0.28516-0.10547-0.32031-0.10742-0.3457-0.10742-0.35938a0.29953 0.29953 0 0 0-0.37109-0.20312 0.29953 0.29953 0 0 0-0.20312 0.37305l0.10938 0.36133a0.29956 0.29956 0 0 0 0 2e-3l0.10742 0.35156a0.29956 0.29956 0 0 0 2e-3 0.0039l0.10742 0.32812a0.29956 0.29956 0 0 0 0.0039 0.0098l0.10742 0.29492a0.29956 0.29956 0 0 0 0.0059 0.01367l0.10742 0.25586a0.29956 0.29956 0 0 0 0.0098 0.02148l0.10742 0.20898a0.29956 0.29956 0 0 0 0.01758 0.03125l0.10742 0.16016a0.29956 0.29956 0 0 0 0.03516 0.04297l0.10742 0.11133a0.29956 0.29956 0 0 0 0.06836 0.05078l0.10742 0.06055a0.29956 0.29956 0 0 0 0.10938 0.03711l0.10742 0.01367a0.29956 0.29956 0 0 0 0.11523-0.0078l0.10742-0.0293a0.29956 0.29956 0 0 0 0.07813-0.03125l0.10742-0.06445a0.29956 0.29956 0 0 0 0.04102-0.03125l0.10938-0.09375a0.29956 0.29956 0 0 0 0.02148-0.02149l0.10742-0.11328a0.29956 0.29956 0 0 0 0.0098-0.01172l0.10742-0.125a0.29956 0.29956 0 0 0 2e-3 -2e-3l0.10547-0.12695 0.09961-0.11328 0.08984-0.08984 0.07422-0.06055 0.04883-0.02539 0.01953-0.0059 0.0078 2e-3 0.02734 0.01172 0.05859 0.04687 0.08008 0.09375 0.0918 0.13477 0.09766 0.17383 0.10156 0.20312 0.10547 0.22656 0.10742 0.23633 0.10742 0.24219a0.29956 0.29956 0 0 0 2e-3 2e-3l0.10742 0.23438a0.29956 0.29956 0 0 0 0.0039 0.0078l0.10742 0.2168a0.29956 0.29956 0 0 0 0.0078 0.01172l0.10742 0.19336a0.29956 0.29956 0 0 0 0.01172 0.02148l0.10938 0.16016a0.29956 0.29956 0 0 0 0.02344 0.03125l0.10742 0.12305a0.29956 0.29956 0 0 0 0.04883 0.04297l0.10742 0.07813a0.29956 0.29956 0 0 0 0.0957 0.04687l0.10742 0.0293a0.29956 0.29956 0 0 0 0.13672 0.0059l0.10742-0.01953a0.29956 0.29956 0 0 0 0.11133-0.04492l0.10742-0.07227a0.29956 0.29956 0 0 0 0.05859-0.05273l0.10938-0.12305a0.29956 0.29956 0 0 0 0.02734-0.03711l0.10742-0.17188a0.29956 0.29956 0 0 0 0.01563-0.02734l0.10742-0.2168a0.29956 0.29956 0 0 0 0.0078-0.01758l0.10742-0.25586a0.29956 0.29956 0 0 0 0.0059-0.01172l0.10742-0.28906a0.29956 0.29956 0 0 0 2e-3 -0.0078l0.10742-0.31641a0.29956 0.29956 0 0 0 2e-3 -0.0039l0.10742-0.33398a0.29956 0.29956 0 0 0 2e-3 -2e-3l0.21484-0.67969 0.10742-0.32617 0.10547-0.30469 0.10352-0.27148 0.09961-0.23242 0.0957-0.18359 0.08398-0.125 0.04687-0.04687 0.03711 0.0332 0.08008 0.10742 0.09375 0.1582 0.09961 0.20117 0.10352 0.23633 0.10547 0.25781 0.10742 0.27148 0.10742 0.27734a0.29956 0.29956 0 0 0 0 2e-3l0.10938 0.27148a0.29956 0.29956 0 0 0 2e-3 0.0059l0.10742 0.25781a0.29956 0.29956 0 0 0 0.0039 0.0078l0.10742 0.23828a0.29956 0.29956 0 0 0 0.0059 0.01367l0.10742 0.21094a0.29956 0.29956 0 0 0 0.0098 0.01758l0.10742 0.18164a0.29956 0.29956 0 0 0 0.01758 0.02539l0.10742 0.14453a0.29956 0.29956 0 0 0 0.0293 0.0332l0.10742 0.10742a0.29956 0.29956 0 0 0 0.05078 0.04101l0.10742 0.06836a0.29956 0.29956 0 0 0 0.08008 0.03711l0.10742 0.03125a0.29956 0.29956 0 0 0 0.09766 0.0098l0.10938-0.0059a0.29956 0.29956 0 0 0 0.08594-0.01758l0.10742-0.03906a0.29956 0.29956 0 0 0 0.05859-0.0293l0.10742-0.06836a0.29956 0.29956 0 0 0 0.03516-0.02539l0.10742-0.09375a0.29956 0.29956 0 0 0 0.01953-0.01758l0.10742-0.11133a0.29956 0.29956 0 0 0 0.0098-0.0098l0.10742-0.12305a0.29956 0.29956 0 0 0 0.0039-0.0039l0.10742-0.12695 0.10352-0.12109 0.09766-0.10547 0.08984-0.08398 0.07617-0.05859 0.05664-0.03125 0.03906-0.01172h0.02539l0.03516 0.0098 0.05273 0.0293 0.07422 0.05859 0.08594 0.08789 0.0957 0.11328 0.10156 0.13476 0.10547 0.14648a0.29956 0.29956 0 0 0 2e-3 0l0.10742 0.14648a0.29956 0.29956 0 0 0 0.0059 0.0078l0.10742 0.13867a0.29956 0.29956 0 0 0 0.01172 0.01367l0.10742 0.12305a0.29956 0.29956 0 0 0 0.02344 0.02344l0.10938 0.09766a0.29956 0.29956 0 0 0 0.04492 0.0332l0.10742 0.06641a0.29956 0.29956 0 0 0 0.08203 0.0332l0.10742 0.02734a0.29956 0.29956 0 0 0 0.11719 0.0059l0.10742-0.01563a0.29956 0.29956 0 0 0 0.10938-0.03711l0.10742-0.06445a0.29956 0.29956 0 0 0 0.06641-0.05078l0.10742-0.11524a0.29956 0.29956 0 0 0 0.0332-0.04101l0.10689-0.1663a0.29956 0.29956 0 0 0 0.01758-0.0293l0.10742-0.21484a0.29956 0.29956 0 0 0 0.0098-0.02148l0.10742-0.26367a0.29956 0.29956 0 0 0 0.0059-0.01367l0.10742-0.30664a0.29956 0.29956 0 0 0 0.0039-0.0098l0.10742-0.34375a0.29956 0.29956 0 0 0 2e-3 -0.0078l0.10742-0.37305a0.29956 0.29956 0 0 0 0.00195-0.0039l0.10742-0.39258a0.29956 0.29956 0 0 0 0-2e-3l0.10742-0.4043 0.10742-0.40039 0.10742-0.38281 0.10547-0.35547 0.10352-0.31055 0.099609-0.25195 0.070312-0.13477 0.029297 0.054687 0.097656 0.26172 0.10352 0.36133 0.10352 0.44727 0.10742 0.52539 0.10742 0.58789 0.10742 0.64062 0.10742 0.67578 0.10742 0.69531 0.10742 0.69922 0.10742 0.68359a0.29956 0.29956 0 0 0 0 2e-3l0.10938 0.64844a0.29956 0.29956 0 0 0 0 0.0039l0.10742 0.59766a0.29956 0.29956 0 0 0 0.00195 0.0059l0.10742 0.5293a0.29956 0.29956 0 0 0 0.00195 0.01172l0.10938 0.44531a0.29956 0.29956 0 0 0 0.00391 0.01758l0.10742 0.34961a0.29956 0.29956 0 0 0 0.013672 0.0332l0.10742 0.24024a0.29956 0.29956 0 0 0 0.048828 0.07617l0.10742 0.12305a0.29956 0.29956 0 0 0 0.22852 0.10156l0.10742-2e-3a0.29956 0.29956 0 0 0 0.22656-0.10547l0.10742-0.12891a0.29956 0.29956 0 0 0 0.046875-0.07617l0.10742-0.25586a0.29956 0.29956 0 0 0 0.011719-0.0332l0.10938-0.37891a0.29956 0.29956 0 0 0 0.00391-0.01953l0.10742-0.49609a0.29956 0.29956 0 0 0 0.00195-0.01172l0.10938-0.60352a0.29956 0.29956 0 0 0 0-0.0078l0.10742-0.69922a0.29956 0.29956 0 0 0 0.00195-0.0039l0.10742-0.78125a0.29956 0.29956 0 0 0 0-2e-3l0.10742-0.84375a0.29956 0.29956 0 0 0 0.00195-2e-3l0.10742-0.88672 0.21484-1.8203 0.10742-0.88867 0.10742-0.84375 0.10742-0.78125 0.10742-0.69336 0.10547-0.5918 0.10547-0.46484 0.03125-0.10156 0.035156 0.12109 0.10352 0.48242 0.10547 0.61133 0.10742 0.72266 0.10742 0.81641 0.10742 0.88867 0.10742 0.93945 0.10937 0.9668 0.10742 0.97266a0.29956 0.29956 0 0 0 0 2e-3l0.10742 0.95312a0.29956 0.29956 0 0 0 0 2e-3l0.10742 0.91406a0.29956 0.29956 0 0 0 0.00195 2e-3l0.10742 0.84961a0.29956 0.29956 0 0 0 0 0.0039l0.10742 0.76758a0.29956 0.29956 0 0 0 0.00195 0.0059l0.10742 0.66602a0.29956 0.29956 0 0 0 0.00195 0.0098l0.10742 0.55078a0.29956 0.29956 0 0 0 0.00391 0.01563l0.10742 0.42383a0.29956 0.29956 0 0 0 0.00977 0.03125l0.10742 0.28516a0.29956 0.29956 0 0 0 0.041016 0.07422l0.10938 0.14453a0.29956 0.29956 0 0 0 0.24023 0.11914l0.10742-2e-3a0.29956 0.29956 0 0 0 0.23828-0.11914l0.10742-0.14258a0.29956 0.29956 0 0 0 0.041016-0.07227l0.10742-0.2793a0.29956 0.29956 0 0 0 0.00977-0.03125l0.10742-0.4082a0.29956 0.29956 0 0 0 0.00391-0.01758l0.10742-0.52344a0.29956 0.29956 0 0 0 0.00195-0.0098l0.10938-0.62695a0.29956 0.29956 0 0 0 0-0.0059l0.10742-0.71289a0.29956 0.29956 0 0 0 0.00195-0.0039l0.10742-0.7793a0.29956 0.29956 0 0 0 0-2e-3l0.10742-0.82617 0.10742-0.85156 0.10938-0.85547 0.10742-0.83789 0.10742-0.80078 0.10742-0.74414 0.10742-0.66992 0.10547-0.58203 0.10547-0.47656 0.099609-0.35938 0.025391-0.064453 0.054688 0.14258 0.10156 0.34961 0.10547 0.42969 0.10742 0.49414 0.10742 0.53906 0.10742 0.56836 0.10742 0.58008 0.10742 0.57422a0.29956 0.29956 0 0 0 0 2e-3l0.10937 0.55273a0.29956 0.29956 0 0 0 0 0.0039l0.10742 0.51758a0.29956 0.29956 0 0 0 0.001953 0.0059l0.10742 0.4707a0.29956 0.29956 0 0 0 0.001953 0.0098l0.10742 0.41211a0.29956 0.29956 0 0 0 0.003906 0.01367l0.10938 0.3457a0.29956 0.29956 0 0 0 0.00586 0.02148l0.10742 0.27539a0.29956 0.29956 0 0 0 0.015625 0.03125l0.10742 0.20117a0.29956 0.29956 0 0 0 0.039063 0.05469l0.10742 0.12305a0.29956 0.29956 0 0 0 0.097656 0.07617l0.10938 0.05078a0.29956 0.29956 0 0 0 0.17969 0.02344l0.10742-0.01953a0.29956 0.29956 0 0 0 0.12891-0.05664l0.10742-0.08399a0.29956 0.29956 0 0 0 0.054687-0.05273l0.10742-0.13672a0.29956 0.29956 0 0 0 0.023437-0.0332l0.10742-0.18359a0.29956 0.29956 0 0 0 0.00977-0.01953l0.10731-0.21686a0.29956 0.29956 0 0 0 0.00586-0.01172l0.10742-0.24024a0.29956 0.29956 0 0 0 0.00195-0.0039l0.10742-0.25391 0.10742-0.24805 0.10547-0.23242 0.099609-0.20508 0.095703-0.16406 0.082031-0.11328 0.058594-0.05469 0.044922 0.03516 0.078125 0.09375 0.09375 0.13867 0.10156 0.17188 0.10352 0.19336 0.10742 0.20117a0.29956 0.29956 0 0 0 0.00391 0.0039l0.10742 0.19336a0.29956 0.29956 0 0 0 0.00781 0.01172l0.10742 0.17188a0.29956 0.29956 0 0 0 0.017578 0.02539l0.10742 0.13867a0.29956 0.29956 0 0 0 0.037109 0.04101l0.10742 0.09766a0.29956 0.29956 0 0 0 0.083984 0.05273l0.10938 0.04492a0.29956 0.29956 0 0 0 0.15625 0.02148l0.10938-0.01563a0.29956 0.29956 0 0 0 0.13867-0.05859l0.10742-0.08203a0.29956 0.29956 0 0 0 0.0625-0.06641l0.10938-0.15234a0.29956 0.29956 0 0 0 0.025391-0.04297l0.10742-0.22461a0.29956 0.29956 0 0 0 0.011719-0.02734l0.10742-0.29492a0.29956 0.29956 0 0 0 0.00586-0.01758l0.10742-0.36328a0.29956 0.29956 0 0 0 0.00391-0.01172l0.10742-0.42383a0.29956 0.29956 0 0 0 0.00195-0.0078l0.10742-0.47656a0.29956 0.29956 0 0 0 0.00195-0.0039l0.10742-0.51758a0.29956 0.29956 0 0 0 0-2e-3l0.10742-0.54492a0.29956 0.29956 0 0 0 0.00195-2e-3l0.10743-0.55655 0.10742-0.55078 0.10742-0.52734 0.10547-0.48633 0.10547-0.42578 0.10156-0.34375 0.03125-0.078125 0.044922 0.13477 0.10352 0.42969 0.10547 0.5625 0.10547 0.68164 0.10742 0.78711 0.10742 0.875 0.10742 0.94336 0.10938 0.99219 0.10742 1.0176 0.10742 1.0156 0.10742 0.98828a0.29956 0.29956 0 0 0 0 2e-3l0.10938 0.93555a0.29956 0.29956 0 0 0 0 2e-3l0.10742 0.85547a0.29956 0.29956 0 0 0 0 0.0059l0.10938 0.75195a0.29956 0.29956 0 0 0 0 0.0078l0.10742 0.625a0.29956 0.29956 0 0 0 0.00391 0.01563l0.10742 0.47852a0.29956 0.29956 0 0 0 0.00977 0.03125l0.10742 0.31445a0.29956 0.29956 0 0 0 0.046875 0.08789l0.10938 0.13867a0.29956 0.29956 0 0 0 0.35742 0.08789l0.10938-0.04883a0.29956 0.29956 0 0 0 0.14844-0.15039l0.10938-0.24023a0.29956 0.29956 0 0 0 0.017578-0.05078l0.10742-0.43164a0.29956 0.29956 0 0 0 0.00391-0.01953l0.10741-0.61927a0.29956 0.29956 0 0 0 0.00195-0.01172l0.10742-0.79492a0.29956 0.29956 0 0 0 0.0019531-0.005859l0.10742-0.95898a0.29956 0.29956 0 0 0 0-0.0039l0.10742-1.1035a0.29956 0.29956 0 0 0 0-2e-3l0.10937-1.2246a0.29956 0.29956 0 0 0 0-2e-3l0.10742-1.3184 0.10742-1.3848 0.10742-1.418 0.10938-1.418 0.10742-1.3828 0.10742-1.3164 0.10742-1.2129 0.10742-1.0801 0.10742-0.91797 0.10547-0.72852 0.0059-0.025391 0.05078 0.30078 0.10547 0.84961 0.10742 1.0586 0.10742 1.2441 0.10742 1.4004 0.10742 1.5273 0.10938 1.6191 0.10742 1.6719 0.10742 1.6875 0.10742 1.6641 0.10938 1.5996a0.29956 0.29956 0 0 0 0 2e-3l0.10738 1.4981a0.29956 0.29956 0 0 0 0 2e-3l0.10742 1.3613a0.29956 0.29956 0 0 0 0 2e-3l0.10742 1.1914a0.29956 0.29956 0 0 0 2e-3 0.0039l0.10742 0.99219a0.29956 0.29956 0 0 0 2e-3 0.0078l0.10742 0.76758a0.29956 0.29956 0 0 0 2e-3 0.01758l0.10938 0.52344a0.29956 0.29956 0 0 0 0.01563 0.05273l0.10742 0.26562a0.29956 0.29956 0 0 0 0.27539 0.18555l0.10728 0.00188a0.29956 0.29956 0 0 0 0.2793-0.1875l0.10938-0.26367a0.29956 0.29956 0 0 0 0.01563-0.05273l0.10742-0.52734a0.29956 0.29956 0 0 0 0.0039-0.01758l0.10742-0.77734a0.29956 0.29956 0 0 0 0-0.0078l0.10938-1.0098a0.29956 0.29956 0 0 0 0-0.0059l0.10742-1.2188a0.29956 0.29956 0 0 0 0-0.0039l0.10938-1.4004a0.29956 0.29956 0 0 0 0-2e-3l0.10742-1.5508a0.29956 0.29956 0 0 0 0-2e-3l0.10742-1.666 0.10742-1.7422 0.10938-1.7773 0.10742-1.7695 0.10742-1.7246 0.10742-1.6367 0.10742-1.5117 0.10742-1.3496 0.10742-1.1602 0.10742-0.9375 0.05469-0.35156 0.10547 0.81836 0.10742 1.041 0.10742 1.2363 0.10742 1.4004 0.10742 1.5293 0.10938 1.623 0.10742 1.6777 0.10742 1.6914 0.10742 1.668 0.10742 1.6055a0.29956 0.29956 0 0 0 0 2e-3l0.10938 1.5059a0.29956 0.29956 0 0 0 0 2e-3l0.10742 1.373a0.29956 0.29956 0 0 0 0 2e-3l0.10742 1.2109a0.29956 0.29956 0 0 0 2e-3 0.0059l0.10742 1.0195a0.29956 0.29956 0 0 0 0 0.0098l0.10742 0.81055a0.29956 0.29956 0 0 0 0.0039 0.01367l0.10742 0.58594a0.29956 0.29956 0 0 0 0.0078 0.0332l0.10742 0.34961a0.29956 0.29956 0 0 0 0.07617 0.12305l0.10742 0.10742a0.29956 0.29956 0 0 0 0.44336-0.02344l0.10938-0.13281a0.29956 0.29956 0 0 0 0.05273-0.10547l0.10938-0.36719a0.29956 0.29956 0 0 0 0.0059-0.0293l0.10938-0.58789a0.29956 0.29956 0 0 0 2e-3 -0.01367l0.10742-0.79297a0.29956 0.29956 0 0 0 0-0.0078l0.10938-0.97461a0.29956 0.29956 0 0 0 0-0.0059l0.10742-1.1328a0.29956 0.29956 0 0 0 0-2e-3l0.10742-1.2598a0.29956 0.29956 0 0 0 2e-3 -2e-3l0.10742-1.3574a0.29956 0.29956 0 0 0 0-2e-3l0.10742-1.4199 0.10742-1.4512 0.10742-1.4434 0.10938-1.4062 0.10742-1.3359 0.10742-1.2344 0.10742-1.1074 0.10742-0.95703 0.10547-0.78516 0.09766-0.55078 0.06641 0.32227 0.10742 0.66602 0.10742 0.80469 0.10742 0.91797 0.10742 1.0039 0.10742 1.0664 0.10742 1.0977 0.10742 1.1074 0.10938 1.0859 0.10742 1.041a0.29956 0.29956 0 0 0 0 2e-3l0.10742 0.97461a0.29956 0.29956 0 0 0 0 2e-3l0.10938 0.88477a0.29956 0.29956 0 0 0 0 0.0039l0.10742 0.7793a0.29956 0.29956 0 0 0 2e-3 0.0078l0.10742 0.65625a0.29956 0.29956 0 0 0 2e-3 0.01172l0.10742 0.52539a0.29956 0.29956 0 0 0 0.0059 0.02148l0.10742 0.38477a0.29956 0.29956 0 0 0 0.01563 0.04102l0.10742 0.24219a0.29956 0.29956 0 0 0 0.07031 0.09961l0.10742 0.09961a0.29956 0.29956 0 0 0 0.30859 0.06055l0.10742-0.04102a0.29956 0.29956 0 0 0 0.15039-0.12305l0.10712-0.17383a0.29956 0.29956 0 0 0 0.02734-0.05469l0.10742-0.29688a0.29956 0.29956 0 0 0 0.0078-0.02539l0.10742-0.4082a0.29956 0.29956 0 0 0 0.0039-0.01367l0.10742-0.50391a0.29956 0.29956 0 0 0 2e-3 -0.0078l0.1074-0.584a0.29956 0.29956 0 0 0 2e-3 -0.0059l0.10742-0.64453a0.29956 0.29956 0 0 0 0-0.0039l0.10742-0.68945a0.29956 0.29956 0 0 0 2e-3 0l0.10742-0.71484 0.10742-0.71875 0.10742-0.70508 0.10742-0.67383 0.10742-0.63086 0.10742-0.56836 0.10547-0.5 0.10352-0.41602 0.10156-0.32422 0.0918-0.2207 0.0078-0.011719 0.0078 0.00977 0.09375 0.18359 0.09961 0.24609 0.10352 0.29492 0.10742 0.33008 0.10547 0.34961 0.10938 0.35742 0.10742 0.35547a0.29956 0.29956 0 0 0 2e-3 2e-3l0.10742 0.33984a0.29956 0.29956 0 0 0 2e-3 0.0059l0.10742 0.31641a0.29956 0.29956 0 0 0 0.0039 0.0078l0.10742 0.28516a0.29956 0.29956 0 0 0 0.0059 0.01367l0.10742 0.24805a0.29956 0.29956 0 0 0 0.0098 0.01953l0.10742 0.20703a0.29956 0.29956 0 0 0 0.01563 0.02539l0.10742 0.16406a0.29956 0.29956 0 0 0 0.0293 0.03516l0.10742 0.11914a0.29956 0.29956 0 0 0 0.05273 0.04492l0.10742 0.07227a0.29956 0.29956 0 0 0 0.08789 0.04102l0.10742 0.0293a0.29956 0.29956 0 0 0 0.10352 0.01172l0.10742-0.0078a0.29956 0.29956 0 0 0 0.08789-0.02149l0.10742-0.04101a0.29956 0.29956 0 0 0 0.05664-0.0293l0.10742-0.07227a0.29956 0.29956 0 0 0 0.03125-0.02344l0.10742-0.09375a0.29956 0.29956 0 0 0 0.01563-0.01563l0.10938-0.10742a0.29956 0.29956 0 0 0 0.0078-0.0078l0.10742-0.11719a0.29956 0.29956 0 0 0 0-2e-3l0.10547-0.11719 0.10156-0.10547 0.0918-0.08789 0.08398-0.06641 0.06641-0.04102 0.05078-0.01758 0.03711-0.0059 0.03516 0.0039 0.04687 0.01758 0.06641 0.03906 0.08008 0.06641 0.08984 0.08984 0.09961 0.10938 0.10352 0.12305 0.10547 0.13086a0.29956 0.29956 0 0 0 2e-3 0.0039l0.1091 0.12895a0.29956 0.29956 0 0 0 0.0078 0.0078l0.10742 0.12109a0.29956 0.29956 0 0 0 0.01367 0.01367l0.10742 0.10352a0.29956 0.29956 0 0 0 0.02539 0.02344l0.10938 0.08203a0.29956 0.29956 0 0 0 0.04297 0.02734l0.10742 0.05664a0.29956 0.29956 0 0 0 0.07031 0.02539l0.10742 0.02734a0.29956 0.29956 0 0 0 0.0918 0.0059l0.10742-0.0078a0.29956 0.29956 0 0 0 0.0918-0.02148l0.10938-0.04492a0.29956 0.29956 0 0 0 0.06641-0.03906l0.10742-0.08203a0.29956 0.29956 0 0 0 0.04102-0.03711l0.10742-0.11914a0.29956 0.29956 0 0 0 0.02344-0.0293l0.10938-0.15625a0.29956 0.29956 0 0 0 0.01367-0.02148l0.10742-0.18945a0.29956 0.29956 0 0 0 0.0078-0.01563l0.10742-0.21875a0.29956 0.29956 0 0 0 0.0059-0.0098l0.1074-0.24414a0.29956 0.29956 0 0 0 0.0039-0.0059l0.10742-0.26172a0.29956 0.29956 0 0 0 2e-3 -0.0039l0.10742-0.27344a0.29956 0.29956 0 0 0 2e-3 -2e-3l0.10742-0.27734 0.10547-0.27344 0.10742-0.25976 0.10352-0.23633 0.09961-0.20508 0.0957-0.16602 0.08203-0.11328 0.05273-0.05078 0.0332 0.0332 0.08008 0.11133 0.09375 0.17383 0.09961 0.22656 0.10352 0.27148 0.10547 0.30859 0.10547 0.33789 0.10742 0.35742 0.10742 0.36719 0.10742 0.36914a0.29956 0.29956 0 0 0 0 2e-3l0.10742 0.35938a0.29956 0.29956 0 0 0 2e-3 0.0039l0.10742 0.3418a0.29956 0.29956 0 0 0 0.0039 0.0078l0.10742 0.31445a0.29956 0.29956 0 0 0 0.0039 0.0098l0.10742 0.2793a0.29956 0.29956 0 0 0 0.0059 0.01563l0.10938 0.23828a0.29956 0.29956 0 0 0 0.01172 0.02539l0.10742 0.18945a0.29956 0.29956 0 0 0 0.02539 0.03711l0.10742 0.13867a0.29956 0.29956 0 0 0 0.05469 0.05273l0.10742 0.08203a0.29956 0.29956 0 0 0 0.11719 0.05469l0.10742 0.02344a0.29956 0.29956 0 0 0 0.15625-0.0059l0.10742-0.03516a0.29956 0.29956 0 0 0 0.10352-0.05859l0.10938-0.0918a0.29956 0.29956 0 0 0 0.04687-0.05078l0.10742-0.14844a0.29956 0.29956 0 0 0 0.02148-0.03516l0.10742-0.19922a0.29956 0.29956 0 0 0 0.01172-0.02344l0.10742-0.24609a0.29956 0.29956 0 0 0 0.0059-0.01563l0.10742-0.28711a0.29956 0.29956 0 0 0 0.0039-0.0098l0.10742-0.32227a0.29956 0.29956 0 0 0 2e-3 -0.0059l0.10742-0.34766a0.29956 0.29956 0 0 0 2e-3 -0.0039l0.10742-0.36523a0.29956 0.29956 0 0 0 0-2e-3l0.10938-0.375 0.10742-0.37109 0.10547-0.36133 0.10742-0.3418 0.10547-0.3125 0.10352-0.27539 0.09961-0.22852 0.09375-0.17773 0.08008-0.11328 0.0332-0.03125 0.04687 0.04687 0.08398 0.11914 0.0957 0.17383 0.09961 0.2168 0.10352 0.25195 0.10547 0.2793 0.10742 0.29688 0.21484 0.61719a0.29956 0.29956 0 0 0 0 2e-3l0.10938 0.30273a0.29956 0.29956 0 0 0 0 0.0039l0.10938 0.28906a0.29956 0.29956 0 0 0 2e-3 0.0078l0.10742 0.26758a0.29956 0.29956 0 0 0 0.0039 0.0098l0.10938 0.24219a0.29956 0.29956 0 0 0 0.0059 0.01563l0.10742 0.21094a0.29956 0.29956 0 0 0 0.01172 0.01953l0.10742 0.17578a0.29956 0.29956 0 0 0 0.01953 0.0293l0.10938 0.13672a0.29956 0.29956 0 0 0 0.03516 0.03711l0.10742 0.09766a0.29956 0.29956 0 0 0 0.0625 0.04297l0.10742 0.05664a0.29956 0.29956 0 0 0 0.095353 0.031365l0.10742 0.01563a0.29956 0.29956 0 0 0 0.10938-0.0039l0.10742-0.02539a0.29956 0.29956 0 0 0 0.08398-0.03125l0.10742-0.0625a0.29956 0.29956 0 0 0 0.05078-0.03711l0.10742-0.0957a0.29956 0.29956 0 0 0 0.0293-0.0293l0.10742-0.12891a0.29956 0.29956 0 0 0 0.01758-0.02149l0.10742-0.1543a0.29956 0.29956 0 0 0 0.0098-0.01367l0.10742-0.17578a0.29956 0.29956 0 0 0 0.0059-0.0098l0.10742-0.19336a0.29956 0.29956 0 0 0 0.0039-0.0059l0.10742-0.20312a0.29956 0.29956 0 0 0 2e-3 -2e-3l0.10742-0.20898 0.10742-0.20703 0.10547-0.19922 0.10352-0.18555 0.10156-0.16797 0.09961-0.14844 0.09375-0.12109 0.08594-0.09375 0.07617-0.06641 0.06445-0.03906 0.04883-0.01953 0.04297-0.0059 0.04492 0.0039 0.05469 0.01758 0.07031 0.03125 0.08008 0.05274 0.0918 0.06836 0.0957 0.08399 0.10156 0.09375 0.10547 0.10352 0.10742 0.10547a0.29956 0.29956 0 0 0 2e-3 2e-3l0.10742 0.10352a0.29956 0.29956 0 0 0 0.0059 0.0039l0.10742 0.09961a0.29956 0.29956 0 0 0 0.0078 0.0078l0.10938 0.0918a0.29956 0.29956 0 0 0 0.01172 0.0098l0.10742 0.08203a0.29956 0.29956 0 0 0 0.01758 0.01172l0.10742 0.07031a0.29956 0.29956 0 0 0 0.02148 0.01367l0.10742 0.05859a0.29956 0.29956 0 0 0 0.02539 0.01367l0.10742 0.04492a0.29956 0.29956 0 0 0 0.0293 0.01172l0.10938 0.0332a0.29956 0.29956 0 0 0 0.03125 0.0078l0.10742 0.02148a0.29956 0.29956 0 0 0 0.03516 0.0039l0.10742 0.0078a0.29956 0.29956 0 0 0 0.02734 2e-3l0.10938-2e-3a0.29956 0.29956 0 0 0 0.02539-2e-3l0.10938-0.01172a0.29956 0.29956 0 0 0 0.02148-0.0039l0.10742-0.01953a0.29956 0.29956 0 0 0 0.01758-0.0039l0.10742-0.02734a0.29956 0.29956 0 0 0 0.01172-2e-3l0.10742-0.03125a0.29956 0.29956 0 0 0 0.0059-2e-3l0.10938-0.0332a0.29956 0.29956 0 0 0 0-2e-3l0.10742-0.0332 0.10352-0.0332 0.10156-0.0293 0.0957-0.02344 0.09375-0.01953 0.0918-0.01367 0.0918-0.0098 0.08984-0.0039 0.0918 2e-3 0.0918 0.0078 0.09375 0.01172 0.09766 0.01563 0.10156 0.01953 0.10352 0.02344 0.21484 0.04688a0.29956 0.29956 0 0 0 0.0059 2e-3l0.10742 0.02149a0.29956 0.29956 0 0 0 0.0078 2e-3l0.10742 0.01758a0.29956 0.29956 0 0 0 0.01172 2e-3l0.10742 0.01563a0.29956 0.29956 0 0 0 0.01563 0l0.10742 0.0098a0.29956 0.29956 0 0 0 0.01367 0l0.10938 0.0059a0.29956 0.29956 0 0 0 0.01953 0l0.10742-0.0039a0.29956 0.29956 0 0 0 0.01563 0l0.10938-0.0098a0.29956 0.29956 0 0 0 0.01953-2e-3l0.10742-0.01758a0.29956 0.29956 0 0 0 0.01758-2e-3l0.10742-0.02344a0.29956 0.29956 0 0 0 0.01563-0.0039l0.10938-0.0293a0.29956 0.29956 0 0 0 0.01172-0.0039l0.10938-0.03516a0.29956 0.29956 0 0 0 0.0098-0.0039l0.10742-0.03906a0.29956 0.29956 0 0 0 0.0098-0.0039l0.10742-0.04297a0.29956 0.29956 0 0 0 0.0039 0l0.10742-0.04492a0.29956 0.29956 0 0 0 2e-3 -2e-3l0.10742-0.04492a0.29953 0.29953 0 0 0 0.15977-0.39238 0.29953 0.29953 0 0 0-0.39258-0.16016l-0.10742 0.04687-0.10547 0.04297-0.10156 0.04101-0.09766 0.03516-0.0957 0.03125-0.09375 0.02539-0.0918 0.01953-0.08789 0.01367-0.08984 0.0078-0.08984 2e-3 -0.0918-0.0039-0.0918-0.0078-0.0957-0.01172-0.09766-0.01758-0.10156-0.02148-0.10547-0.02149-0.10742-0.02539a0.29956 0.29956 0 0 0-2e-3 0l-0.10742-0.02344a0.29956 0.29956 0 0 0-0.0059 0l-0.10742-0.02148a0.29956 0.29956 0 0 0-0.0098-2e-3l-0.1073-0.017573a0.29956 0.29956 0 0 0-0.01172-2e-3l-0.10742-0.01367a0.29956 0.29956 0 0 0-0.01563-2e-3l-0.10742-0.0078a0.29956 0.29956 0 0 0-0.01563 0l-0.10938-2e-3a0.29956 0.29956 0 0 0-0.01563 0l-0.10742 0.0039a0.29956 0.29956 0 0 0-0.01758 0l-0.10938 0.01172a0.29956 0.29956 0 0 0-0.01563 2e-3l-0.10938 0.01758a0.29956 0.29956 0 0 0-0.01367 2e-3l-0.10742 0.02149a0.29956 0.29956 0 0 0-0.01367 0.0039l-0.10742 0.02734a0.29956 0.29956 0 0 0-0.0098 2e-3l-0.10938 0.03125a0.29956 0.29956 0 0 0-0.0039 2e-3l-0.10742 0.0332a0.29956 0.29956 0 0 0-0.0039 2e-3l-0.10547 0.0332-0.10352 0.0332-0.09961 0.02734-0.09375 0.02344-0.08984 0.01563-0.08203 0.0098-0.08008 2e-3 -0.07617-0.0059-0.07617-0.01367-0.07617-0.02539-0.08008-0.0332-0.08398-0.04687-0.08984-0.05859-0.09375-0.07227-0.09766-0.08203-0.09961-0.0918-0.10547-0.10156-0.10547-0.10352a0.29956 0.29956 0 0 0-2e-3 -2e-3l-0.10742-0.10547a0.29956 0.29956 0 0 0-0.0039-0.0039l-0.10938-0.09961a0.29956 0.29956 0 0 0-0.0078-0.0078l-0.10742-0.09375a0.29956 0.29956 0 0 0-0.01367-0.01172l-0.10938-0.08203a0.29956 0.29956 0 0 0-0.02148-0.01563l-0.10742-0.06836a0.29956 0.29956 0 0 0-0.03125-0.01758l-0.10938-0.05078a0.29956 0.29956 0 0 0-0.04492-0.01758l-0.10742-0.03125a0.29956 0.29956 0 0 0-0.05859-0.0098l-0.10742-0.0098a0.29956 0.29956 0 0 0-0.06641 2e-3l-0.10742 0.01563a0.29956 0.29956 0 0 0-0.06445 0.01563l-0.10742 0.04101a0.29956 0.29956 0 0 0-0.05078 0.02539l-0.10938 0.06641a0.29956 0.29956 0 0 0-0.03711 0.02734l-0.10742 0.0918a0.29956 0.29956 0 0 0-0.02539 0.02539l-0.10738 0.1171a0.29956 0.29956 0 0 0-0.01758 0.01953l-0.10742 0.14062a0.29956 0.29956 0 0 0-0.01172 0.01758l-0.10938 0.16016a0.29956 0.29956 0 0 0-0.0059 0.01172l-0.10938 0.17969a0.29956 0.29956 0 0 0-0.0039 0.0078l-0.10742 0.19336a0.29956 0.29956 0 0 0-0.0039 0.0059l-0.10742 0.20312a0.29956 0.29956 0 0 0-2e-3 0.0039l-0.21484 0.41406-0.10547 0.19922-0.10352 0.18359-0.09961 0.16211-0.0957 0.13672-0.08594 0.09961-0.06836 0.0625-0.04102 0.02344-0.0098 2e-3h-2e-3l-0.0293-0.01367-0.06055-0.05469-0.08203-0.10547-0.0918-0.15039-0.09961-0.19336-0.10156-0.23047-0.10547-0.25977-0.10547-0.2832-0.10742-0.29883-0.10742-0.30859-0.10742-0.30859a0.29956 0.29956 0 0 0 0-0.0039l-0.10742-0.30078a0.29956 0.29956 0 0 0-2e-3 -0.0039l-0.10938-0.28516a0.29956 0.29956 0 0 0-2e-3 -0.0078l-0.10742-0.26367a0.29956 0.29956 0 0 0-0.0059-0.01172l-0.10742-0.23242a0.29956 0.29956 0 0 0-0.0098-0.01758l-0.10708-0.19736a0.29956 0.29956 0 0 0-0.01758-0.027344l-0.10742-0.1543a0.29956 0.29956 0 0 0-0.03516-0.039063l-0.10742-0.10938a0.29956 0.29956 0 0 0-0.07031-0.050781l-0.10742-0.058594a0.29956 0.29956 0 0 0-0.12695-0.035156l-0.10742-0.00391a0.29956 0.29956 0 0 0-0.13867 0.025391l-0.10742 0.048828a0.29956 0.29956 0 0 0-0.08203 0.054687l-0.10742 0.10352a0.29956 0.29956 0 0 0-0.04102 0.044922l-0.10742 0.1543a0.29956 0.29956 0 0 0-0.01953 0.03125l-0.10742 0.20313a0.29956 0.29956 0 0 0-0.0098 0.02148l-0.10742 0.24609a0.29956 0.29956 0 0 0-0.0059 0.01563l-0.10742 0.28711a0.29956 0.29956 0 0 0-0.0039 0.0098l-0.10742 0.32031a0.29956 0.29956 0 0 0-0.0039 0.0059l-0.10742 0.34766a0.29956 0.29956 0 0 0 0 0.0039l-0.10938 0.36328a0.29956 0.29956 0 0 0 0 2e-3l-0.21484 0.74609-0.10742 0.36328-0.10547 0.3418-0.10547 0.31445-0.10352 0.27539-0.09961 0.22852-0.0918 0.17188-0.07617 0.10352-0.0039 2e-3 -0.06445-0.08203-0.089785-0.15836-0.097656-0.21875-0.10352-0.26758-0.10547-0.30469-0.10547-0.33594-0.10742-0.35547-0.10742-0.36914-0.10742-0.36914-0.10938-0.36133a0.29956 0.29956 0 0 0 0-0.0039l-0.10742-0.3418a0.29956 0.29956 0 0 0-2e-3 -0.0078l-0.10938-0.31641a0.29956 0.29956 0 0 0-0.0039-0.0098l-0.10742-0.28516a0.29956 0.29956 0 0 0-0.0059-0.01367l-0.10742-0.24414a0.29956 0.29956 0 0 0-0.0098-0.02149l-0.10926-0.20115a0.29956 0.29956 0 0 0-0.01953-0.03125l-0.10742-0.15234a0.29956 0.29956 0 0 0-0.03906-0.044922l-0.10938-0.099609a0.29956 0.29956 0 0 0-0.08398-0.054687l-0.10742-0.048828a0.29956 0.29956 0 0 0-0.13281-0.023437l-0.10742 0.00391a0.29956 0.29956 0 0 0-0.125 0.035156l-0.10938 0.054687a0.29956 0.29956 0 0 0-0.06836 0.050781l-0.10938 0.10547a0.29956 0.29956 0 0 0-0.0332 0.039063l-0.10742 0.14844a0.29956 0.29956 0 0 0-0.01758 0.027344l-0.10742 0.18555a0.29956 0.29956 0 0 0-0.0098 0.01953l-0.10742 0.21875a0.29956 0.29956 0 0 0-0.0059 0.01172l-0.10742 0.24609a0.29956 0.29956 0 0 0-0.0039 0.0078l-0.10742 0.26367a0.29956 0.29956 0 0 0-2e-3 0.0039l-0.10742 0.27539a0.29956 0.29956 0 0 0 0 2e-3l-0.10742 0.27539-0.10742 0.27148-0.10547 0.25586-0.10352 0.23242-0.10156 0.20508-0.0957 0.16992-0.08984 0.12891-0.07617 0.08399-0.05469 0.04101-0.02734 0.01172-0.01367 2e-3 -0.02734-0.0078-0.05078-0.02539-0.07422-0.05664-0.08789-0.08594-0.09766-0.10742-0.10352-0.12305-0.10547-0.13086a0.29956 0.29956 0 0 0-2e-3 -2e-3l-0.10938-0.13086a0.29956 0.29956 0 0 0-0.0059-0.0078l-0.10742-0.11914a0.29956 0.29956 0 0 0-0.01367-0.01367l-0.10742-0.10742a0.29956 0.29956 0 0 0-0.02148-0.01953l-0.10742-0.08594a0.29956 0.29956 0 0 0-0.03516-0.02539l-0.10742-0.06445a0.29956 0.29956 0 0 0-0.05078-0.02539l-0.10938-0.03906a0.29956 0.29956 0 0 0-0.06836-0.01563l-0.10724-0.013733a0.29956 0.29956 0 0 0-0.07422 2e-3l-0.10742 0.01367a0.29956 0.29956 0 0 0-0.06641 0.01758l-0.10742 0.03906a0.29956 0.29956 0 0 0-0.04883 0.02539l-0.10937 0.064409a0.29956 0.29956 0 0 0-0.03125 0.02149l-0.10742 0.08594a0.29956 0.29956 0 0 0-0.01953 0.01758l-0.10742 0.10156a0.29956 0.29956 0 0 0-0.01172 0.01172l-0.10742 0.11328a0.29956 0.29956 0 0 0-0.0059 0.0059l-0.10547 0.11719-0.10352 0.11328-0.0957 0.09766-0.08594 0.07227-0.06445 0.04297-0.03711 0.01367-0.0098 2e-3 -0.0098-0.0039-0.03906-0.02539-0.06836-0.07422-0.08594-0.13086-0.095596-0.18175-0.10156-0.23242-0.10352-0.27344-0.10352-0.30859-0.10742-0.33398-0.10742-0.35156-0.10742-0.35742a0.29956 0.29956 0 0 0 0-2e-3l-0.10742-0.35156a0.29956 0.29956 0 0 0-2e-3 -0.0039l-0.10738-0.3359a0.29956 0.29956 0 0 0-0.0039-0.00781l-0.10743-0.30469a0.29956 0.29956 0 0 0-0.0039-0.013672l-0.10938-0.26562a0.29956 0.29956 0 0 0-0.0098-0.021484l-0.10739-0.21289a0.29956 0.29956 0 0 0-0.02344-0.039063l-0.10742-0.15234a0.29956 0.29956 0 0 0-0.06445-0.066406l-0.10938-0.080078a0.29956 0.29956 0 0 0-0.17188-0.058594l-0.10938-0.00195a0.29956 0.29956 0 0 0-0.18555 0.060547l-0.10938 0.082031a0.29956 0.29956 0 0 0-0.07031 0.076172l-0.10742 0.16992a0.29956 0.29956 0 0 0-0.02344 0.044922l-0.10938 0.25977a0.29956 0.29956 0 0 0-0.0098 0.025391l-0.10742 0.3457a0.29956 0.29956 0 0 0-0.0039 0.015625l-0.1074 0.42968a0.29956 0.29956 0 0 0-0.0039 0.011719l-0.10742 0.50781a0.29956 0.29956 0 0 0-2e-3 0.0059l-0.10742 0.57617a0.29956 0.29956 0 0 0 0 0.0059l-0.10742 0.63281a0.29956 0.29956 0 0 0-2e-3 0.0039l-0.10742 0.67773a0.29956 0.29956 0 0 0 0 2e-3l-0.10742 0.70508a0.29956 0.29956 0 0 0 0 2e-3l-0.10938 0.71875-0.10742 0.71094-0.10742 0.6875-0.10742 0.64062-0.10547 0.57812-0.10547 0.49219-0.10352 0.38867-0.0078 0.02148-0.06055-0.2207-0.10539-0.50993-0.10547-0.64648-0.10742-0.77148-0.10742-0.88086-0.10742-0.9707-0.10742-1.0391-0.10742-1.084-0.10938-1.1055-0.10742-1.1016-0.10742-1.0664a0.29956 0.29956 0 0 0 0-0.00195l-0.10742-1.0078a0.29956 0.29956 0 0 0-2e-3 -0.00195l-0.10742-0.92188a0.29956 0.29956 0 0 0 0-0.00391l-0.10738-0.81055a0.29956 0.29956 0 0 0-2e-3 -0.00781l-0.10738-0.67578a0.29956 0.29956 0 0 0-2e-3 -0.013672l-0.10933-0.52344a0.29956 0.29956 0 0 0-0.0059-0.027344l-0.10738-0.35156a0.29956 0.29956 0 0 0-0.03516-0.074219l-0.10742-0.16797a0.29956 0.29956 0 0 0-0.31836-0.13086l-0.10938 0.025391a0.29956 0.29956 0 0 0-0.20117 0.16211l-0.10938 0.2207a0.29956 0.29956 0 0 0-0.01953 0.056641l-0.10742 0.41992a0.29956 0.29956 0 0 0-0.0059 0.023437l-0.10742 0.61133a0.29956 0.29956 0 0 0-2e-3 0.011719l-0.10734 0.79492a0.29956 0.29956 0 0 0-2e-3 0.00586l-0.10738 0.96289a0.29956 0.29956 0 0 0 0 0.00391l-0.10742 1.1113a0.29956 0.29956 0 0 0-2e-3 0.00195l-0.10742 1.2383a0.29956 0.29956 0 0 0 0 0.00195l-0.10742 1.3359a0.29956 0.29956 0 0 0 0 2e-3l-0.10742 1.4062a0.29956 0.29956 0 0 0 0 2e-3l-0.10938 1.4434a0.29956 0.29956 0 0 0 0 2e-3l-0.10742 1.4492-0.10742 1.4199-0.10742 1.3555-0.10742 1.2578-0.10742 1.1289-0.10742 0.96875-0.10742 0.7832-0.03125 0.17383-0.02344-0.125-0.10547-0.80078-0.10742-1.0137-0.10742-1.207-0.10742-1.3711-0.10938-1.5039-0.10742-1.6035-0.10742-1.668-0.10742-1.6914-0.10742-1.6777-0.10938-1.625-0.10742-1.5312a0.29956 0.29956 0 0 0 0-0.00195l-0.10737-1.4025a0.29956 0.29956 0 0 0 0-0.00391l-0.10938-1.2402a0.29956 0.29956 0 0 0 0-0.00391l-0.10742-1.0469a0.29956 0.29956 0 0 0 0-0.00781l-0.10938-0.83008a0.29956 0.29956 0 0 0-2e-3 -0.015625l-0.10738-0.58984a0.29956 0.29956 0 0 0-0.0098-0.037109l-0.10739-0.33789a0.29956 0.29956 0 0 0-0.11719-0.15625l-0.10742-0.072266a0.29956 0.29956 0 0 0-0.23828-0.044922z"/></g></svg>