<svg fill="#fafafa" role="img" version="1.1" viewBox="0 0 24 24" xml:space="preserve" xmlns="http://www.w3.org/2000/svg"><path d="m12 0c-2.2032 0-4 1.7968-4 4 0 0.80615 0.2413 1.5583 0.6543 2.1875l-2.4219 5.0234-2.4043 3.0645a1.5 1.5 0 0 0-0.47852-0.080079 1.5 1.5 0 0 0-1.5 1.5 1.5 1.5 0 0 0 1.5 1.5 1.5 1.5 0 0 0 1.5-1.5 1.5 1.5 0 0 0-0.23633-0.80273l1.8594-2.3711 1.4043 4.3555a1.5 1.5 0 0 0-0.58984 1.1875 1.5 1.5 0 0 0 1.5 1.5 1.5 1.5 0 0 0 1.5-1.5 1.5 1.5 0 0 0-1.459-1.498l-1.6309-5.0547 2.1719-4.5039c0.70418 0.61688 1.6248 0.99219 2.6309 0.99219 0.3635 0 0.71565-0.051001 1.0508-0.14258l1.8203 7.8906-2.8789 5.2715a1.5 1.5 0 0 0-0.23828-0.019531 1.5 1.5 0 0 0-1.5 1.5 1.5 1.5 0 0 0 1.5 1.5 1.5 1.5 0 0 0 1.5-1.5 1.5 1.5 0 0 0-0.38476-1.002l2.6348-4.8242 2.6875 2.9316a1.5 1.5 0 0 0-0.17773 0.70312 1.5 1.5 0 0 0 1.5 1.5 1.5 1.5 0 0 0 1.5-1.5 1.5 1.5 0 0 0-1.5-1.5 1.5 1.5 0 0 0-0.58594 0.12109l-3.0703-3.3516-1.8691-8.1094c0.51392-0.296 0.95481-0.70279 1.293-1.1875l2.9941 2.5176a1.5 1.5 0 0 0-0.09961 0.52539 1.5 1.5 0 0 0 1.5 1.5 1.5 1.5 0 0 0 1.5-1.5 1.5 1.5 0 0 0-1.5-1.5 1.5 1.5 0 0 0-0.75781 0.20898l-3.1621-2.6602c0.1574-0.4285 0.24414-0.89109 0.24414-1.373 0-2.2032-1.7968-4-4-4zm0 1c1.6628 0 3 1.3372 3 3s-1.3372 3-3 3-3-1.3372-3-3 1.3372-3 3-3zm-0.65234 1.3711a0.50005 0.50005 0 0 0-0.25 0.068359 0.50005 0.50005 0 0 0-0.25 0.43359v2.2559a0.50005 0.50005 0 0 0 0.75 0.43359l1.9551-1.1289a0.50005 0.50005 0 0 0 0-0.86523l-1.9551-1.1289a0.50005 0.50005 0 0 0-0.25-0.068359z"/></svg>
