<?xml version="1.0" encoding="UTF-8" standalone="no"?>
<!-- Created with Inkscape (http://www.inkscape.org/) -->

<svg
   width="3600mm"
   height="2400mm"
   viewBox="0 0 3600 2400"
   version="1.1"
   id="svg5"
   inkscape:version="1.2.2 (732a01da63, 2022-12-09)"
   sodipodi:docname="sequent-thumb_inkscape.svg"
   xml:space="preserve"
   xmlns:inkscape="http://www.inkscape.org/namespaces/inkscape"
   xmlns:sodipodi="http://sodipodi.sourceforge.net/DTD/sodipodi-0.dtd"
   xmlns="http://www.w3.org/2000/svg"
   xmlns:svg="http://www.w3.org/2000/svg"><sodipodi:namedview
     id="namedview7"
     pagecolor="#ffffff"
     bordercolor="#666666"
     borderopacity="1.0"
     inkscape:showpageshadow="2"
     inkscape:pageopacity="0.0"
     inkscape:pagecheckerboard="0"
     inkscape:deskcolor="#d1d1d1"
     inkscape:document-units="mm"
     showgrid="false"
     inkscape:zoom="0.11436325"
     inkscape:cx="-284.1822"
     inkscape:cy="3069.1678"
     inkscape:window-width="3840"
     inkscape:window-height="2097"
     inkscape:window-x="-8"
     inkscape:window-y="-8"
     inkscape:window-maximized="1"
     inkscape:current-layer="layer1" /><defs
     id="defs2" /><g
     inkscape:label="Layer 1"
     inkscape:groupmode="layer"
     id="layer1"><rect
       style="fill:#001e3e;stroke-width:16.9333;stroke-linecap:round;stroke-linejoin:round;fill-opacity:1"
       id="rect234"
       width="3599.9998"
       height="2400"
       x="0"
       y="0"
       inkscape:label="background" /><rect
       style="display:none;fill:#808080;fill-opacity:1;stroke-width:16.9333;stroke-linecap:round;stroke-linejoin:round"
       id="rect946"
       width="3599.9995"
       height="2025"
       x="0"
       y="187.5"
       inkscape:label="video" /><rect
       style="display:none;fill:#ffffff;fill-opacity:1;stroke-width:16.9333;stroke-linecap:round;stroke-linejoin:round"
       id="rect1782"
       width="3599.9995"
       height="1890"
       x="0"
       y="254.99997"
       inkscape:label="og" /><rect
       style="display:none;fill:#e2e2e2;fill-opacity:1;stroke-width:13.9353;stroke-linecap:round;stroke-linejoin:round"
       id="rect342"
       width="3599.9995"
       height="1280"
       x="0"
       y="559.99994"
       inkscape:label="logo" /><g
       id="g253"
       transform="matrix(1.279999,0,0,1.279999,1144.619,544.64467)"><g
         stroke-linecap="round"
         stroke-linejoin="round"
         stroke-width="6.8018"
         id="g249"><path
           d="m 355.9,791.26 0.73122,1.2511 23.366,115.7 -109.48,41.549 a 500,500 0 0 0 241.48,62.237 500,500 0 0 0 174.8,-31.558 l 37.497,-110.67 -104.14,-55.565 1.1782,-1.4697 a 320,320 0 0 1 -109.34,19.267 320,320 0 0 1 -156.1,-40.739 z"
           fill="#4e82e6"
           stop-color="#000000"
           id="path237" /><path
           d="m 192.13,518.09 -0.003,0.006 -88.518,78.086 -91.446,-74.627 a 500,500 0 0 0 182.21,376.46 l 114.68,-22.879 -3.9491,-117.97 1.7229,0.26406 a 320,320 0 0 1 -114.7,-239.34 z"
           fill="#79d670"
           stop-color="#000000"
           id="path239" /><path
           d="m 927.28,507.48 -100.19,62.405 -0.29249,-0.75034 a 320,320 0 0 1 -151.63,218.13 l 1.3699,-0.007 111.88,37.616 -18.762,115.62 a 500,500 0 0 0 235.22999,-344.61 z"
           fill="#79d670"
           stop-color="#000000"
           id="path241" /><path
           d="m 830.37,126.61 -115.42,23.027 3.9486,117.97 -0.59687,-0.0915 a 320,320 0 0 1 113.61,240.13 l 0.0346,-0.061 88.518,-78.086 91.40597,74.594 a 500,500 0 0 0 -181.49997,-377.48 z"
           fill="#7cdeee"
           stop-color="#000000"
           id="path243" /><path
           d="M 254.2,83.659 A 500,500 0 0 0 18.88,429.529 l 0.02739,-0.0357 77.878,88.7 100.19,-62.405 0.0222,0.0574 a 320,320 0 0 1 150.32,-218.15 l -0.13022,5.2e-4 -111.88,-37.616 z"
           fill="#7cdeee"
           stop-color="#000000"
           id="path245" /><path
           d="M 512,12 A 500,500 0 0 0 337.23,43.629 l -37.799,111.56 104.14,55.565 -0.26459,0.3297 a 320,320 0 0 1 108.69,-19.088 320,320 0 0 1 155.41,40.325 l -0.0439,-0.0754 -23.365,-115.7 110.3,-41.863 a 500,500 0 0 0 -242.31,-62.686 z"
           fill="#4e82e6"
           stop-color="#000000"
           id="path247" /></g><circle
         cx="512"
         cy="512"
         r="256.31"
         fill="#f5f023"
         stop-color="#000000"
         id="circle251" /></g></g></svg>
