<?xml version="1.0" encoding="UTF-8" standalone="no"?>
<!-- Created with Inkscape (http://www.inkscape.org/) -->

<svg
   width="3600mm"
   height="2400mm"
   viewBox="0 0 3600 2400"
   version="1.1"
   id="svg5"
   inkscape:version="1.2.2 (732a01da63, 2022-12-09)"
   sodipodi:docname="schema-thumb_inkscape.svg"
   xml:space="preserve"
   xmlns:inkscape="http://www.inkscape.org/namespaces/inkscape"
   xmlns:sodipodi="http://sodipodi.sourceforge.net/DTD/sodipodi-0.dtd"
   xmlns="http://www.w3.org/2000/svg"
   xmlns:svg="http://www.w3.org/2000/svg"><sodipodi:namedview
     id="namedview7"
     pagecolor="#ffffff"
     bordercolor="#666666"
     borderopacity="1.0"
     inkscape:showpageshadow="2"
     inkscape:pageopacity="0.0"
     inkscape:pagecheckerboard="0"
     inkscape:deskcolor="#d1d1d1"
     inkscape:document-units="mm"
     showgrid="false"
     inkscape:zoom="0.11436325"
     inkscape:cx="4.3720338"
     inkscape:cy="3069.1678"
     inkscape:window-width="3840"
     inkscape:window-height="2097"
     inkscape:window-x="-8"
     inkscape:window-y="-8"
     inkscape:window-maximized="1"
     inkscape:current-layer="layer1-7" /><defs
     id="defs2"><rect
       x="-1.2858187"
       y="-7.2088767e-06"
       width="980.28205"
       height="1330.0248"
       id="rect8576" /><rect
       x="-1.2858187"
       y="-7.2088767e-06"
       width="980.28205"
       height="1330.0248"
       id="rect6305" /><rect
       x="-1.2858187"
       y="-7.2088767e-06"
       width="980.28205"
       height="1330.0248"
       id="rect305" /></defs><g
     inkscape:label="Layer 1"
     inkscape:groupmode="layer"
     id="layer1"><rect
       style="display:none;fill:#000000;fill-opacity:1;stroke-width:16.9333;stroke-linecap:round;stroke-linejoin:round"
       id="rect234"
       width="3599.9998"
       height="2400"
       x="0"
       y="0"
       inkscape:label="background" /><rect
       style="display:none;fill:#808080;fill-opacity:1;stroke-width:16.9333;stroke-linecap:round;stroke-linejoin:round"
       id="rect946"
       width="3599.9995"
       height="2025"
       x="0"
       y="187.5"
       inkscape:label="video" /><rect
       style="display:none;opacity:0.437824;fill:#ffffff;fill-opacity:1;stroke-width:16.9333;stroke-linecap:round;stroke-linejoin:round"
       id="rect1782"
       width="3599.9995"
       height="1890"
       x="0"
       y="254.99997"
       inkscape:label="og"
       transform="translate(3.5624545e-6)" /><g
       inkscape:label="Layer 1"
       id="layer1-7"
       style="display:inline"
       transform="matrix(7.7518832,0,0,7.7518832,752.51529,149.87829)"><rect
         style="display:inline;fill:#feffff;fill-opacity:1;stroke:none;stroke-width:0.264583"
         id="rect72510"
         width="270.93329"
         height="270.93329"
         x="-0.34020621"
         y="-1.9073486e-06" /><rect
         style="display:inline;fill:#1e6fce;fill-opacity:1;stroke:none;stroke-width:0.370296"
         id="rect846"
         width="232.20161"
         height="154.80109"
         x="-97.075157"
         y="135.46666" /><rect
         style="display:inline;fill:#1e6fce;fill-opacity:1;stroke:none;stroke-width:0.370296"
         id="rect846-3"
         width="232.20172"
         height="154.8011"
         x="135.12643"
         y="-19.334436" /><rect
         style="display:inline;fill:#2f93e1;fill-opacity:1;stroke:none;stroke-width:0.370296"
         id="rect846-5"
         width="232.20161"
         height="154.80109"
         x="-97.075157"
         y="-19.334436" /><rect
         style="display:inline;fill:#194eae;fill-opacity:1;stroke:none;stroke-width:0.370296"
         id="rect846-5-7"
         width="232.20164"
         height="154.80109"
         x="135.12645"
         y="135.46666" /><path
         d="M 37.256632,712.36947 187.25711,697.78609 q 13.54171,75.52108 54.68767,110.93785 41.6668,35.41678 111.97952,35.41678 74.4794,0 111.97952,-31.2501 38.02096,-31.77093 38.02096,-73.95856 0,-27.08342 -16.14589,-45.83348 -15.62505,-19.2709 -55.20851,-33.33344 Q 405.48697,650.39011 309.13249,626.4317 185.17377,595.70244 135.17361,550.91063 64.860887,487.8896 64.860887,397.26431 q 0,-58.33352 32.812603,-108.85451 33.33344,-51.04183 95.3128,-77.60442 62.5002,-26.56258 150.52131,-26.56258 143.75046,0 216.14652,63.02103 72.9169,63.02104 76.56274,168.2297 l -154.16715,6.77086 q -9.89587,-58.85436 -42.70847,-84.37527 -32.29177,-26.04175 -97.39614,-26.04175 -67.18772,0 -105.20867,27.60426 -24.47924,17.70838 -24.47924,47.39598 0,27.08342 22.91674,46.35431 29.16675,24.47925 141.66711,51.04183 112.50036,26.56258 166.14636,55.20851 54.16684,28.12509 84.37527,77.60441 30.72926,48.95849 30.72926,121.35455 0,65.62521 -36.45845,122.91706 -36.45845,57.29185 -103.12532,85.41693 -66.66688,27.60426 -166.14636,27.60426 -144.79213,0 -222.39654,-66.66688 Q 52.360847,840.49488 37.256632,712.36947 Z"
         id="path307"
         style="display:inline;font-weight:bold;font-size:1066.67px;line-height:1.25;font-family:Arial;-inkscape-font-specification:'Arial Bold';white-space:pre;shape-inside:url(#rect8576);fill:#ffffff"
         transform="matrix(0.24110669,0,0,0.24110669,51.299844,-4.2055311)" /><text
         xml:space="preserve"
         transform="matrix(0.24110669,0,0,0.24110669,51.299843,-4.2055312)"
         id="text303"
         style="font-style:normal;font-variant:normal;font-weight:bold;font-stretch:normal;font-size:1066.67px;line-height:1.25;font-family:Arial;-inkscape-font-specification:'Arial Bold';white-space:pre;shape-inside:url(#rect305);display:none;fill:#ffffff;fill-opacity:1;stroke:none"
         rotate="0 0"
         inkscape:export-filename="C:\Users\evoth\E\Stuff\Github_evoth\schema\background.png"
         inkscape:export-xdpi="84.379997"
         inkscape:export-ydpi="84.379997" /></g></g></svg>
