<svg
    viewBox="0 0 3600 2400"
    version="1.1"
    id="svg5"
    preserveAspectRatio="xMidYMid slice"
    xml:space="preserve"
    xmlns="http://www.w3.org/2000/svg"
    xmlns:svg="http://www.w3.org/2000/svg"><defs
     id="defs2"><rect
       x="195.99999"
       y="195.99999"
       width="1242.9898"
       height="1101.1529"
       id="rect7467" /><rect
       x="-1.2858187"
       y="-7.2088767e-06"
       width="980.28205"
       height="1330.0248"
       id="rect8576" /></defs><g
     id="layer1"><rect
       style="display:none;fill:#000000;fill-opacity:1;stroke-width:16.9333;stroke-linecap:round;stroke-linejoin:round"
       id="rect234"
       width="3599.9998"
       height="2400"
       x="0"
       y="0" /><rect
       style="display:none;fill:#808080;fill-opacity:1;stroke-width:16.9333;stroke-linecap:round;stroke-linejoin:round"
       id="rect946"
       width="3599.9995"
       height="2025"
       x="0"
       y="187.5" /><rect
       style="display:none;opacity:0.53886;fill:#ffffff;fill-opacity:1;stroke-width:16.9333;stroke-linecap:round;stroke-linejoin:round"
       id="rect1782"
       width="3599.9995"
       height="1890"
       x="0"
       y="254.99997" /><path
       id="rect930"
       style="display:inline;opacity:1;fill:#63d564;stroke-width:42.4264;stroke-linecap:round;stroke-linejoin:round;paint-order:stroke fill markers"
       d="m 5e-4,0 h 3599.999 V 2400 H 5e-4 Z" /><path
       id="rect374"
       style="opacity:1;fill:#63b7d5;stroke-width:30;stroke-linecap:round;stroke-linejoin:round;paint-order:stroke fill markers"
       d="M 0,0 H 400 L 3200,2400 H 0 Z" /><path
       d="m 2351.8808,710.13629 c -131.5696,15.85001 -256.3222,79.58993 -394.88,201.78591 -33.7446,29.6548 -56.9224,51.6397 -111.9708,106.3471 -39.1983,39.0278 -44.9927,43.9699 -47.8897,42.4361 -1.8751,-1.0224 -17.0429,-15.8497 -33.9152,-33.0631 -194.969,-199.5699 -321.4261,-283.59096 -467.8231,-310.51851 -95.4394,-17.55395 -194.4574,-6.47601 -284.4431,31.69962 -150.82799,64.08046 -261.26499,198.88889 -292.11239,356.70449 -6.9877,35.2785 -8.692,54.1958 -8.692,96.2912 0,66.8076 9.2031,122.5376 29.9953,181.5055 57.6044,164.292 195.1395,277.285 368.80459,303.1899 108.0509,16.1906 227.8615,-4.4311 333.5264,-57.0929 41.4137,-20.6217 76.3516,-42.6072 119.8104,-75.1584 54.7074,-40.7323 94.7574,-76.6924 180.8233,-161.9061 29.9953,-29.8248 55.7301,-54.1957 56.9228,-54.1957 1.3634,0 13.123,11.248 26.2459,24.8822 29.3137,30.5063 100.8929,99.5294 131.2292,126.6275 139.75,124.5826 245.756,179.801 379.3711,198.2072 9.8847,1.3633 33.0629,2.0449 59.6494,2.0449 36.3012,0 47.5492,-0.6816 68.1709,-3.9199 110.778,-17.0428 205.3654,-64.5921 282.7393,-141.7955 77.8851,-77.885 126.457,-178.0966 140.2616,-289.5558 3.2383,-26.4164 2.7267,-95.9506 -1.0227,-122.7081 -13.2935,-95.6096 -46.8676,-181.8455 -96.8028,-248.3125 -16.1907,-21.8145 -50.1053,-56.5819 -72.4313,-74.13581 -62.0356,-49.4241 -142.6477,-82.82766 -234.8491,-97.14333 -29.3135,-4.43153 -101.2338,-5.79478 -130.718,-2.21597 z M 1272.9054,914.4789 c 57.2639,12.1002 115.209,39.7094 172.1319,81.9755 20.2806,14.9978 50.6169,39.8799 70.3863,57.7749 24.8827,22.6666 149.9764,144.8633 149.9764,146.5676 0,2.7267 -109.0736,110.6074 -135.4901,134.2968 -83.8499,74.6468 -161.3944,121.8555 -234.3374,142.9882 -34.4263,9.8849 -54.7073,12.6119 -96.2917,12.6119 -32.3807,0 -40.05,-0.5116 -56.9223,-3.9199 -100.5521,-20.281 -174.17669,-85.8954 -206.21759,-183.5503 -27.2681,-83.3389 -22.1555,-162.4172 15.3385,-236.0418 42.9477,-84.5322 120.32219,-140.4321 215.76119,-155.9412 10.7369,-1.7043 24.8826,-2.2156 49.9352,-1.7043 29.3137,0.5116 38.3462,1.3637 55.7296,4.9426 z m 1169.6429,-3.2383 c 55.7301,7.8398 103.1088,29.1431 143.3293,64.4215 74.8178,65.4443 110.6075,181.1644 88.1109,285.807 -22.8372,106.5171 -104.8127,192.753 -209.4547,220.7033 -25.2238,6.6465 -47.5493,9.3736 -77.3745,9.3736 -52.8324,0 -95.2685,-10.5669 -148.2714,-36.6423 -55.7301,-27.2682 -109.4147,-66.6371 -176.7334,-129.6947 -42.2661,-39.5394 -126.6275,-122.5377 -127.1386,-125.0937 -0.5113,-2.7272 79.4188,-84.3616 113.8456,-116.0612 116.2312,-107.3693 208.0914,-159.0089 306.7692,-172.8135 22.1555,-3.0677 65.1032,-3.0677 86.9176,0 z"
       id="path4633"
       style="fill:#ffffff;fill-opacity:1;stroke:none;stroke-width:0.170427" /></g></svg>