<svg width="3600mm" height="2400mm" version="1.1" viewBox="0 0 3600 2400" xml:space="preserve" xmlns="http://www.w3.org/2000/svg" xmlns:xlink="http://www.w3.org/1999/xlink"><defs><radialGradient id="radialGradient33143" cx="136.06" cy="237.43" r="44.391" gradientTransform="matrix(.78483 0 0 .78483 1312.9 248.67)" gradientUnits="userSpaceOnUse" xlink:href="#linearGradient33141"/><linearGradient id="linearGradient33141"><stop stop-color="#fff" stop-opacity="0" offset=".54526"/><stop stop-color="#fff" stop-opacity=".51984" offset=".55943"/><stop stop-color="#fff" stop-opacity=".1627" offset=".76686"/><stop stop-color="#fff" stop-opacity=".098039" offset=".81525"/><stop stop-color="#fff" stop-opacity=".035714" offset=".89333"/><stop stop-color="#fff" stop-opacity="0" offset="1"/></linearGradient><radialGradient id="radialGradient33162" cx="136.06" cy="237.43" r="44.391" gradientTransform="matrix(.48061 0 0 1.1069 1323.1 -788.93)" gradientUnits="userSpaceOnUse" xlink:href="#linearGradient33174"/><linearGradient id="linearGradient33174"><stop stop-color="#fff" offset=".33333"/><stop stop-color="#fff" stop-opacity=".58123" offset=".43794"/><stop stop-color="#fff" stop-opacity=".39711" offset=".61713"/><stop stop-color="#fff" stop-opacity=".20217" offset=".75175"/><stop stop-color="#fff" stop-opacity="0" offset="1"/></linearGradient><radialGradient id="radialGradient33179" cx="136.06" cy="237.43" r="44.391" gradientTransform="matrix(.48099 0 0 1.444 1338 179.3)" gradientUnits="userSpaceOnUse" xlink:href="#linearGradient33174"/><radialGradient id="radialGradient33184" cx="136.06" cy="237.43" r="44.391" gradientTransform="matrix(.48098 0 0 .81785 -459.68 1224.1)" gradientUnits="userSpaceOnUse" xlink:href="#linearGradient33174"/><radialGradient id="radialGradient1989" cx="1800" cy="1200" r="1800" gradientTransform="matrix(1 0 -4.1724e-7 .99678 .0014491 3.8628)" gradientUnits="userSpaceOnUse"><stop stop-color="#49609c" offset="0"/><stop stop-color="#3f569e" offset=".66584"/><stop stop-color="#374e94" offset="1"/></radialGradient></defs><g><g stroke-linecap="round" stroke-linejoin="round"><g stroke-width="16.933"><rect width="3600" height="2400" fill="url(#radialGradient1989)"/><rect y="187.5" width="3600" height="2025" display="none" fill="#808080"/><rect y="255" width="3600" height="1890" display="none" fill="#fff"/></g><rect y="560" width="3600" height="1280" display="none" fill="#e2e2e2" stroke-width="13.935"/></g><g transform="matrix(2.9708 0 0 2.9708 -227.58 -2717.7)"><ellipse transform="rotate(83.388)" cx="1388.5" cy="-526.11" rx="21.335" ry="49.138" fill="url(#radialGradient33162)" opacity=".56736" stop-color="#000000" style="paint-order:markers stroke fill"/><ellipse transform="matrix(.7425 .66984 -.68858 .72516 0 0)" cx="1403.4" cy="522.15" rx="21.352" ry="64.102" fill="url(#radialGradient33179)" opacity=".56736" stop-color="#000000" style="paint-order:markers stroke fill"/><ellipse transform="matrix(.71081 -.70338 .67882 .73431 0 0)" cx="-394.24" cy="1418.2" rx="21.351" ry="36.305" fill="url(#radialGradient33184)" opacity=".56736" stop-color="#000000" style="paint-order:markers stroke fill"/><circle transform="rotate(45.601)" cx="1419.7" cy="435.01" r="19.349" fill="#394a82" stop-color="#000000" style="paint-order:markers stroke fill"/><circle transform="rotate(45.601)" cx="1419.7" cy="435.01" r="34.839" fill="url(#radialGradient33143)" opacity=".74093" stop-color="#000000" style="paint-order:markers stroke fill"/><circle transform="rotate(45.601)" cx="1419.7" cy="435.01" r="34.839" fill="url(#radialGradient33143)" opacity=".74093" stop-color="#000000" style="paint-order:markers stroke fill"/></g><g fill="#fdd891"><path transform="rotate(45.601)" d="m916.54 435.11a57.483 57.483 0 0 0-15.345 39.098 57.483 57.483 0 0 0 57.483 57.483 57.483 57.483 0 0 0 17.397-2.713 57.483 57.483 0 0 1-29.338-50.097 57.483 57.483 0 0 1 40.109-54.778 57.483 57.483 0 0 0-28.169-7.3771 57.483 57.483 0 0 0-42.138 18.384z" stop-color="#000000" style="paint-order:markers stroke fill"/><path transform="rotate(45.601)" d="m1307.8 130.85a57.483 57.483 0 0 0-15.345 39.098 57.483 57.483 0 0 0 57.482 57.483 57.483 57.483 0 0 0 11.357-1.1697 57.483 57.483 0 0 1-39.468-54.554 57.483 57.483 0 0 1 46.18-56.323 57.483 57.483 0 0 0-18.07-2.9188 57.483 57.483 0 0 0-42.138 18.384z" stop-color="#000000" style="paint-order:markers stroke fill"/><path transform="rotate(45.601)" d="m1690.8-178.15a57.483 57.483 0 0 0-15.345 39.098 57.483 57.483 0 0 0 57.483 57.483 57.483 57.483 0 0 0 1.2438-0.047029 57.483 57.483 0 0 1-38.849-54.337 57.483 57.483 0 0 1 56.342-57.44 57.483 57.483 0 0 0-18.738-3.1413 57.483 57.483 0 0 0-42.138 18.384z" stop-color="#000000" style="paint-order:markers stroke fill"/><path transform="rotate(45.601)" d="m2477.1-814.51a57.483 57.483 0 0 1 2.603-0.09746 57.483 57.483 0 0 1 57.483 57.482 57.483 57.483 0 0 1-40.025 54.749 57.483 57.483 0 0 0 54.881-57.385 57.483 57.483 0 0 0-57.482-57.483 57.483 57.483 0 0 0-17.459 2.7338z" stop-color="#000000" style="paint-order:markers stroke fill"/><path transform="rotate(45.601)" d="m2856.9-1126.6a57.483 57.483 0 0 1 46.727 56.463 57.483 57.483 0 0 1-40.483 54.909 57.483 57.483 0 0 0 10.685 1.0431 57.483 57.483 0 0 0 57.483-57.483 57.483 57.483 0 0 0-57.483-57.482 57.483 57.483 0 0 0-16.929 2.5499z" stop-color="#000000" style="paint-order:markers stroke fill"/><path transform="rotate(45.601)" d="m3233.5-1443a57.483 57.483 0 0 1 35.606 53.154 57.483 57.483 0 0 1-31.805 51.401 57.483 57.483 0 0 0 21.848 4.3431 57.483 57.483 0 0 0 57.483-57.483 57.483 57.483 0 0 0-57.483-57.482 57.483 57.483 0 0 0-25.65 6.0673z" stop-color="#000000" style="paint-order:markers stroke fill"/></g></g></svg>
